<?xml version="1.0" standalone="no"?>
<!DOCTYPE svg PUBLIC "-//W3C//DTD SVG 1.1//EN" "http://www.w3.org/Graphics/SVG/1.1/DTD/svg11.dtd" >
<svg>
<metadata>
Created by FontForge 20090622 at Fri Jan 11 14:33:12 2019
 By deploy user
Copyright (c) The Font Bureau, Inc., 2008. All rights reserved.
</metadata>
<defs>
<font id="HeronSans-Bold" horiz-adv-x="620" >
  <font-face 
    font-family="HeronSans Regular"
    font-weight="700"
    font-stretch="normal"
    units-per-em="1000"
    panose-1="2 0 5 3 0 0 0 2 0 4"
    ascent="800"
    descent="-200"
    x-height="541"
    cap-height="750"
    bbox="-77 -285 1332 1024"
    underline-thickness="50"
    underline-position="-50"
    unicode-range="U+0020-U+FB04"
  />
<missing-glyph horiz-adv-x="500" 
d="M0 0v700h500v-700h-500zM50 650v-600h400v600h-400z" />
    <glyph glyph-name="f_f" unicode="ff" horiz-adv-x="677" 
d="M88 0v403h-69v138h69v55q0 95 39 139.5t149 44.5h77v-149h-52q-25 0 -31.5 -9t-6.5 -34v-47h137v55q0 95 39 139.5t149 44.5h77v-149h-52q-25 0 -31.5 -9t-6.5 -34v-47h90v-138h-90v-403h-175v403h-137v-403h-175z" />
    <glyph glyph-name="f_i" unicode="fi" horiz-adv-x="625" 
d="M88 0v403h-69v138h69v55q0 95 39 139.5t149 44.5h77v-149h-52q-25 0 -31.5 -9t-6.5 -34v-47h90v-138h-90v-403h-175zM400 0v541h175v-541h-175zM400 593v157h175v-157h-175z" />
    <glyph glyph-name="f_l" unicode="fl" horiz-adv-x="625" 
d="M400 0v780h175v-780h-175zM88 0v403h-69v138h69v55q0 95 39 139.5t149 44.5h77v-149h-52q-25 0 -31.5 -9t-6.5 -34v-47h90v-138h-90v-403h-175z" />
    <glyph glyph-name="f_f_i" unicode="ffi" horiz-adv-x="937" 
d="M88 0v403h-69v138h69v55q0 95 39 139.5t149 44.5h77v-149h-52q-25 0 -31.5 -9t-6.5 -34v-47h137v55q0 95 39 139.5t149 44.5h77v-149h-52q-25 0 -31.5 -9t-6.5 -34v-47h90v-138h-90v-403h-175v403h-137v-403h-175zM712 0v541h175v-541h-175zM712 593v157h175v-157h-175z
" />
    <glyph glyph-name="f_f_l" unicode="ffl" horiz-adv-x="937" 
d="M88 0v398h-69v145h69v53q0 95 39 139.5t149 44.5h77v-157h-52q-25 0 -31.5 -9t-6.5 -34v-37h137v53q0 95 39 139.5t149 44.5h77v-157h-52q-25 0 -31.5 -9t-6.5 -34v-37h90v-145h-90v-398h-175v398h-137v-398h-175zM712 0v780h175v-780h-175z" />
    <glyph glyph-name="f_j" unicode="fj" horiz-adv-x="625" 
d="M88 0v403h-69v138h69v55q0 95 39 139.5t149 44.5h77v-149h-52q-25 0 -31.5 -9t-6.5 -34v-47h90v-138h-90v-403h-175zM330 -198v147h31q25 0 32 10.5t7 39.5v542h175v-570q0 -86 -43.5 -127.5t-145.5 -41.5h-56zM400 593v157h175v-157h-175z" />
    <glyph glyph-name="f_t" unicode="ft" horiz-adv-x="715" 
d="M88 0v403h-69v138h69v57q0 94 39 138t149 44h77v-149h-52q-25 0 -31.5 -10t-6.5 -37v-43h130v158h175v-158h120v-138h-120v-218q0 -27 6.5 -37t31.5 -10h82v-138h-107q-112 0 -150 41t-38 140v222h-130v-403h-175z" />
    <glyph glyph-name=".notdef" horiz-adv-x="500" 
d="M0 0v700h500v-700h-500zM50 650v-600h400v600h-400z" />
    <glyph glyph-name=".null" horiz-adv-x="0" 
 />
    <glyph glyph-name="nonmarkingreturn" horiz-adv-x="333" 
 />
    <glyph glyph-name="space" unicode=" " horiz-adv-x="175" 
 />
    <glyph glyph-name="exclam" unicode="!" horiz-adv-x="342" 
d="M79 0v161h183v-161h-183zM88 217l-7 533h180l-7 -533h-166z" />
    <glyph glyph-name="quotedbl" unicode="&#x22;" horiz-adv-x="511" 
d="M72 471l-7 279h151l-7 -279h-137zM302 471l-8 279h151l-8 -279h-135z" />
    <glyph glyph-name="numbersign" unicode="#" horiz-adv-x="710" 
d="M101 0l22 194h-73v138h90l9 80h-99v138h115l23 200h161l-25 -200h100l24 200h159l-23 -200h75v-138h-91l-9 -80h100v-138h-116l-23 -194h-160l23 194h-100l-22 -194h-160zM297 330h104l10 84h-104z" />
    <glyph glyph-name="dollar" unicode="$" horiz-adv-x="600" 
d="M215 -124v126q-100 14 -143 66.5t-53 149.5l170 24q9 -63 32 -84.5t77 -21.5q63 0 84.5 19.5t21.5 66.5q0 38 -22.5 54.5t-89.5 33.5l-59 15.5t-52.5 16.5t-49 21t-38 27t-31.5 36.5t-17.5 47.5t-7.5 62q0 88 40.5 141t137.5 69v129h158v-127q100 -13 142 -65.5
t50 -144.5l-173 -23q-4 58 -23 76t-69 18t-70.5 -14t-20.5 -53q0 -16 6 -28t13.5 -19.5t28 -14.5t33.5 -10.5t47 -11.5q51 -12 80 -21t64 -26.5t52.5 -39t30 -56.5t12.5 -82q0 -103 -44.5 -161t-158.5 -71v-125h-158z" />
    <glyph glyph-name="percent" unicode="%" horiz-adv-x="985" 
d="M204 288q-83 0 -128.5 39t-45.5 118v157q0 79 46 118t128 39t127.5 -39t45.5 -118v-157q0 -79 -45.5 -118t-127.5 -39zM204 401q22 0 30.5 12.5t8.5 41.5v134q0 29 -8.5 41.5t-30.5 12.5t-31 -13t-9 -41v-134q0 -28 9 -41t31 -13zM782 -9q-83 0 -128.5 39t-45.5 118v157
q0 79 46 118t128 39t127.5 -39t45.5 -118v-157q0 -79 -45.5 -118t-127.5 -39zM782 104q22 0 30.5 12.5t8.5 41.5v134q0 29 -8.5 41.5t-30.5 12.5t-31 -13t-9 -41v-134q0 -28 9 -41t31 -13zM236 0l355 750h158l-355 -750h-158z" />
    <glyph glyph-name="ampersand" unicode="&#x26;" horiz-adv-x="705" 
d="M298 -8q-147 0 -211.5 54.5t-64.5 164.5q0 75 32.5 124t105.5 81q-30 42 -41.5 75.5t-11.5 75.5q0 192 220 192q116 0 161.5 -47t45.5 -139q0 -65 -33 -113t-110 -87l94 -114q24 60 40 155h142q-30 -176 -85 -272l118 -142h-198l-26 31q-67 -39 -178 -39zM298 131
q52 0 85 13l-142 171q-32 -18 -43.5 -41.5t-11.5 -59.5q0 -83 112 -83zM264 573q0 -28 9.5 -47.5t39.5 -57.5q47 25 61 48t14 56q0 59 -61 59q-63 0 -63 -58z" />
    <glyph glyph-name="quotesingle" unicode="'" horiz-adv-x="292" 
d="M72 471l-7 279h161l-7 -279h-147z" />
    <glyph glyph-name="parenleft" unicode="(" horiz-adv-x="399" 
d="M292 -198q-133 0 -191 61t-58 190v467q0 129 58 189.5t191 60.5h85v-145h-85q-45 0 -61.5 -24.5t-16.5 -92.5v-443q0 -68 17 -93t61 -25h85v-145h-85z" />
    <glyph glyph-name="parenright" unicode=")" horiz-adv-x="399" 
d="M22 -198v145h84q45 0 61.5 25t16.5 93v443q0 68 -16.5 92.5t-61.5 24.5h-84v145h84q134 0 192 -60.5t58 -189.5v-467q0 -129 -58 -190t-192 -61h-84z" />
    <glyph glyph-name="asterisk" unicode="*" horiz-adv-x="521" 
d="M175 309l-104 80l92 115l-139 46l37 110l142 -55l-6 148h128l-7 -148l145 54l37 -109l-141 -46l95 -115l-104 -80l-90 132z" />
    <glyph glyph-name="plus" unicode="+" horiz-adv-x="559" 
d="M204 156v153h-141v136h141v149h151v-149h142v-136h-142v-153h-151z" />
    <glyph glyph-name="comma" unicode="," horiz-adv-x="300" 
d="M80 -131l56 131h-86v194h200v-194l-56 -131h-114z" />
    <glyph glyph-name="hyphen" unicode="-" horiz-adv-x="438" 
d="M31 244v145h375v-145h-375z" />
    <glyph glyph-name="period" unicode="." horiz-adv-x="300" 
d="M50 0v194h200v-194h-200z" />
    <glyph glyph-name="slash" unicode="/" horiz-adv-x="456" 
d="M-18 0l321 750h171l-323 -750h-169z" />
    <glyph glyph-name="zero" unicode="0" horiz-adv-x="633" 
d="M317 -9q-134 0 -209 64t-75 192v256q0 128 75 192t209 64t208.5 -64t74.5 -192v-256q0 -128 -74.5 -192t-208.5 -64zM317 140q60 0 82 28.5t22 91.5v225q0 64 -22 92t-82 28t-82 -28t-22 -92v-225q0 -64 22 -92t82 -28z" />
    <glyph glyph-name="one" unicode="1" horiz-adv-x="387" 
d="M133 0v594h-119l29 156h269v-750h-179z" />
    <glyph glyph-name="two" unicode="2" horiz-adv-x="580" 
d="M28 0v130q0 60 19 107t50 76.5t68 53t74.5 41t68.5 34.5t50 40t19 52q0 42 -20 59t-67 17q-44 0 -67 -21.5t-26 -80.5l-170 15q3 51 16.5 91t41.5 74t79 52.5t122 18.5q69 0 119 -12.5t78 -32t43.5 -50.5t20 -60t4.5 -70q0 -56 -26 -100.5t-65 -70.5t-84 -51t-84 -43.5
t-65 -46.5t-26 -61v-11h359v-150h-532z" />
    <glyph glyph-name="three" unicode="3" horiz-adv-x="609" 
d="M304 -9q-80 0 -134.5 17.5t-85 52t-44 75.5t-18.5 99l172 16q5 -60 30 -87.5t80 -27.5q53 0 77.5 22.5t24.5 70.5q0 50 -23 68.5t-77 18.5h-126v138h124q52 0 72 20t20 61q0 36 -21 54.5t-73 18.5q-54 0 -76.5 -22.5t-27.5 -75.5l-167 15q10 114 69.5 174t203.5 60
q145 0 205.5 -48.5t60.5 -141.5q0 -70 -23 -108.5t-78 -58.5q63 -19 87 -60.5t24 -124.5q0 -111 -65.5 -168.5t-210.5 -57.5z" />
    <glyph glyph-name="four" unicode="4" horiz-adv-x="633" 
d="M361 0v145h-328v138l258 467h184l-260 -467h146v157h165v-157h83v-138h-83v-145h-165z" />
    <glyph glyph-name="five" unicode="5" horiz-adv-x="599" 
d="M301 -9q-99 0 -157 27t-83.5 77t-33.5 138l169 15q5 -62 27 -87t78 -25q52 0 74.5 23t22.5 68v41q0 53 -22.5 75t-80.5 22q-64 0 -106 -25l-146 45l12 365h483l-29 -156h-300l-6 -129q48 37 130 37q59 0 98.5 -8.5t72.5 -31.5t48.5 -67t15.5 -112v-54
q0 -127 -61.5 -182.5t-205.5 -55.5z" />
    <glyph glyph-name="six" unicode="6" horiz-adv-x="608" 
d="M307 -9q-127 0 -200 57.5t-73 172.5v282q0 129 70 192.5t200 63.5q122 0 192 -49t80 -166l-169 -14q-4 45 -27 62t-76 17q-99 0 -99 -100v-73q42 52 140 52q119 0 177 -52.5t58 -168.5v-40q0 -236 -273 -236zM307 141q50 0 76 24t26 67v23q0 90 -102 90t-102 -90v-23
q0 -91 102 -91z" />
    <glyph glyph-name="seven" unicode="7" horiz-adv-x="540" 
d="M105 0l233 594h-325l29 156h479v-156l-235 -594h-181z" />
    <glyph glyph-name="eight" unicode="8" horiz-adv-x="612" 
d="M306 -9q-144 0 -210.5 57t-66.5 142v35q0 69 24 113.5t89 66.5q-59 21 -83 55.5t-24 90.5v29q0 81 70 130t201 49q132 0 201.5 -47t69.5 -132v-29q0 -55 -24 -90t-84 -56q67 -22 91 -66t24 -114v-35q0 -85 -67 -142t-211 -57zM306 128q50 0 79 22.5t29 64.5v26
q0 43 -29.5 67t-78.5 24t-78 -24t-29 -67v-26q0 -42 29 -64.5t78 -22.5zM306 453q46 0 73 20t27 56v15q0 35 -27 54.5t-73 19.5t-73 -19.5t-27 -54.5v-15q0 -36 27 -56t73 -20z" />
    <glyph glyph-name="nine" unicode="9" horiz-adv-x="608" 
d="M304 -9q-122 0 -192 49t-80 166l170 14q3 -44 25.5 -64t76.5 -20q99 0 99 102v76q-32 -52 -140 -52q-119 0 -177 52.5t-58 168.5v40q0 236 274 236q126 0 199 -57.5t73 -172.5v-282q0 -129 -70 -192.5t-200 -63.5zM302 399q101 0 101 88v25q0 91 -101 91q-50 0 -76.5 -24
t-26.5 -67v-25q0 -47 25.5 -67.5t77.5 -20.5z" />
    <glyph glyph-name="colon" unicode=":" horiz-adv-x="310" 
d="M60 0v184h190v-184h-190zM60 357v184h190v-184h-190z" />
    <glyph glyph-name="semicolon" unicode=";" horiz-adv-x="310" 
d="M80 -131l56 131h-76v184h190v-184l-56 -131h-114zM60 357v184h190v-184h-190z" />
    <glyph glyph-name="less" unicode="&#x3c;" horiz-adv-x="560" 
d="M498 142l-435 156v147l435 158v-138l-285 -95l285 -91v-137z" />
    <glyph glyph-name="equal" unicode="=" horiz-adv-x="559" 
d="M63 199v139h434v-139h-434zM63 416v139h434v-139h-434z" />
    <glyph glyph-name="greater" unicode="&#x3e;" horiz-adv-x="560" 
d="M63 142v137l284 91l-284 95v138l435 -158v-147z" />
    <glyph glyph-name="question" unicode="?" horiz-adv-x="576" 
d="M179 217v30q0 68 23.5 102t97.5 89q50 38 63.5 55t13.5 50q0 68 -86 68q-48 0 -71 -21.5t-28 -78.5l-169 15q9 116 66 174.5t199 58.5q130 0 196 -46.5t66 -164.5q0 -30 -8.5 -57t-17.5 -43.5t-31.5 -39t-31 -29.5l-35.5 -29q-48 -37 -62 -55.5t-14 -47.5v-30h-171z
M173 0v161h183v-161h-183z" />
    <glyph glyph-name="at" unicode="@" horiz-adv-x="912" 
d="M600 -178h-145q-197 0 -301.5 89.5t-104.5 255.5v238q0 166 105.5 255.5t300.5 89.5t300 -89.5t105 -255.5v-202q0 -68 -41.5 -109.5t-130.5 -41.5h-34q-90 0 -128 57q-34 -66 -126 -66q-93 0 -131 46.5t-38 132.5v149q0 89 37 134t136 45q60 0 102 -56v47h159v-333
q0 -39 9 -53.5t38 -14.5t39 15t10 54v188q0 127 -78 193.5t-228 66.5q-151 0 -229 -66t-78 -194v-222q0 -128 77.5 -194t229.5 -66h145v-93zM448 166q53 0 58 52v151q0 54 -58 54t-58 -58v-141q0 -58 58 -58z" />
    <glyph glyph-name="A" unicode="A" horiz-adv-x="646" 
d="M14 0l209 750h200l209 -750h-180l-37 145h-189l-36 -145h-176zM254 273h132l-65 257h-2z" />
    <glyph glyph-name="B" unicode="B" horiz-adv-x="636" 
d="M58 0v750h279q117 0 181 -40t64 -133v-26q0 -123 -112 -144q72 -11 101 -48t29 -105v-64q0 -190 -243 -190h-299zM234 137h119q41 0 57.5 16t16.5 55v49q0 39 -17 54.5t-57 15.5h-119v-190zM234 454h107q37 0 52.5 13.5t15.5 48.5v30q0 36 -16 49.5t-52 13.5h-107v-155z
" />
    <glyph glyph-name="C" unicode="C" horiz-adv-x="613" 
d="M316 -9q-129 0 -206 64.5t-77 191.5v256q0 127 77.5 191.5t205.5 64.5q140 0 202 -52t75 -189l-175 -22q-5 60 -25.5 84t-76.5 24q-103 0 -103 -123v-217q0 -60 21.5 -91.5t81.5 -31.5q58 0 79 24t26 90l172 -22q-15 -132 -78 -187t-199 -55z" />
    <glyph glyph-name="D" unicode="D" horiz-adv-x="643" 
d="M58 0v750h270q135 0 208.5 -61t73.5 -189v-250q0 -127 -74 -188.5t-208 -61.5h-270zM238 147h90q61 0 82 26.5t21 90.5v217q0 65 -21 90.5t-82 25.5h-90v-450z" />
    <glyph glyph-name="E" unicode="E" horiz-adv-x="574" 
d="M58 0v750h480l-29 -156h-271v-132h195v-158h-195v-154h271l29 -150h-480z" />
    <glyph glyph-name="F" unicode="F" horiz-adv-x="561" 
d="M58 0v750h480l-29 -156h-271v-132h195v-158h-195v-304h-180z" />
    <glyph glyph-name="G" unicode="G" horiz-adv-x="630" 
d="M316 -9q-129 0 -206 64.5t-77 191.5v256q0 127 77 190t206 63q137 0 200.5 -49.5t75.5 -174.5l-175 -24q-4 54 -24.5 76t-76.5 22q-103 0 -103 -122v-220q0 -126 103 -126q73 0 95.5 28t22.5 96v14h-120v140h283v-157q0 -268 -281 -268z" />
    <glyph glyph-name="H" unicode="H" horiz-adv-x="671" 
d="M58 0v750h180v-265h195v265h180v-750h-180v321h-195v-321h-180z" />
    <glyph glyph-name="I" unicode="I" horiz-adv-x="309" 
d="M65 0v750h179v-750h-179z" />
    <glyph glyph-name="J" unicode="J" horiz-adv-x="371" 
d="M15 0v150h39q58 0 75 21t17 87v492h179v-501q0 -67 -10 -109.5t-38.5 -76t-81.5 -48.5t-136 -15h-44z" />
    <glyph glyph-name="K" unicode="K" horiz-adv-x="631" 
d="M58 0v750h180v-258l182 258h192l-214 -290l225 -460h-195l-154 315l-36 -51v-264h-180z" />
    <glyph glyph-name="L" unicode="L" horiz-adv-x="558" 
d="M58 0v750h180v-600h271l29 -150h-480z" />
    <glyph glyph-name="M" unicode="M" horiz-adv-x="830" 
d="M58 0v750h224l133 -505h2l131 505h224v-750h-180v397h-2l-97 -397h-157l-101 397h-2v-397h-175z" />
    <glyph glyph-name="N" unicode="N" horiz-adv-x="671" 
d="M58 0v750h186l194 -410h2v410h173v-750h-177l-200 428h-2v-428h-176z" />
    <glyph glyph-name="O" unicode="O" horiz-adv-x="643" 
d="M322 -9q-135 0 -212 64t-77 192v256q0 128 77 192t212 64t211.5 -64t76.5 -192v-256q0 -127 -77 -191.5t-211 -64.5zM322 141q60 0 84.5 29.5t24.5 93.5v217q0 64 -24.5 93.5t-84.5 29.5q-61 0 -85 -29t-24 -94v-217q0 -64 24 -93.5t85 -29.5z" />
    <glyph glyph-name="P" unicode="P" horiz-adv-x="625" 
d="M58 0v750h277q140 0 202.5 -50.5t62.5 -158.5v-67q0 -108 -62.5 -159.5t-202.5 -51.5h-97v-263h-180zM238 406h103q50 0 68 17t18 61v37q0 44 -18 61t-68 17h-103v-193z" />
    <glyph glyph-name="Q" unicode="Q" horiz-adv-x="643" 
d="M322 -5q-136 0 -212.5 62.5t-76.5 189.5v256q0 128 77 192t212 64t211.5 -64t76.5 -192v-256q0 -131 -92 -198l82 -173h-189l-57 120q-6 0 -16 -0.5t-16 -0.5zM322 139q60 0 84.5 29.5t24.5 93.5v219q0 64 -24.5 93.5t-84.5 29.5q-61 0 -85 -29t-24 -94v-219
q0 -64 24 -93.5t85 -29.5z" />
    <glyph glyph-name="R" unicode="R" horiz-adv-x="628" 
d="M436 0l-131 267h-67v-267h-180v750h273q140 0 201.5 -50.5t61.5 -158.5v-67q0 -63 -25 -107.5t-89 -70.5l144 -296h-188zM238 409h99q50 0 68 17t18 61v34q0 44 -18 61t-68 17h-99v-190z" />
    <glyph glyph-name="S" unicode="S" horiz-adv-x="612" 
d="M301 -9q-145 0 -207 57t-74 170l170 24q9 -63 33.5 -84.5t79.5 -21.5q63 0 86.5 19.5t23.5 66.5q0 38 -23.5 54t-92.5 34l-59.5 15t-52.5 16.5t-50 21.5t-39 27t-32 36.5t-18 47.5t-8 62q0 105 61.5 164t205.5 59q143 0 201.5 -57t67.5 -164l-173 -23q-4 58 -24.5 76
t-71.5 18t-73 -14.5t-22 -52.5q0 -36 26.5 -51t96.5 -31q6 -1 9 -2q51 -13 80 -21.5t65 -26t54 -39t31 -56.5t13 -82q0 -118 -62.5 -180t-221.5 -62z" />
    <glyph glyph-name="T" unicode="T" horiz-adv-x="582" 
d="M201 0v594h-187v156h554v-156h-187v-594h-180z" />
    <glyph glyph-name="U" unicode="U" horiz-adv-x="646" 
d="M323 -9q-133 0 -205 63.5t-72 192.5v503h179v-484q0 -66 19.5 -94t78.5 -28t78.5 28t19.5 94v484h179v-503q0 -129 -72 -192.5t-205 -63.5z" />
    <glyph glyph-name="V" unicode="V" horiz-adv-x="646" 
d="M223 0l-209 750h180l131 -515h2l129 515h176l-209 -750h-200z" />
    <glyph glyph-name="W" unicode="W" horiz-adv-x="929" 
d="M190 0l-183 750h180l97 -457h2l93 457h176l92 -457h2l98 457h175l-183 -750h-183l-90 452h-2l-91 -452h-183z" />
    <glyph glyph-name="X" unicode="X" horiz-adv-x="617" 
d="M3 0l211 390l-195 360h189l108 -200l103 200h179l-195 -361l211 -389h-189l-125 230l-118 -230h-179z" />
    <glyph glyph-name="Y" unicode="Y" horiz-adv-x="633" 
d="M226 0v297l-220 453h186l128 -282h2l131 282h174l-220 -453v-297h-181z" />
    <glyph glyph-name="Z" unicode="Z" horiz-adv-x="552" 
d="M25 0v150l284 444h-272v156h478v-156l-284 -444h297v-150h-503z" />
    <glyph glyph-name="bracketleft" unicode="[" horiz-adv-x="399" 
d="M44 -198v968h332v-146h-161v-677h161v-145h-332z" />
    <glyph glyph-name="backslash" unicode="\" horiz-adv-x="456" 
d="M305 0l-323 750h171l321 -750h-169z" />
    <glyph glyph-name="bracketright" unicode="]" horiz-adv-x="399" 
d="M23 -198v145h162v677h-162v146h332v-968h-332z" />
    <glyph glyph-name="asciicircum" unicode="^" horiz-adv-x="559" 
d="M29 315l156 435h187l158 -435h-158l-95 285l-91 -285h-157z" />
    <glyph glyph-name="underscore" unicode="_" horiz-adv-x="435" 
d="M-31 -162v133h497v-133h-497z" />
    <glyph glyph-name="grave" unicode="`" horiz-adv-x="500" 
d="M173 580l-108 185h165l92 -185h-149z" />
    <glyph glyph-name="a" unicode="a" horiz-adv-x="536" 
d="M184 -7q-164 0 -164 168q0 87 55.5 129t195.5 42h55v33q0 29 -10 40.5t-43 11.5t-44.5 -11t-17.5 -44l-170 26q17 88 68.5 125t170.5 37q122 0 170 -44t48 -146v-360h-172v58q-20 -32 -52 -48.5t-90 -16.5zM265 120q63 0 63 59v46h-63q-43 0 -59.5 -12t-16.5 -41
q0 -30 16.5 -41t59.5 -11z" />
    <glyph glyph-name="b" unicode="b" horiz-adv-x="561" 
d="M333 -9q-76 0 -114 60v-51h-175v780h175v-294q43 64 129 64q104 0 146 -50.5t42 -146.5v-165q0 -95 -46 -146t-157 -51zM290 129q34 0 52.5 17t18.5 47v156q0 64 -71 64q-33 0 -52 -15.5t-19 -43.5v-161q0 -30 18.5 -47t52.5 -17z" />
    <glyph glyph-name="c" unicode="c" horiz-adv-x="520" 
d="M264 -9q-239 0 -239 207v145q0 207 239 207q68 0 112.5 -11.5t69.5 -37.5t36.5 -57.5t17.5 -80.5l-171 -25q-4 41 -15.5 56.5t-49.5 15.5q-37 0 -50.5 -17t-13.5 -47v-156q0 -30 13.5 -47t50.5 -17q39 0 50.5 13t18.5 56l161 -24q-7 -44 -19 -73.5t-36.5 -55.5t-68 -38.5
t-106.5 -12.5z" />
    <glyph glyph-name="d" unicode="d" horiz-adv-x="562" 
d="M216 -9q-103 0 -147 51t-44 146v165q0 97 43 147t153 50q75 0 122 -62v292h175v-780h-175v52q-40 -61 -127 -61zM271 126q67 0 72 58v167q0 27 -19.5 43t-52.5 16q-34 0 -52.5 -17t-18.5 -47v-156q0 -64 71 -64z" />
    <glyph glyph-name="e" unicode="e" horiz-adv-x="526" 
d="M264 -9q-127 0 -183 57.5t-56 149.5v145q0 94 55.5 150.5t183.5 56.5q130 0 183 -59.5t53 -174.5v-97h-306v-40q0 -31 13.5 -47t56.5 -16q41 0 53.5 13t17.5 50l165 -25q-19 -163 -236 -163zM194 329h137v30q0 31 -14.5 46t-52.5 15q-70 0 -70 -61v-30z" />
    <glyph glyph-name="f" unicode="f" horiz-adv-x="395" 
d="M88 0v403h-69v138h69v57q0 94 39 138t149 44h107v-149h-82q-25 0 -31.5 -10t-6.5 -37v-43h120v-138h-120v-403h-175z" />
    <glyph glyph-name="g" unicode="g" horiz-adv-x="534" 
d="M263 178h-14q-25 0 -32.5 -5t-7.5 -18t7 -17.5t33 -4.5l50 -1q89 -2 138.5 -21t66 -49.5t16.5 -81.5v-12q0 -34 -10 -61t-36 -53t-79 -40t-131 -14q-64 0 -111 7.5t-74.5 19t-43.5 30.5t-21 38t-5 45v12q0 68 77 105q-18 25 -18 66q0 55 41 83q-84 41 -84 136v39
q0 166 234 166q46 0 82 -6h179v-135h-45q11 -29 11 -46v-20q0 -162 -223 -162zM259 281q73 0 73 66v18q0 59 -73 59q-71 0 -71 -59v-22q0 -32 16 -47t55 -15zM264 1l-81 2q-14 -18 -14 -40v-5q0 -23 19 -34.5t76 -11.5q58 0 77 10.5t19 32.5v5q0 22 -17.5 31t-78.5 10z" />
    <glyph glyph-name="h" unicode="h" horiz-adv-x="569" 
d="M44 0v780h175v-300q49 70 142 70q170 0 170 -158v-392h-175v360q0 46 -70 46q-27 0 -47 -13.5t-20 -36.5v-356h-175z" />
    <glyph glyph-name="i" unicode="i" horiz-adv-x="275" 
d="M50 0v541h175v-541h-175zM50 593v157h175v-157h-175z" />
    <glyph glyph-name="j" unicode="j" horiz-adv-x="275" 
d="M-20 -198v147h31q25 0 32 10.5t7 39.5v542h175v-570q0 -86 -43.5 -127.5t-145.5 -41.5h-56zM50 593v157h175v-157h-175z" />
    <glyph glyph-name="k" unicode="k" horiz-adv-x="528" 
d="M44 0v780h175v-388l122 149h185l-167 -198l171 -343h-183l-106 215l-22 -25v-190h-175z" />
    <glyph glyph-name="l" unicode="l" horiz-adv-x="275" 
d="M50 0v780h175v-780h-175z" />
    <glyph glyph-name="m" unicode="m" horiz-adv-x="867" 
d="M44 0v541h175v-60q46 69 139 69q115 0 144 -71q55 71 161 71q92 0 129 -42t37 -116v-392h-175v360q0 46 -66 46q-28 0 -46 -14t-18 -40v-352h-175v360q0 46 -66 46q-27 0 -45.5 -12.5t-18.5 -36.5v-357h-175z" />
    <glyph glyph-name="n" unicode="n" horiz-adv-x="569" 
d="M44 0v541h175v-61q49 70 142 70q170 0 170 -158v-392h-175v360q0 46 -70 46q-28 0 -47.5 -14t-19.5 -40v-352h-175z" />
    <glyph glyph-name="o" unicode="o" horiz-adv-x="543" 
d="M270 126q34 0 53.5 17t19.5 47v156q0 31 -19 47.5t-54 16.5q-70 0 -70 -64v-156q0 -64 70 -64zM270 -9q-127 0 -186 56.5t-59 150.5v145q0 95 59.5 151t185.5 56q127 0 187.5 -56t60.5 -151v-145q0 -94 -60.5 -150.5t-187.5 -56.5z" />
    <glyph glyph-name="p" unicode="p" horiz-adv-x="561" 
d="M44 -198v739h175v-55q43 64 130 64q103 0 145 -50.5t42 -146.5v-165q0 -94 -44.5 -144t-150.5 -50q-83 0 -122 55v-247h-175zM290 126q34 0 52.5 17t18.5 47v156q0 64 -71 64q-33 0 -52 -15.5t-19 -43.5v-161q0 -30 18.5 -47t52.5 -17z" />
    <glyph glyph-name="q" unicode="q" horiz-adv-x="561" 
d="M343 -198v250q-40 -61 -123 -61q-108 0 -151.5 50.5t-43.5 146.5v165q0 96 43.5 146.5t152.5 50.5q75 0 122 -62v53h175v-739h-175zM271 126q33 0 52.5 15.5t19.5 42.5v167q0 27 -19.5 43t-52.5 16q-34 0 -52.5 -17t-18.5 -47v-156q0 -64 71 -64z" />
    <glyph glyph-name="r" unicode="r" horiz-adv-x="376" 
d="M44 0v541h175v-64q47 70 125 70h20v-142h-20q-125 0 -125 -61v-344h-175z" />
    <glyph glyph-name="s" unicode="s" horiz-adv-x="517" 
d="M264 -8q-126 0 -180 33.5t-65 117.5l168 24q6 -36 21.5 -46t58.5 -10q35 0 47.5 9t12.5 28q0 23 -12 32t-52 16q-103 17 -138 32q-96 39 -96 139q0 43 9 73.5t33.5 56.5t72 39t118.5 13q115 0 166.5 -37t61.5 -119l-173 -25q-3 33 -14.5 43.5t-46.5 10.5q-29 0 -43 -7
t-14 -27q0 -24 17 -32t75 -17q35 -6 58 -11t54 -17t49.5 -28.5t32 -44t13.5 -63.5q0 -42 -9.5 -72.5t-33.5 -57t-72 -40t-119 -13.5z" />
    <glyph glyph-name="t" unicode="t" horiz-adv-x="410" 
d="M276 0q-112 0 -150 41t-38 140v222h-69v138h69v158h175v-158h120v-138h-120v-218q0 -27 6.5 -37t31.5 -10h82v-138h-107z" />
    <glyph glyph-name="u" unicode="u" horiz-adv-x="569" 
d="M208 -9q-170 0 -170 158v392h175v-360q0 -46 70 -46q28 0 47.5 14t19.5 40v352h175v-541h-175v61q-49 -70 -142 -70z" />
    <glyph glyph-name="v" unicode="v" horiz-adv-x="536" 
d="M174 0l-174 541h175l93 -332h2l93 332h173l-173 -541h-189z" />
    <glyph glyph-name="w" unicode="w" horiz-adv-x="792" 
d="M154 0l-143 541h174l67 -302h2l54 302h183l53 -299h2l68 299h167l-137 -541h-189l-55 305h-2l-55 -305h-189z" />
    <glyph glyph-name="x" unicode="x" horiz-adv-x="523" 
d="M-1 0l165 287l-155 254h183l79 -130l74 130h169l-157 -270l167 -271h-183l-90 146l-83 -146h-169z" />
    <glyph glyph-name="y" unicode="y" horiz-adv-x="536" 
d="M111 -198l70 202l-181 537h175l92 -326h2l94 326h173l-251 -739h-174z" />
    <glyph glyph-name="z" unicode="z" horiz-adv-x="474" 
d="M19 0v125l214 275h-207v141h423v-131l-213 -275h220v-135h-437z" />
    <glyph glyph-name="braceleft" unicode="{" horiz-adv-x="462" 
d="M355 -198q-134 0 -191.5 60.5t-57.5 190.5v169h-82v140h82v158q0 129 57.5 189.5t191.5 60.5h84v-145h-84q-45 0 -62 -26.5t-17 -96.5v-431q0 -71 17 -97.5t62 -26.5h84v-145h-84z" />
    <glyph glyph-name="bar" unicode="|" horiz-adv-x="287" 
d="M58 -198v968h171v-968h-171z" />
    <glyph glyph-name="braceright" unicode="}" horiz-adv-x="463" 
d="M23 -198v145h84q45 0 61.5 26.5t16.5 97.5v431q0 71 -16.5 97t-61.5 26h-84v145h84q134 0 191.5 -60.5t57.5 -189.5v-158h83v-140h-83v-169q0 -130 -57.5 -190.5t-191.5 -60.5h-84z" />
    <glyph glyph-name="asciitilde" unicode="~" horiz-adv-x="559" 
d="M45 314q0 94 27.5 132.5t96.5 38.5q31 0 106 -23.5t87 -23.5q28 0 28 47h124q0 -91 -26.5 -131t-97.5 -40q-32 0 -108 23.5t-84 23.5q-13 0 -20 -8t-8 -16t-1 -23h-124z" />
    <glyph glyph-name="uni00A0" unicode="&#xa0;" horiz-adv-x="175" 
 />
    <glyph glyph-name="exclamdown" unicode="&#xa1;" horiz-adv-x="342" 
d="M81 0l7 533h166l7 -533h-180zM79 590v160h183v-160h-183z" />
    <glyph glyph-name="cent" unicode="&#xa2;" horiz-adv-x="528" 
d="M183 -124v126q-158 30 -158 196v145q0 166 159 196v115h155v-113q84 -11 117 -53t44 -125l-171 -25q-4 41 -15.5 56.5t-49.5 15.5q-37 0 -50.5 -17t-13.5 -47v-156q0 -30 13.5 -47t50.5 -17q39 0 50.5 13t18.5 56l161 -24q-12 -75 -44.5 -116.5t-110.5 -54.5v-124h-156z
" />
    <glyph glyph-name="sterling" unicode="&#xa3;" horiz-adv-x="597" 
d="M20 291v140h58q-18 65 -18 102q0 226 260 226q131 0 192.5 -53.5t70.5 -181.5l-169 -15q-6 61 -24.5 82.5t-70.5 21.5q-49 0 -69 -21t-20 -62q0 -34 18 -99h181v-140h-147q3 -18 3 -33q0 -66 -26 -108h318v-150h-526v117q63 74 63 148q0 8 -2 26h-92z" />
    <glyph glyph-name="currency" unicode="&#xa4;" horiz-adv-x="559" 
d="M457 94l-62 62q-47 -22 -117 -22q-69 0 -115 20l-60 -60l-96 96l70 70q-5 25 -5 47v122q0 26 4 46l-69 69l96 96l58 -58q50 21 117 21q73 0 119 -23l60 60l96 -96l-71 -71q4 -19 4 -44v-122q0 -22 -5 -45l72 -72zM278 247q29 0 45 14.5t16 39.5v131q0 25 -16 39t-45 14
q-59 0 -59 -53v-131q0 -54 59 -54z" />
    <glyph glyph-name="yen" unicode="&#xa5;" horiz-adv-x="633" 
d="M54 254v116h136l-184 380h186l128 -282h2l131 282h174l-185 -380h144v-116h-179v-42h179v-116h-179v-96h-181v96h-172v116h172v42h-172z" />
    <glyph glyph-name="brokenbar" unicode="&#xa6;" horiz-adv-x="287" 
d="M58 331v439h171v-439h-171zM58 -198v439h171v-439h-171z" />
    <glyph glyph-name="section" unicode="&#xa7;" horiz-adv-x="536" 
d="M269 -9q-115 0 -165 36.5t-60 119.5l166 25q3 -33 17 -47t48 -14q33 0 47 9.5t14 31.5q0 26 -17.5 36t-78.5 20l-35.5 6t-34 7t-35 10.5t-30 14t-27.5 19t-20 25t-14.5 33.5t-4.5 42q0 71 34 113q-34 37 -34 99q0 43 9 73.5t33.5 56.5t72 39t118.5 13q115 0 166.5 -37
t61.5 -119l-166 -25q-3 33 -18 47t-50 14q-64 0 -64 -41q0 -26 18.5 -36t80.5 -20l35.5 -6t34 -7t35 -10.5t30 -14t27.5 -19t20 -25t14.5 -33.5t4.5 -42q0 -72 -36 -115q33 -38 33 -97q0 -34 -5 -59.5t-19.5 -49.5t-39.5 -39.5t-67 -24.5t-99 -9zM273 406q-35 4 -72 12
q-7 -11 -7 -26q0 -23 13 -31.5t61 -16.5q68 -12 71 -13q8 14 8 27q0 23 -12.5 31.5t-61.5 16.5z" />
    <glyph glyph-name="dieresis" unicode="&#xa8;" horiz-adv-x="500" 
d="M74 580v143h148v-143h-148zM278 580v143h148v-143h-148z" />
    <glyph glyph-name="copyright" unicode="&#xa9;" horiz-adv-x="738" 
d="M372 136q-80 0 -129 40t-49 117v156q0 78 49.5 117.5t128.5 39.5q86 0 126.5 -32t48.5 -115l-112 -14q-3 36 -15.5 49.5t-47.5 13.5q-63 0 -63 -72v-133q0 -36 13.5 -54.5t49.5 -18.5t48.5 13.5t15.5 54.5l111 -14q-10 -80 -50.5 -114t-124.5 -34zM369 -9q-156 0 -239 71
t-83 203v220q0 132 83.5 203t238.5 71t238.5 -71t83.5 -203v-220q0 -131 -83.5 -202.5t-238.5 -71.5zM369 52q255 0 255 214v218q0 214 -255 214t-255 -214v-218q0 -214 255 -214z" />
    <glyph glyph-name="ordfeminine" unicode="&#xaa;" horiz-adv-x="477" 
d="M174 292q-138 0 -138 141q0 73 47 108t164 35h46v28q0 24 -8.5 34t-35.5 10q-28 0 -37.5 -9.5t-14.5 -37.5l-143 22q14 74 57 105t144 31q102 0 142.5 -37t40.5 -122v-302h-145v48q-34 -54 -119 -54zM242 398q53 0 53 50v38h-53q-37 0 -50.5 -10t-13.5 -34
q0 -25 14 -34.5t50 -9.5z" />
    <glyph glyph-name="guillemotleft" unicode="&#xab;" horiz-adv-x="618" 
d="M165 0l-134 270l134 271h178l-134 -271l134 -270h-178zM430 0l-134 270l134 271h178l-134 -271l134 -270h-178z" />
    <glyph glyph-name="logicalnot" unicode="&#xac;" horiz-adv-x="569" 
d="M346 156v153h-283v136h434v-289h-151z" />
    <glyph glyph-name="registered" unicode="&#xae;" horiz-adv-x="538" 
d="M157 324v324h118q61 0 87.5 -22t26.5 -68v-29q0 -58 -49 -78l62 -127h-82l-56 115h-29v-115h-78zM269 204q-113 0 -173 51.5t-60 146.5v159q0 95 60.5 146.5t172.5 51.5t172.5 -51.5t60.5 -146.5v-159q0 -95 -60.5 -146.5t-172.5 -51.5zM269 259q175 0 175 147v151
q0 147 -175 147q-176 0 -176 -147v-151q0 -147 176 -147zM235 501h43q22 0 29.5 7t7.5 27v14q0 19 -8 26.5t-29 7.5h-43v-82z" />
    <glyph glyph-name="macron" unicode="&#xaf;" horiz-adv-x="500" 
d="M95 580v116h310v-116h-310z" />
    <glyph glyph-name="degree" unicode="&#xb0;" horiz-adv-x="453" 
d="M226 306q-94 0 -143.5 45t-49.5 133v95q0 177 193 177t193 -177v-95q0 -178 -193 -178zM226 423q69 0 69 68v74q0 68 -69 68t-69 -68v-74q0 -68 69 -68z" />
    <glyph glyph-name="plusminus" unicode="&#xb1;" horiz-adv-x="559" 
d="M204 276v123h-141v136h141v149h151v-149h142v-136h-142v-123h-151zM63 90v136h434v-136h-434z" />
    <glyph glyph-name="two.sups" unicode="&#xb2;" horiz-adv-x="486" 
d="M50 249v91q0 54 25 94.5t61 63t72 40t61 37t25 43.5q0 25 -13 34t-38 9q-31 0 -43 -15t-14 -46l-139 10q4 75 50.5 122.5t142.5 47.5q60 0 100.5 -14t60.5 -39t27.5 -52t7.5 -62q0 -42 -25 -76.5t-60.5 -56.5t-71 -39.5t-60.5 -34t-25 -31.5v-4h243v-122h-387z" />
    <glyph glyph-name="three.sups" unicode="&#xb3;" horiz-adv-x="506" 
d="M253 243q-59 0 -99.5 12t-62.5 36.5t-32 52.5t-14 69l137 13q4 -41 19 -55.5t55 -14.5q34 0 47.5 14t13.5 42q0 29 -14 41t-46 12h-101v107h100q24 0 36.5 7.5t15 16.5t2.5 25q0 19 -11 30.5t-46 11.5q-38 0 -49.5 -10.5t-14.5 -46.5l-137 10q7 81 49.5 122.5t151.5 41.5
q196 0 196 -133q0 -48 -18 -75.5t-57 -41.5q47 -13 64.5 -42t17.5 -87q0 -158 -203 -158z" />
    <glyph glyph-name="acute" unicode="&#xb4;" horiz-adv-x="500" 
d="M178 580l93 187h164l-107 -187h-150z" />
    <glyph glyph-name="mu" unicode="&#xb5;" horiz-adv-x="575" 
d="M44 -198v739h175v-365q3 -41 70 -41q28 0 47.5 14t19.5 40v352h175v-541h-175v61q-44 -63 -127 -63h-10v-196h-175z" />
    <glyph glyph-name="mu" unicode="&#x3bc;" horiz-adv-x="575" 
d="M44 -198v739h175v-365q3 -41 70 -41q28 0 47.5 14t19.5 40v352h175v-541h-175v61q-44 -63 -127 -63h-10v-196h-175z" />
    <glyph glyph-name="paragraph" unicode="&#xb6;" horiz-adv-x="606" 
d="M160 -198v377q-65 23 -100.5 74.5t-35.5 127.5v149q0 220 282 220h243v-948h-163v356h-70v-356h-156zM303 306h83v296h-83q-48 0 -72.5 -20.5t-24.5 -75.5v-113q0 -51 24.5 -69t72.5 -18z" />
    <glyph glyph-name="periodcentered" unicode="&#xb7;" horiz-adv-x="300" 
d="M50 228v194h200v-194h-200z" />
    <glyph glyph-name="cedilla" unicode="&#xb8;" horiz-adv-x="500" 
d="M164 -250v87h40q35 0 51.5 7.5t16.5 30.5q0 35 -67 35h-13v115h83v-63q43 -4 66 -24t23 -65q0 -62 -36.5 -92.5t-125.5 -30.5h-38z" />
    <glyph glyph-name="one.sups" unicode="&#xb9;" horiz-adv-x="344" 
d="M116 249v396h-83l20 129h208v-525h-145z" />
    <glyph glyph-name="ordmasculine" unicode="&#xba;" horiz-adv-x="503" 
d="M250 403q29 0 45 14.5t16 39.5v131q0 25 -16 39t-45 14q-59 0 -59 -53v-131q0 -54 59 -54zM250 290q-107 0 -156.5 47t-49.5 126v122q0 80 50 127t156 47q107 0 157.5 -47t50.5 -127v-122q0 -79 -51 -126t-157 -47z" />
    <glyph glyph-name="guillemotright" unicode="&#xbb;" horiz-adv-x="618" 
d="M275 0l134 270l-134 271h178l134 -271l-134 -270h-178zM10 0l134 270l-134 271h178l134 -271l-134 -270h-178z" />
    <glyph glyph-name="onequarter" unicode="&#xbc;" horiz-adv-x="1044" 
d="M86 228v396h-83l20 129h208v-525h-145zM194 0l415 750h158l-415 -750h-158zM837 0v91h-240v107l194 327h147l-196 -327h95v110h132v-110h58v-107h-58v-91h-132z" />
    <glyph glyph-name="onehalf" unicode="&#xbd;" horiz-adv-x="1053" 
d="M86 228v396h-83l20 129h208v-525h-145zM194 0l415 750h158l-415 -750h-158zM647 0v91q0 54 25 94.5t61 63t72 40t61 37t25 43.5q0 25 -13 34t-38 9q-31 0 -43 -15t-14 -46l-139 10q4 75 50.5 122.5t142.5 47.5q60 0 100.5 -14t60.5 -39t27.5 -52t7.5 -62q0 -42 -25 -76.5
t-60.5 -56.5t-71 -39.5t-60.5 -34t-25 -31.5v-4h243v-122h-387z" />
    <glyph glyph-name="threequarters" unicode="&#xbe;" horiz-adv-x="1176" 
d="M223 222q-59 0 -99.5 12t-62.5 36.5t-32 52.5t-14 69l137 13q4 -41 19 -55.5t55 -14.5q34 0 47.5 14t13.5 42q0 29 -14 41t-46 12h-101v107h100q24 0 36.5 7.5t15 16.5t2.5 25q0 20 -11 31t-46 11q-38 0 -49.5 -10.5t-14.5 -46.5l-137 10q7 81 49.5 122.5t151.5 41.5
q196 0 196 -133q0 -48 -18 -75.5t-57 -41.5q47 -13 64.5 -42t17.5 -87q0 -158 -203 -158zM326 0l415 750h158l-415 -750h-158zM969 0v91h-240v107l194 327h147l-196 -327h95v110h132v-110h58v-107h-58v-91h-132z" />
    <glyph glyph-name="questiondown" unicode="&#xbf;" horiz-adv-x="576" 
d="M286 -9q-130 0 -196 46.5t-66 164.5q0 30 8.5 57t17.5 43.5t31.5 39t31 29.5l35.5 29q48 37 62 55.5t14 47.5v30h171v-30q0 -68 -23.5 -102t-97.5 -89q-50 -38 -63.5 -55t-13.5 -50q0 -68 86 -68q48 0 71 21.5t28 78.5l169 -15q-9 -116 -66 -174.5t-199 -58.5zM218 589
v161h183v-161h-183z" />
    <glyph glyph-name="Agrave" unicode="&#xc0;" horiz-adv-x="646" 
d="M14 0l209 750h200l209 -750h-180l-37 145h-189l-36 -145h-176zM254 273h132l-65 257h-2zM266 778l-108 185h165l92 -185h-149z" />
    <glyph glyph-name="Aacute" unicode="&#xc1;" horiz-adv-x="646" 
d="M14 0l209 750h200l209 -750h-180l-37 145h-189l-36 -145h-176zM254 273h132l-65 257h-2zM251 778l93 187h164l-107 -187h-150z" />
    <glyph glyph-name="Acircumflex" unicode="&#xc2;" horiz-adv-x="646" 
d="M14 0l209 750h200l209 -750h-180l-37 145h-189l-36 -145h-176zM254 273h132l-65 257h-2zM114 778l124 171h169l124 -171h-136l-72 65l-71 -65h-138z" />
    <glyph glyph-name="Atilde" unicode="&#xc3;" horiz-adv-x="646" 
d="M14 0l209 750h200l209 -750h-180l-37 145h-189l-36 -145h-176zM254 273h132l-65 257h-2zM254 778h-119q0 78 25 114t89 36q32 0 74 -15t48 -15q23 0 23 30h119q0 -78 -25.5 -114t-90.5 -36q-31 0 -72.5 15t-47.5 15q-23 0 -23 -30z" />
    <glyph glyph-name="Adieresis" unicode="&#xc4;" horiz-adv-x="646" 
d="M14 0l209 750h200l209 -750h-180l-37 145h-189l-36 -145h-176zM254 273h132l-65 257h-2zM147 778v143h148v-143h-148zM351 778v143h148v-143h-148z" />
    <glyph glyph-name="Aring" unicode="&#xc5;" horiz-adv-x="646" 
d="M14 0l203 729q-21 29 -21 81q0 126 127 126t127 -126q0 -50 -21 -81l203 -729h-180l-37 145h-189l-36 -145h-176zM254 273h132l-65 257h-2zM323 759q25 0 35 12t10 39q0 28 -10 41t-35 13t-35 -13t-10 -41q0 -27 10 -39t35 -12z" />
    <glyph glyph-name="AE" unicode="&#xc6;" horiz-adv-x="920" 
d="M285 304h123v303h-2zM-8 0l309 750h583l-30 -156h-271v-132h195v-158h-195v-154h271l29 -150h-475v164h-170l-68 -164h-178z" />
    <glyph glyph-name="Ccedilla" unicode="&#xc7;" horiz-adv-x="613" 
d="M220 -250v87h40q35 0 51.5 7.5t16.5 30.5q0 35 -67 35h-13v86q-100 16 -157.5 79t-57.5 172v256q0 127 77.5 191.5t205.5 64.5q140 0 202 -52t75 -189l-175 -22q-5 60 -25.5 84t-76.5 24q-103 0 -103 -123v-217q0 -60 21.5 -91.5t81.5 -31.5q58 0 79 24t26 90l172 -22
q-15 -129 -74.5 -184t-187.5 -58v-29q43 -4 66 -24t23 -65q0 -62 -36.5 -92.5t-125.5 -30.5h-38z" />
    <glyph glyph-name="Egrave" unicode="&#xc8;" horiz-adv-x="574" 
d="M58 0v750h480l-29 -156h-271v-132h195v-158h-195v-154h271l29 -150h-480zM230 778l-108 185h165l92 -185h-149z" />
    <glyph glyph-name="Eacute" unicode="&#xc9;" horiz-adv-x="574" 
d="M58 0v750h480l-29 -156h-271v-132h195v-158h-195v-154h271l29 -150h-480zM215 778l93 187h164l-107 -187h-150z" />
    <glyph glyph-name="Ecircumflex" unicode="&#xca;" horiz-adv-x="574" 
d="M58 0v750h480l-29 -156h-271v-132h195v-158h-195v-154h271l29 -150h-480zM78 778l124 171h169l124 -171h-136l-72 65l-71 -65h-138z" />
    <glyph glyph-name="Edieresis" unicode="&#xcb;" horiz-adv-x="574" 
d="M58 0v750h480l-29 -156h-271v-132h195v-158h-195v-154h271l29 -150h-480zM111 778v143h148v-143h-148zM315 778v143h148v-143h-148z" />
    <glyph glyph-name="Igrave" unicode="&#xcc;" horiz-adv-x="309" 
d="M65 0v750h179v-750h-179zM77 778l-108 185h165l92 -185h-149z" />
    <glyph glyph-name="Iacute" unicode="&#xcd;" horiz-adv-x="309" 
d="M65 0v750h179v-750h-179zM82 778l93 187h164l-107 -187h-150z" />
    <glyph glyph-name="Icircumflex" unicode="&#xce;" horiz-adv-x="309" 
d="M65 0v750h179v-750h-179zM-55 778l124 171h169l124 -171h-136l-72 65l-71 -65h-138z" />
    <glyph glyph-name="Idieresis" unicode="&#xcf;" horiz-adv-x="309" 
d="M65 0v750h179v-750h-179zM-22 778v143h148v-143h-148zM182 778v143h148v-143h-148z" />
    <glyph glyph-name="Eth" unicode="&#xd0;" horiz-adv-x="643" 
d="M58 0v332h-44v148h44v270h270q135 0 208.5 -61t73.5 -189v-250q0 -127 -74 -188.5t-208 -61.5h-270zM238 147h90q61 0 82 26.5t21 90.5v217q0 65 -21 90.5t-82 25.5h-90v-117h92v-148h-92v-185z" />
    <glyph glyph-name="Ntilde" unicode="&#xd1;" horiz-adv-x="671" 
d="M58 0v750h186l194 -410h2v410h173v-750h-177l-200 428h-2v-428h-176zM266 778h-119q0 78 25 114t89 36q32 0 74 -15t48 -15q23 0 23 30h119q0 -78 -25.5 -114t-90.5 -36q-31 0 -72.5 15t-47.5 15q-23 0 -23 -30z" />
    <glyph glyph-name="Ograve" unicode="&#xd2;" horiz-adv-x="643" 
d="M322 -9q-135 0 -212 64t-77 192v256q0 128 77 192t212 64t211.5 -64t76.5 -192v-256q0 -127 -77 -191.5t-211 -64.5zM322 141q60 0 84.5 29.5t24.5 93.5v217q0 64 -24.5 93.5t-84.5 29.5q-61 0 -85 -29t-24 -94v-217q0 -64 24 -93.5t85 -29.5zM264 778l-108 185h165
l92 -185h-149z" />
    <glyph glyph-name="Oacute" unicode="&#xd3;" horiz-adv-x="643" 
d="M322 -9q-135 0 -212 64t-77 192v256q0 128 77 192t212 64t211.5 -64t76.5 -192v-256q0 -127 -77 -191.5t-211 -64.5zM322 141q60 0 84.5 29.5t24.5 93.5v217q0 64 -24.5 93.5t-84.5 29.5q-61 0 -85 -29t-24 -94v-217q0 -64 24 -93.5t85 -29.5zM249 778l93 187h164
l-107 -187h-150z" />
    <glyph glyph-name="Ocircumflex" unicode="&#xd4;" horiz-adv-x="643" 
d="M322 -9q-135 0 -212 64t-77 192v256q0 128 77 192t212 64t211.5 -64t76.5 -192v-256q0 -127 -77 -191.5t-211 -64.5zM322 141q60 0 84.5 29.5t24.5 93.5v217q0 64 -24.5 93.5t-84.5 29.5q-61 0 -85 -29t-24 -94v-217q0 -64 24 -93.5t85 -29.5zM112 778l124 171h169
l124 -171h-136l-72 65l-71 -65h-138z" />
    <glyph glyph-name="Otilde" unicode="&#xd5;" horiz-adv-x="643" 
d="M322 -9q-135 0 -212 64t-77 192v256q0 128 77 192t212 64t211.5 -64t76.5 -192v-256q0 -127 -77 -191.5t-211 -64.5zM322 141q60 0 84.5 29.5t24.5 93.5v217q0 64 -24.5 93.5t-84.5 29.5q-61 0 -85 -29t-24 -94v-217q0 -64 24 -93.5t85 -29.5zM252 778h-119q0 78 25 114
t89 36q32 0 74 -15t48 -15q23 0 23 30h119q0 -78 -25.5 -114t-90.5 -36q-31 0 -72.5 15t-47.5 15q-23 0 -23 -30z" />
    <glyph glyph-name="Odieresis" unicode="&#xd6;" horiz-adv-x="643" 
d="M322 -9q-135 0 -212 64t-77 192v256q0 128 77 192t212 64t211.5 -64t76.5 -192v-256q0 -127 -77 -191.5t-211 -64.5zM322 141q60 0 84.5 29.5t24.5 93.5v217q0 64 -24.5 93.5t-84.5 29.5q-61 0 -85 -29t-24 -94v-217q0 -64 24 -93.5t85 -29.5zM145 778v143h148v-143h-148
zM349 778v143h148v-143h-148z" />
    <glyph glyph-name="multiply" unicode="&#xd7;" horiz-adv-x="559" 
d="M153 154l-96 96l127 127l-127 127l96 96l127 -127l127 127l96 -96l-127 -127l127 -127l-96 -96l-127 127z" />
    <glyph glyph-name="Oslash" unicode="&#xd8;" horiz-adv-x="643" 
d="M23 -94l71 166q-61 64 -61 175v256q0 128 77 190.5t212 62.5q24 0 64 -4l40 92h180l-67 -156q71 -66 71 -185v-256q0 -127 -76.5 -190t-211.5 -63q-29 0 -79 6l-40 -94h-180zM322 141q60 0 84.5 29.5t24.5 93.5v217q0 64 -24.5 93.5t-84.5 29.5q-61 0 -85 -29t-24 -94
v-217q0 -64 24 -93.5t85 -29.5z" />
    <glyph glyph-name="Ugrave" unicode="&#xd9;" horiz-adv-x="646" 
d="M323 -9q-133 0 -205 63.5t-72 192.5v503h179v-484q0 -66 19.5 -94t78.5 -28t78.5 28t19.5 94v484h179v-503q0 -129 -72 -192.5t-205 -63.5zM266 778l-108 185h165l92 -185h-149z" />
    <glyph glyph-name="Uacute" unicode="&#xda;" horiz-adv-x="646" 
d="M323 -9q-133 0 -205 63.5t-72 192.5v503h179v-484q0 -66 19.5 -94t78.5 -28t78.5 28t19.5 94v484h179v-503q0 -129 -72 -192.5t-205 -63.5zM251 778l93 187h164l-107 -187h-150z" />
    <glyph glyph-name="Ucircumflex" unicode="&#xdb;" horiz-adv-x="646" 
d="M323 -9q-133 0 -205 63.5t-72 192.5v503h179v-484q0 -66 19.5 -94t78.5 -28t78.5 28t19.5 94v484h179v-503q0 -129 -72 -192.5t-205 -63.5zM114 778l124 171h169l124 -171h-136l-72 65l-71 -65h-138z" />
    <glyph glyph-name="Udieresis" unicode="&#xdc;" horiz-adv-x="646" 
d="M323 -9q-133 0 -205 63.5t-72 192.5v503h179v-484q0 -66 19.5 -94t78.5 -28t78.5 28t19.5 94v484h179v-503q0 -129 -72 -192.5t-205 -63.5zM147 778v143h148v-143h-148zM351 778v143h148v-143h-148z" />
    <glyph glyph-name="Yacute" unicode="&#xdd;" horiz-adv-x="633" 
d="M226 0v297l-220 453h186l128 -282h2l131 282h174l-220 -453v-297h-181zM244 778l93 187h164l-107 -187h-150z" />
    <glyph glyph-name="Thorn" unicode="&#xde;" horiz-adv-x="625" 
d="M58 0v750h180v-103h97q140 0 202.5 -51.5t62.5 -159.5v-69q0 -108 -62.5 -160t-202.5 -52h-97v-155h-180zM238 311h103q50 0 68 16.5t18 56.5v34q0 40 -18 56.5t-68 16.5h-103v-180z" />
    <glyph glyph-name="germandbls" unicode="&#xdf;" horiz-adv-x="592" 
d="M44 0v572q0 198 253 198q252 0 252 -203v-14q0 -116 -68 -140q41 -9 61 -41.5t20 -98.5v-73q0 -103 -59.5 -151.5t-188.5 -48.5h-56v147h56q73 0 73 56v74q0 49 -71 49h-58v145h39q42 0 60 13.5t18 44.5v35q0 25 -19.5 41t-58.5 16q-78 0 -78 -56v-565h-175z" />
    <glyph glyph-name="agrave" unicode="&#xe0;" horiz-adv-x="536" 
d="M184 -7q-164 0 -164 168q0 87 55.5 129t195.5 42h55v33q0 29 -10 40.5t-43 11.5t-44.5 -11t-17.5 -44l-170 26q17 88 68.5 125t170.5 37q122 0 170 -44t48 -146v-360h-172v58q-20 -32 -52 -48.5t-90 -16.5zM265 120q63 0 63 59v46h-63q-43 0 -59.5 -12t-16.5 -41
q0 -30 16.5 -41t59.5 -11zM211 580l-108 185h165l92 -185h-149z" />
    <glyph glyph-name="aacute" unicode="&#xe1;" horiz-adv-x="536" 
d="M184 -7q-164 0 -164 168q0 87 55.5 129t195.5 42h55v33q0 29 -10 40.5t-43 11.5t-44.5 -11t-17.5 -44l-170 26q17 88 68.5 125t170.5 37q122 0 170 -44t48 -146v-360h-172v58q-20 -32 -52 -48.5t-90 -16.5zM265 120q63 0 63 59v46h-63q-43 0 -59.5 -12t-16.5 -41
q0 -30 16.5 -41t59.5 -11zM196 580l93 187h164l-107 -187h-150z" />
    <glyph glyph-name="acircumflex" unicode="&#xe2;" horiz-adv-x="536" 
d="M184 -7q-164 0 -164 168q0 87 55.5 129t195.5 42h55v33q0 29 -10 40.5t-43 11.5t-44.5 -11t-17.5 -44l-170 26q17 88 68.5 125t170.5 37q122 0 170 -44t48 -146v-360h-172v58q-20 -32 -52 -48.5t-90 -16.5zM265 120q63 0 63 59v46h-63q-43 0 -59.5 -12t-16.5 -41
q0 -30 16.5 -41t59.5 -11zM59 580l124 171h169l124 -171h-136l-72 65l-71 -65h-138z" />
    <glyph glyph-name="atilde" unicode="&#xe3;" horiz-adv-x="536" 
d="M184 -7q-164 0 -164 168q0 87 55.5 129t195.5 42h55v33q0 29 -10 40.5t-43 11.5t-44.5 -11t-17.5 -44l-170 26q17 88 68.5 125t170.5 37q122 0 170 -44t48 -146v-360h-172v58q-20 -32 -52 -48.5t-90 -16.5zM265 120q63 0 63 59v46h-63q-43 0 -59.5 -12t-16.5 -41
q0 -30 16.5 -41t59.5 -11zM199 580h-119q0 78 25 114t89 36q32 0 74 -15t48 -15q23 0 23 30h119q0 -78 -25.5 -114t-90.5 -36q-31 0 -72.5 15t-47.5 15q-23 0 -23 -30z" />
    <glyph glyph-name="adieresis" unicode="&#xe4;" horiz-adv-x="536" 
d="M184 -7q-164 0 -164 168q0 87 55.5 129t195.5 42h55v33q0 29 -10 40.5t-43 11.5t-44.5 -11t-17.5 -44l-170 26q17 88 68.5 125t170.5 37q122 0 170 -44t48 -146v-360h-172v58q-20 -32 -52 -48.5t-90 -16.5zM265 120q63 0 63 59v46h-63q-43 0 -59.5 -12t-16.5 -41
q0 -30 16.5 -41t59.5 -11zM92 580v143h148v-143h-148zM296 580v143h148v-143h-148z" />
    <glyph glyph-name="aring" unicode="&#xe5;" horiz-adv-x="536" 
d="M184 -7q-164 0 -164 168q0 87 55.5 129t195.5 42h55v33q0 29 -10 40.5t-43 11.5t-44.5 -11t-17.5 -44l-170 26q17 88 68.5 125t170.5 37q122 0 170 -44t48 -146v-360h-172v58q-20 -32 -52 -48.5t-90 -16.5zM265 120q63 0 63 59v46h-63q-43 0 -59.5 -12t-16.5 -41
q0 -30 16.5 -41t59.5 -11zM268 577q-127 0 -127 123q0 126 127 126t127 -126q0 -123 -127 -123zM268 649q25 0 35 12t10 39q0 28 -10 41t-35 13t-35 -13t-10 -41q0 -27 10 -39t35 -12z" />
    <glyph glyph-name="ae" unicode="&#xe6;" horiz-adv-x="824" 
d="M184 -7q-164 0 -164 168q0 87 55.5 129t195.5 42h55v33q0 29 -10 40.5t-43 11.5t-44.5 -11t-17.5 -44l-170 26q17 88 68.5 125t170.5 37q94 0 140 -31q57 31 142 31q130 0 183 -59.5t53 -174.5v-97h-306v-40q0 -31 13.5 -47t56.5 -16q41 0 53.5 13t17.5 50l165 -25
q-19 -163 -236 -163q-137 0 -194 72q-19 -37 -59.5 -53.5t-124.5 -16.5zM265 120q63 0 63 59v46h-63q-43 0 -59.5 -12t-16.5 -41q0 -30 16.5 -41t59.5 -11zM492 329h137v30q0 31 -14.5 46t-52.5 15q-70 0 -70 -61v-30z" />
    <glyph glyph-name="ccedilla" unicode="&#xe7;" horiz-adv-x="520" 
d="M174 -250v87h40q35 0 51.5 7.5t16.5 30.5q0 35 -67 35h-13v86q-177 25 -177 202v145q0 207 239 207q68 0 112.5 -11.5t69.5 -37.5t36.5 -57.5t17.5 -80.5l-171 -25q-4 41 -15.5 56.5t-49.5 15.5q-37 0 -50.5 -17t-13.5 -47v-156q0 -30 13.5 -47t50.5 -17q39 0 50.5 13
t18.5 56l161 -24q-14 -87 -57.5 -131t-151.5 -48v-30q43 -4 66 -24t23 -65q0 -62 -36.5 -92.5t-125.5 -30.5h-38z" />
    <glyph glyph-name="egrave" unicode="&#xe8;" horiz-adv-x="526" 
d="M264 -9q-127 0 -183 57.5t-56 149.5v145q0 94 55.5 150.5t183.5 56.5q130 0 183 -59.5t53 -174.5v-97h-306v-40q0 -31 13.5 -47t56.5 -16q41 0 53.5 13t17.5 50l165 -25q-19 -163 -236 -163zM194 329h137v30q0 31 -14.5 46t-52.5 15q-70 0 -70 -61v-30zM206 580l-108 185
h165l92 -185h-149z" />
    <glyph glyph-name="eacute" unicode="&#xe9;" horiz-adv-x="526" 
d="M264 -9q-127 0 -183 57.5t-56 149.5v145q0 94 55.5 150.5t183.5 56.5q130 0 183 -59.5t53 -174.5v-97h-306v-40q0 -31 13.5 -47t56.5 -16q41 0 53.5 13t17.5 50l165 -25q-19 -163 -236 -163zM194 329h137v30q0 31 -14.5 46t-52.5 15q-70 0 -70 -61v-30zM191 580l93 187
h164l-107 -187h-150z" />
    <glyph glyph-name="ecircumflex" unicode="&#xea;" horiz-adv-x="526" 
d="M264 -9q-127 0 -183 57.5t-56 149.5v145q0 94 55.5 150.5t183.5 56.5q130 0 183 -59.5t53 -174.5v-97h-306v-40q0 -31 13.5 -47t56.5 -16q41 0 53.5 13t17.5 50l165 -25q-19 -163 -236 -163zM194 329h137v30q0 31 -14.5 46t-52.5 15q-70 0 -70 -61v-30zM54 580l124 171
h169l124 -171h-136l-72 65l-71 -65h-138z" />
    <glyph glyph-name="edieresis" unicode="&#xeb;" horiz-adv-x="526" 
d="M264 -9q-127 0 -183 57.5t-56 149.5v145q0 94 55.5 150.5t183.5 56.5q130 0 183 -59.5t53 -174.5v-97h-306v-40q0 -31 13.5 -47t56.5 -16q41 0 53.5 13t17.5 50l165 -25q-19 -163 -236 -163zM194 329h137v30q0 31 -14.5 46t-52.5 15q-70 0 -70 -61v-30zM87 580v143h148
v-143h-148zM291 580v143h148v-143h-148z" />
    <glyph glyph-name="igrave" unicode="&#xec;" horiz-adv-x="275" 
d="M50 0v541h175v-541h-175zM80 580l-108 185h165l92 -185h-149z" />
    <glyph glyph-name="iacute" unicode="&#xed;" horiz-adv-x="275" 
d="M50 0v541h175v-541h-175zM65 580l93 187h164l-107 -187h-150z" />
    <glyph glyph-name="icircumflex" unicode="&#xee;" horiz-adv-x="275" 
d="M50 0v541h175v-541h-175zM-72 580l124 171h169l124 -171h-136l-72 65l-71 -65h-138z" />
    <glyph glyph-name="idieresis" unicode="&#xef;" horiz-adv-x="275" 
d="M50 0v541h175v-541h-175zM-39 580v143h148v-143h-148zM165 580v143h148v-143h-148z" />
    <glyph glyph-name="eth" unicode="&#xf0;" horiz-adv-x="543" 
d="M241 493v104l87 10q-16 24 -81 24h-56v149h70q209 0 247 -151l45 6v-104l-36 -5v-328q0 -94 -60.5 -150.5t-186.5 -56.5q-127 0 -186 56.5t-59 150.5v71q0 91 56 144.5t156 53.5q32 0 62.5 -10t40.5 -30v78zM270 126q34 0 53.5 17t19.5 47v85q0 31 -19 47.5t-54 16.5
q-70 0 -70 -64v-85q0 -64 70 -64z" />
    <glyph glyph-name="ntilde" unicode="&#xf1;" horiz-adv-x="569" 
d="M44 0v541h175v-61q49 70 142 70q170 0 170 -158v-392h-175v360q0 46 -70 46q-28 0 -47.5 -14t-19.5 -40v-352h-175zM215 580h-119q0 78 25 114t89 36q32 0 74 -15t48 -15q23 0 23 30h119q0 -78 -25.5 -114t-90.5 -36q-31 0 -72.5 15t-47.5 15q-23 0 -23 -30z" />
    <glyph glyph-name="ograve" unicode="&#xf2;" horiz-adv-x="543" 
d="M270 126q34 0 53.5 17t19.5 47v156q0 31 -19 47.5t-54 16.5q-70 0 -70 -64v-156q0 -64 70 -64zM270 -9q-127 0 -186 56.5t-59 150.5v145q0 95 59.5 151t185.5 56q127 0 187.5 -56t60.5 -151v-145q0 -94 -60.5 -150.5t-187.5 -56.5zM214 580l-108 185h165l92 -185h-149z
" />
    <glyph glyph-name="oacute" unicode="&#xf3;" horiz-adv-x="543" 
d="M270 126q34 0 53.5 17t19.5 47v156q0 31 -19 47.5t-54 16.5q-70 0 -70 -64v-156q0 -64 70 -64zM270 -9q-127 0 -186 56.5t-59 150.5v145q0 95 59.5 151t185.5 56q127 0 187.5 -56t60.5 -151v-145q0 -94 -60.5 -150.5t-187.5 -56.5zM199 580l93 187h164l-107 -187h-150z
" />
    <glyph glyph-name="ocircumflex" unicode="&#xf4;" horiz-adv-x="543" 
d="M270 126q34 0 53.5 17t19.5 47v156q0 31 -19 47.5t-54 16.5q-70 0 -70 -64v-156q0 -64 70 -64zM270 -9q-127 0 -186 56.5t-59 150.5v145q0 95 59.5 151t185.5 56q127 0 187.5 -56t60.5 -151v-145q0 -94 -60.5 -150.5t-187.5 -56.5zM62 580l124 171h169l124 -171h-136
l-72 65l-71 -65h-138z" />
    <glyph glyph-name="otilde" unicode="&#xf5;" horiz-adv-x="543" 
d="M270 126q34 0 53.5 17t19.5 47v156q0 31 -19 47.5t-54 16.5q-70 0 -70 -64v-156q0 -64 70 -64zM270 -9q-127 0 -186 56.5t-59 150.5v145q0 95 59.5 151t185.5 56q127 0 187.5 -56t60.5 -151v-145q0 -94 -60.5 -150.5t-187.5 -56.5zM202 580h-119q0 78 25 114t89 36
q32 0 74 -15t48 -15q23 0 23 30h119q0 -78 -25.5 -114t-90.5 -36q-31 0 -72.5 15t-47.5 15q-23 0 -23 -30z" />
    <glyph glyph-name="odieresis" unicode="&#xf6;" horiz-adv-x="543" 
d="M270 126q34 0 53.5 17t19.5 47v156q0 31 -19 47.5t-54 16.5q-70 0 -70 -64v-156q0 -64 70 -64zM270 -9q-127 0 -186 56.5t-59 150.5v145q0 95 59.5 151t185.5 56q127 0 187.5 -56t60.5 -151v-145q0 -94 -60.5 -150.5t-187.5 -56.5zM95 580v143h148v-143h-148zM299 580
v143h148v-143h-148z" />
    <glyph glyph-name="divide" unicode="&#xf7;" horiz-adv-x="559" 
d="M202 112v138h154v-138h-154zM63 309v136h434v-136h-434zM202 500v138h154v-138h-154z" />
    <glyph glyph-name="oslash" unicode="&#xf8;" horiz-adv-x="543" 
d="M28 -74l58 121q-61 51 -61 151v145q0 95 59 149.5t186 54.5q28 0 53 -3l33 70h168l-61 -127q55 -52 55 -144v-145q0 -93 -60.5 -148.5t-187.5 -55.5q-15 0 -41 2l-33 -70h-168zM270 126q34 0 53.5 17t19.5 47v156q0 31 -19 47.5t-54 16.5q-70 0 -70 -64v-156
q0 -64 70 -64z" />
    <glyph glyph-name="ugrave" unicode="&#xf9;" horiz-adv-x="569" 
d="M208 -9q-170 0 -170 158v392h175v-360q0 -46 70 -46q28 0 47.5 14t19.5 40v352h175v-541h-175v61q-49 -70 -142 -70zM227 580l-108 185h165l92 -185h-149z" />
    <glyph glyph-name="uacute" unicode="&#xfa;" horiz-adv-x="569" 
d="M208 -9q-170 0 -170 158v392h175v-360q0 -46 70 -46q28 0 47.5 14t19.5 40v352h175v-541h-175v61q-49 -70 -142 -70zM212 580l93 187h164l-107 -187h-150z" />
    <glyph glyph-name="ucircumflex" unicode="&#xfb;" horiz-adv-x="569" 
d="M208 -9q-170 0 -170 158v392h175v-360q0 -46 70 -46q28 0 47.5 14t19.5 40v352h175v-541h-175v61q-49 -70 -142 -70zM75 580l124 171h169l124 -171h-136l-72 65l-71 -65h-138z" />
    <glyph glyph-name="udieresis" unicode="&#xfc;" horiz-adv-x="569" 
d="M208 -9q-170 0 -170 158v392h175v-360q0 -46 70 -46q28 0 47.5 14t19.5 40v352h175v-541h-175v61q-49 -70 -142 -70zM108 580v143h148v-143h-148zM312 580v143h148v-143h-148z" />
    <glyph glyph-name="yacute" unicode="&#xfd;" horiz-adv-x="536" 
d="M111 -198l70 202l-181 537h175l92 -326h2l94 326h173l-251 -739h-174zM196 580l93 187h164l-107 -187h-150z" />
    <glyph glyph-name="thorn" unicode="&#xfe;" horiz-adv-x="561" 
d="M44 -198v978h175v-294q43 64 130 64q103 0 145 -50.5t42 -146.5v-165q0 -94 -44.5 -144t-150.5 -50q-83 0 -122 55v-247h-175zM290 126q34 0 52.5 17t18.5 47v156q0 64 -71 64q-33 0 -52 -15.5t-19 -43.5v-161q0 -30 18.5 -47t52.5 -17z" />
    <glyph glyph-name="ydieresis" unicode="&#xff;" horiz-adv-x="536" 
d="M111 -198l70 202l-181 537h175l92 -326h2l94 326h173l-251 -739h-174zM92 580v143h148v-143h-148zM296 580v143h148v-143h-148z" />
    <glyph glyph-name="Amacron" unicode="&#x100;" horiz-adv-x="646" 
d="M14 0l209 750h200l209 -750h-180l-37 145h-189l-36 -145h-176zM254 273h132l-65 257h-2zM168 778v116h310v-116h-310z" />
    <glyph glyph-name="amacron" unicode="&#x101;" horiz-adv-x="536" 
d="M184 -7q-164 0 -164 168q0 87 55.5 129t195.5 42h55v33q0 29 -10 40.5t-43 11.5t-44.5 -11t-17.5 -44l-170 26q17 88 68.5 125t170.5 37q122 0 170 -44t48 -146v-360h-172v58q-20 -32 -52 -48.5t-90 -16.5zM265 120q63 0 63 59v46h-63q-43 0 -59.5 -12t-16.5 -41
q0 -30 16.5 -41t59.5 -11zM113 580v116h310v-116h-310z" />
    <glyph glyph-name="Abreve" unicode="&#x102;" horiz-adv-x="646" 
d="M14 0l209 750h200l209 -750h-180l-37 145h-189l-36 -145h-176zM254 273h132l-65 257h-2zM323 776q-105 0 -148 41t-43 121h137q0 -67 54 -67t54 67h137q0 -80 -42.5 -121t-148.5 -41z" />
    <glyph glyph-name="abreve" unicode="&#x103;" horiz-adv-x="536" 
d="M184 -7q-164 0 -164 168q0 87 55.5 129t195.5 42h55v33q0 29 -10 40.5t-43 11.5t-44.5 -11t-17.5 -44l-170 26q17 88 68.5 125t170.5 37q122 0 170 -44t48 -146v-360h-172v58q-20 -32 -52 -48.5t-90 -16.5zM265 120q63 0 63 59v46h-63q-43 0 -59.5 -12t-16.5 -41
q0 -30 16.5 -41t59.5 -11zM268 578q-105 0 -148 41t-43 121h137q0 -67 54 -67t54 67h137q0 -80 -42.5 -121t-148.5 -41z" />
    <glyph glyph-name="Aogonek" unicode="&#x104;" horiz-adv-x="646" 
d="M14 0l209 750h200l209 -750h-120q21 31 71 77h-99q-23 -15 -43 -35l-26 103h-189l-36 -145h-176zM588 -198h-72q-133 0 -133 105q0 78 58 135l11 -42h60q-21 -32 -21 -64q0 -23 9 -31.5t35 -8.5h53v-94zM254 273h132l-65 257h-2z" />
    <glyph glyph-name="aogonek" unicode="&#x105;" horiz-adv-x="536" 
d="M498 -198h-72q-133 0 -133 105q0 60 33 106v45q-20 -32 -52 -48.5t-90 -16.5q-164 0 -164 168q0 87 55.5 129t195.5 42h55v33q0 29 -10 40.5t-43 11.5t-44.5 -11t-17.5 -44l-170 26q17 88 68.5 125t170.5 37q122 0 170 -44t48 -146v-360h-76q-21 -32 -21 -64
q0 -23 9 -31.5t35 -8.5h53v-94zM265 120q63 0 63 59v46h-63q-43 0 -59.5 -12t-16.5 -41q0 -30 16.5 -41t59.5 -11z" />
    <glyph glyph-name="Cacute" unicode="&#x106;" horiz-adv-x="613" 
d="M316 -9q-129 0 -206 64.5t-77 191.5v256q0 127 77.5 191.5t205.5 64.5q140 0 202 -52t75 -189l-175 -22q-5 60 -25.5 84t-76.5 24q-103 0 -103 -123v-217q0 -60 21.5 -91.5t81.5 -31.5q58 0 79 24t26 90l172 -22q-15 -132 -78 -187t-199 -55zM234 778l93 187h164
l-107 -187h-150z" />
    <glyph glyph-name="cacute" unicode="&#x107;" horiz-adv-x="520" 
d="M264 -9q-239 0 -239 207v145q0 207 239 207q68 0 112.5 -11.5t69.5 -37.5t36.5 -57.5t17.5 -80.5l-171 -25q-4 41 -15.5 56.5t-49.5 15.5q-37 0 -50.5 -17t-13.5 -47v-156q0 -30 13.5 -47t50.5 -17q39 0 50.5 13t18.5 56l161 -24q-7 -44 -19 -73.5t-36.5 -55.5t-68 -38.5
t-106.5 -12.5zM188 580l93 187h164l-107 -187h-150z" />
    <glyph glyph-name="Ccircumflex" unicode="&#x108;" horiz-adv-x="613" 
d="M316 -9q-129 0 -206 64.5t-77 191.5v256q0 127 77.5 191.5t205.5 64.5q140 0 202 -52t75 -189l-175 -22q-5 60 -25.5 84t-76.5 24q-103 0 -103 -123v-217q0 -60 21.5 -91.5t81.5 -31.5q58 0 79 24t26 90l172 -22q-15 -132 -78 -187t-199 -55zM102 778l124 171h169
l124 -171h-136l-72 65l-71 -65h-138z" />
    <glyph glyph-name="ccircumflex" unicode="&#x109;" horiz-adv-x="520" 
d="M264 -9q-239 0 -239 207v145q0 207 239 207q68 0 112.5 -11.5t69.5 -37.5t36.5 -57.5t17.5 -80.5l-171 -25q-4 41 -15.5 56.5t-49.5 15.5q-37 0 -50.5 -17t-13.5 -47v-156q0 -30 13.5 -47t50.5 -17q39 0 50.5 13t18.5 56l161 -24q-7 -44 -19 -73.5t-36.5 -55.5t-68 -38.5
t-106.5 -12.5zM51 580l124 171h169l124 -171h-136l-72 65l-71 -65h-138z" />
    <glyph glyph-name="Cdotaccent" unicode="&#x10a;" horiz-adv-x="613" 
d="M316 -9q-129 0 -206 64.5t-77 191.5v256q0 127 77.5 191.5t205.5 64.5q140 0 202 -52t75 -189l-175 -22q-5 60 -25.5 84t-76.5 24q-103 0 -103 -123v-217q0 -60 21.5 -91.5t81.5 -31.5q58 0 79 24t26 90l172 -22q-15 -132 -78 -187t-199 -55zM228 778v162h167v-162h-167z
" />
    <glyph glyph-name="cdotaccent" unicode="&#x10b;" horiz-adv-x="520" 
d="M264 -9q-239 0 -239 207v145q0 207 239 207q68 0 112.5 -11.5t69.5 -37.5t36.5 -57.5t17.5 -80.5l-171 -25q-4 41 -15.5 56.5t-49.5 15.5q-37 0 -50.5 -17t-13.5 -47v-156q0 -30 13.5 -47t50.5 -17q39 0 50.5 13t18.5 56l161 -24q-7 -44 -19 -73.5t-36.5 -55.5t-68 -38.5
t-106.5 -12.5zM177 580v162h167v-162h-167z" />
    <glyph glyph-name="Ccaron" unicode="&#x10c;" horiz-adv-x="613" 
d="M316 -9q-129 0 -206 64.5t-77 191.5v256q0 127 77.5 191.5t205.5 64.5q140 0 202 -52t75 -189l-175 -22q-5 60 -25.5 84t-76.5 24q-103 0 -103 -123v-217q0 -60 21.5 -91.5t81.5 -31.5q58 0 79 24t26 90l172 -22q-15 -132 -78 -187t-199 -55zM226 778l-124 171h138
l71 -65l72 65h136l-124 -171h-169z" />
    <glyph glyph-name="ccaron" unicode="&#x10d;" horiz-adv-x="520" 
d="M264 -9q-239 0 -239 207v145q0 207 239 207q68 0 112.5 -11.5t69.5 -37.5t36.5 -57.5t17.5 -80.5l-171 -25q-4 41 -15.5 56.5t-49.5 15.5q-37 0 -50.5 -17t-13.5 -47v-156q0 -30 13.5 -47t50.5 -17q39 0 50.5 13t18.5 56l161 -24q-7 -44 -19 -73.5t-36.5 -55.5t-68 -38.5
t-106.5 -12.5zM175 580l-124 171h138l71 -65l72 65h136l-124 -171h-169z" />
    <glyph glyph-name="Dcaron" unicode="&#x10e;" horiz-adv-x="643" 
d="M58 0v750h270q135 0 208.5 -61t73.5 -189v-250q0 -127 -74 -188.5t-208 -61.5h-270zM238 147h90q61 0 82 26.5t21 90.5v217q0 65 -21 90.5t-82 25.5h-90v-450zM236 778l-124 171h138l71 -65l72 65h136l-124 -171h-169z" />
    <glyph glyph-name="dcaron" unicode="&#x10f;" horiz-adv-x="562" 
d="M557 571l20 259h154l-47 -259h-127zM216 -9q-103 0 -147 51t-44 146v165q0 97 43 147t153 50q75 0 122 -62v292h175v-780h-175v52q-40 -61 -127 -61zM271 126q67 0 72 58v167q0 27 -19.5 43t-52.5 16q-34 0 -52.5 -17t-18.5 -47v-156q0 -64 71 -64z" />
    <glyph glyph-name="Dcroat" unicode="&#x110;" horiz-adv-x="643" 
d="M58 0v332h-44v148h44v270h270q135 0 208.5 -61t73.5 -189v-250q0 -127 -74 -188.5t-208 -61.5h-270zM238 147h90q61 0 82 26.5t21 90.5v217q0 65 -21 90.5t-82 25.5h-90v-117h92v-148h-92v-185z" />
    <glyph glyph-name="dcroat" unicode="&#x111;" horiz-adv-x="562" 
d="M243 575v138h100v67h175v-67h49v-138h-49v-575h-175v52q-40 -61 -127 -61q-103 0 -147 51t-44 146v165q0 97 43 147t153 50q75 0 122 -62v87h-100zM271 126q67 0 72 58v167q0 27 -19.5 43t-52.5 16q-34 0 -52.5 -17t-18.5 -47v-156q0 -64 71 -64z" />
    <glyph glyph-name="Emacron" unicode="&#x112;" horiz-adv-x="574" 
d="M58 0v750h480l-29 -156h-271v-132h195v-158h-195v-154h271l29 -150h-480zM132 778v116h310v-116h-310z" />
    <glyph glyph-name="emacron" unicode="&#x113;" horiz-adv-x="526" 
d="M264 -9q-127 0 -183 57.5t-56 149.5v145q0 94 55.5 150.5t183.5 56.5q130 0 183 -59.5t53 -174.5v-97h-306v-40q0 -31 13.5 -47t56.5 -16q41 0 53.5 13t17.5 50l165 -25q-19 -163 -236 -163zM194 329h137v30q0 31 -14.5 46t-52.5 15q-70 0 -70 -61v-30zM108 580v116h310
v-116h-310z" />
    <glyph glyph-name="Ebreve" unicode="&#x114;" horiz-adv-x="574" 
d="M58 0v750h480l-29 -156h-271v-132h195v-158h-195v-154h271l29 -150h-480zM287 776q-105 0 -148 41t-43 121h137q0 -67 54 -67t54 67h137q0 -80 -42.5 -121t-148.5 -41z" />
    <glyph glyph-name="ebreve" unicode="&#x115;" horiz-adv-x="526" 
d="M264 -9q-127 0 -183 57.5t-56 149.5v145q0 94 55.5 150.5t183.5 56.5q130 0 183 -59.5t53 -174.5v-97h-306v-40q0 -31 13.5 -47t56.5 -16q41 0 53.5 13t17.5 50l165 -25q-19 -163 -236 -163zM194 329h137v30q0 31 -14.5 46t-52.5 15q-70 0 -70 -61v-30zM263 578
q-105 0 -148 41t-43 121h137q0 -67 54 -67t54 67h137q0 -80 -42.5 -121t-148.5 -41z" />
    <glyph glyph-name="Edotaccent" unicode="&#x116;" horiz-adv-x="574" 
d="M58 0v750h480l-29 -156h-271v-132h195v-158h-195v-154h271l29 -150h-480zM204 778v162h167v-162h-167z" />
    <glyph glyph-name="edotaccent" unicode="&#x117;" horiz-adv-x="526" 
d="M264 -9q-127 0 -183 57.5t-56 149.5v145q0 94 55.5 150.5t183.5 56.5q130 0 183 -59.5t53 -174.5v-97h-306v-40q0 -31 13.5 -47t56.5 -16q41 0 53.5 13t17.5 50l165 -25q-19 -163 -236 -163zM194 329h137v30q0 31 -14.5 46t-52.5 15q-70 0 -70 -61v-30zM180 580v162h167
v-162h-167z" />
    <glyph glyph-name="Eogonek" unicode="&#x118;" horiz-adv-x="574" 
d="M58 0v750h480l-29 -156h-271v-132h195v-158h-195v-154h271l29 -150h-82q-19 -29 -19 -63q0 -23 9 -31.5t35 -8.5h53v-94h-72q-133 0 -133 105q0 52 23 92h-294z" />
    <glyph glyph-name="eogonek" unicode="&#x119;" horiz-adv-x="526" 
d="M335 179l165 -25q-17 -145 -188 -160q21 34 76 84h-99q-58 -40 -81 -83q-96 12 -139.5 67t-43.5 136v145q0 94 55.5 150.5t183.5 56.5q130 0 183 -59.5t53 -174.5v-97h-306v-40q0 -31 13.5 -47t56.5 -16q41 0 53.5 13t17.5 50zM393 -197h-72q-133 0 -133 105q0 48 20 87
q23 -4 56 -4q26 0 48 3q-16 -28 -16 -57q0 -23 9 -31.5t35 -8.5h53v-94zM194 329h137v30q0 31 -14.5 46t-52.5 15q-70 0 -70 -61v-30z" />
    <glyph glyph-name="Ecaron" unicode="&#x11a;" horiz-adv-x="574" 
d="M58 0v750h480l-29 -156h-271v-132h195v-158h-195v-154h271l29 -150h-480zM202 778l-124 171h138l71 -65l72 65h136l-124 -171h-169z" />
    <glyph glyph-name="ecaron" unicode="&#x11b;" horiz-adv-x="526" 
d="M264 -9q-127 0 -183 57.5t-56 149.5v145q0 94 55.5 150.5t183.5 56.5q130 0 183 -59.5t53 -174.5v-97h-306v-40q0 -31 13.5 -47t56.5 -16q41 0 53.5 13t17.5 50l165 -25q-19 -163 -236 -163zM194 329h137v30q0 31 -14.5 46t-52.5 15q-70 0 -70 -61v-30zM178 580l-124 171
h138l71 -65l72 65h136l-124 -171h-169z" />
    <glyph glyph-name="Gcircumflex" unicode="&#x11c;" horiz-adv-x="630" 
d="M316 -9q-129 0 -206 64.5t-77 191.5v256q0 127 77 190t206 63q137 0 200.5 -49.5t75.5 -174.5l-175 -24q-4 54 -24.5 76t-76.5 22q-103 0 -103 -122v-220q0 -126 103 -126q73 0 95.5 28t22.5 96v14h-120v140h283v-157q0 -268 -281 -268zM106 778l124 171h169l124 -171
h-136l-72 65l-71 -65h-138z" />
    <glyph glyph-name="gcircumflex" unicode="&#x11d;" horiz-adv-x="534" 
d="M263 178h-14q-25 0 -32.5 -5t-7.5 -18t7 -17.5t33 -4.5l50 -1q89 -2 138.5 -21t66 -49.5t16.5 -81.5v-12q0 -34 -10 -61t-36 -53t-79 -40t-131 -14q-64 0 -111 7.5t-74.5 19t-43.5 30.5t-21 38t-5 45v12q0 68 77 105q-18 25 -18 66q0 55 41 83q-84 41 -84 136v39
q0 166 234 166q46 0 82 -6h179v-135h-45q11 -29 11 -46v-20q0 -162 -223 -162zM53 580l124 171h169l124 -171h-136l-72 65l-71 -65h-138zM259 281q73 0 73 66v18q0 59 -73 59q-71 0 -71 -59v-22q0 -32 16 -47t55 -15zM264 1l-81 2q-14 -18 -14 -40v-5q0 -23 19 -34.5
t76 -11.5q58 0 77 10.5t19 32.5v5q0 22 -17.5 31t-78.5 10z" />
    <glyph glyph-name="Gbreve" unicode="&#x11e;" horiz-adv-x="630" 
d="M316 -9q-129 0 -206 64.5t-77 191.5v256q0 127 77 190t206 63q137 0 200.5 -49.5t75.5 -174.5l-175 -24q-4 54 -24.5 76t-76.5 22q-103 0 -103 -122v-220q0 -126 103 -126q73 0 95.5 28t22.5 96v14h-120v140h283v-157q0 -268 -281 -268zM315 776q-105 0 -148 41t-43 121
h137q0 -67 54 -67t54 67h137q0 -80 -42.5 -121t-148.5 -41z" />
    <glyph glyph-name="gbreve" unicode="&#x11f;" horiz-adv-x="534" 
d="M263 178h-14q-25 0 -32.5 -5t-7.5 -18t7 -17.5t33 -4.5l50 -1q89 -2 138.5 -21t66 -49.5t16.5 -81.5v-12q0 -34 -10 -61t-36 -53t-79 -40t-131 -14q-64 0 -111 7.5t-74.5 19t-43.5 30.5t-21 38t-5 45v12q0 68 77 105q-18 25 -18 66q0 55 41 83q-84 41 -84 136v39
q0 166 234 166q46 0 82 -6h179v-135h-45q11 -29 11 -46v-20q0 -162 -223 -162zM259 281q73 0 73 66v18q0 59 -73 59q-71 0 -71 -59v-22q0 -32 16 -47t55 -15zM264 1l-81 2q-14 -18 -14 -40v-5q0 -23 19 -34.5t76 -11.5q58 0 77 10.5t19 32.5v5q0 22 -17.5 31t-78.5 10z
M263 578q-105 0 -148 41t-43 121h137q0 -67 54 -67t54 67h137q0 -80 -42.5 -121t-148.5 -41z" />
    <glyph glyph-name="Gdotaccent" unicode="&#x120;" horiz-adv-x="630" 
d="M316 -9q-129 0 -206 64.5t-77 191.5v256q0 127 77 190t206 63q137 0 200.5 -49.5t75.5 -174.5l-175 -24q-4 54 -24.5 76t-76.5 22q-103 0 -103 -122v-220q0 -126 103 -126q73 0 95.5 28t22.5 96v14h-120v140h283v-157q0 -268 -281 -268zM232 778v162h167v-162h-167z" />
    <glyph glyph-name="gdotaccent" unicode="&#x121;" horiz-adv-x="534" 
d="M263 178h-14q-25 0 -32.5 -5t-7.5 -18t7 -17.5t33 -4.5l50 -1q89 -2 138.5 -21t66 -49.5t16.5 -81.5v-12q0 -34 -10 -61t-36 -53t-79 -40t-131 -14q-64 0 -111 7.5t-74.5 19t-43.5 30.5t-21 38t-5 45v12q0 68 77 105q-18 25 -18 66q0 55 41 83q-84 41 -84 136v39
q0 166 234 166q46 0 82 -6h179v-135h-45q11 -29 11 -46v-20q0 -162 -223 -162zM259 281q73 0 73 66v18q0 59 -73 59q-71 0 -71 -59v-22q0 -32 16 -47t55 -15zM264 1l-81 2q-14 -18 -14 -40v-5q0 -23 19 -34.5t76 -11.5q58 0 77 10.5t19 32.5v5q0 22 -17.5 31t-78.5 10z
M179 580v162h167v-162h-167z" />
    <glyph glyph-name="Gcommaaccent" unicode="&#x122;" horiz-adv-x="630" 
d="M316 -9q-129 0 -206 64.5t-77 191.5v256q0 127 77 190t206 63q137 0 200.5 -49.5t75.5 -174.5l-175 -24q-4 54 -24.5 76t-76.5 22q-103 0 -103 -122v-220q0 -126 103 -126q73 0 95.5 28t22.5 96v14h-120v140h283v-157q0 -268 -281 -268zM259 -285l45 105h-69v156h161
v-156l-45 -105h-92z" />
    <glyph glyph-name="gcommaaccent" unicode="&#x123;" horiz-adv-x="534" 
d="M263 178h-14q-25 0 -32.5 -5t-7.5 -18t7 -17.5t33 -4.5l50 -1q89 -2 138.5 -21t66 -49.5t16.5 -81.5v-12q0 -34 -10 -61t-36 -53t-79 -40t-131 -14q-64 0 -111 7.5t-74.5 19t-43.5 30.5t-21 38t-5 45v12q0 68 77 105q-18 25 -18 66q0 55 41 83q-84 41 -84 136v39
q0 166 234 166q46 0 82 -6h179v-135h-45q11 -29 11 -46v-20q0 -162 -223 -162zM185 580v156l45 105h92l-45 -105h69v-156h-161zM259 281q73 0 73 66v18q0 59 -73 59q-71 0 -71 -59v-22q0 -32 16 -47t55 -15zM264 1l-81 2q-14 -18 -14 -40v-5q0 -23 19 -34.5t76 -11.5
q58 0 77 10.5t19 32.5v5q0 22 -17.5 31t-78.5 10z" />
    <glyph glyph-name="Hcircumflex" unicode="&#x124;" horiz-adv-x="671" 
d="M58 0v750h180v-265h195v265h180v-750h-180v321h-195v-321h-180zM126 778l124 171h169l124 -171h-136l-72 65l-71 -65h-138z" />
    <glyph glyph-name="hcircumflex" unicode="&#x125;" horiz-adv-x="569" 
d="M44 0v780h175v-300q49 70 142 70q170 0 170 -158v-392h-175v360q0 46 -70 46q-27 0 -47 -13.5t-20 -36.5v-356h-175zM-77 798l124 171h169l124 -171h-136l-72 65l-71 -65h-138z" />
    <glyph glyph-name="Hbar" unicode="&#x126;" horiz-adv-x="671" 
d="M14 495v148h44v107h180v-107h195v107h180v-107h44v-148h-44v-495h-180v281h-195v-281h-180v495h-44zM238 445h195v50h-195v-50z" />
    <glyph glyph-name="hbar" unicode="&#x127;" horiz-adv-x="569" 
d="M-5 575v138h49v67h175v-67h100v-138h-100v-95q49 70 142 70q170 0 170 -158v-392h-175v360q0 46 -70 46q-27 0 -47 -13.5t-20 -36.5v-356h-175v575h-49z" />
    <glyph glyph-name="Itilde" unicode="&#x128;" horiz-adv-x="309" 
d="M65 0v750h179v-750h-179zM85 778h-119q0 78 25 114t89 36q32 0 74 -15t48 -15q23 0 23 30h119q0 -78 -25.5 -114t-90.5 -36q-31 0 -72.5 15t-47.5 15q-23 0 -23 -30z" />
    <glyph glyph-name="itilde" unicode="&#x129;" horiz-adv-x="275" 
d="M50 0v541h175v-541h-175zM68 580h-119q0 78 25 114t89 36q32 0 74 -15t48 -15q23 0 23 30h119q0 -78 -25.5 -114t-90.5 -36q-31 0 -72.5 15t-47.5 15q-23 0 -23 -30z" />
    <glyph glyph-name="Imacron" unicode="&#x12a;" horiz-adv-x="309" 
d="M65 0v750h179v-750h-179zM-1 778v116h310v-116h-310z" />
    <glyph glyph-name="imacron" unicode="&#x12b;" horiz-adv-x="275" 
d="M50 0v541h175v-541h-175zM-18 580v116h310v-116h-310z" />
    <glyph glyph-name="Ibreve" unicode="&#x12c;" horiz-adv-x="309" 
d="M65 0v750h179v-750h-179zM154 776q-105 0 -148 41t-43 121h137q0 -67 54 -67t54 67h137q0 -80 -42.5 -121t-148.5 -41z" />
    <glyph glyph-name="ibreve" unicode="&#x12d;" horiz-adv-x="275" 
d="M50 0v541h175v-541h-175zM137 578q-105 0 -148 41t-43 121h137q0 -67 54 -67t54 67h137q0 -80 -42.5 -121t-148.5 -41z" />
    <glyph glyph-name="Iogonek" unicode="&#x12e;" horiz-adv-x="309" 
d="M224 -197h-72q-133 0 -133 105q0 71 46 123v719h179v-750h-97q-20 -31 -20 -63q0 -23 9 -31.5t35 -8.5h53v-94z" />
    <glyph glyph-name="iogonek" unicode="&#x12f;" horiz-adv-x="275" 
d="M182 -198h-72q-133 0 -133 105q0 87 73 149v485h175v-541h-119q-21 -32 -21 -64q0 -23 9 -31.5t35 -8.5h53v-94zM50 593v157h175v-157h-175z" />
    <glyph glyph-name="Idotaccent" unicode="&#x130;" horiz-adv-x="309" 
d="M65 0v750h179v-750h-179zM71 778v162h167v-162h-167z" />
    <glyph glyph-name="dotlessi" unicode="&#x131;" horiz-adv-x="275" 
d="M50 0v541h175v-541h-175z" />
    <glyph glyph-name="IJ" unicode="&#x132;" horiz-adv-x="642" 
d="M65 0v750h179v-750h-179zM306 0v150h19q58 0 75 21t17 87v492h179v-501q0 -67 -10 -109.5t-38.5 -76t-81.5 -48.5t-136 -15h-24z" />
    <glyph glyph-name="ij" unicode="&#x133;" horiz-adv-x="530" 
d="M50 0v541h175v-541h-175zM50 593v157h175v-157h-175zM235 -198v147h31q25 0 32 10.5t7 39.5v542h175v-570q0 -86 -43.5 -127.5t-145.5 -41.5h-56zM305 593v157h175v-157h-175z" />
    <glyph glyph-name="Jcircumflex" unicode="&#x134;" horiz-adv-x="371" 
d="M15 0v150h39q58 0 75 21t17 87v492h179v-501q0 -67 -10 -109.5t-38.5 -76t-81.5 -48.5t-136 -15h-44zM26 778l124 171h169l124 -171h-136l-72 65l-71 -65h-138z" />
    <glyph glyph-name="jcircumflex" unicode="&#x135;" horiz-adv-x="275" 
d="M-20 -198v147h31q25 0 32 10.5t7 39.5v542h175v-570q0 -86 -43.5 -127.5t-145.5 -41.5h-56zM-72 580l124 171h169l124 -171h-136l-72 65l-71 -65h-138z" />
    <glyph glyph-name="Kcommaaccent" unicode="&#x136;" horiz-adv-x="631" 
d="M68 0v750h180v-258l182 258h192l-214 -290l225 -460h-195l-154 315l-36 -51v-264h-180zM259 -285l45 105h-69v156h161v-156l-45 -105h-92z" />
    <glyph glyph-name="kcommaaccent" unicode="&#x137;" horiz-adv-x="528" 
d="M44 0v780h175v-388l122 149h185l-167 -198l171 -343h-183l-106 215l-22 -25v-190h-175zM208 -285l45 105h-69v156h161v-156l-45 -105h-92z" />
    <glyph glyph-name="Lacute" unicode="&#x139;" horiz-adv-x="558" 
d="M58 0v750h180v-600h271l29 -150h-480zM78 778l93 187h164l-107 -187h-150z" />
    <glyph glyph-name="lacute" unicode="&#x13a;" horiz-adv-x="275" 
d="M50 0v780h175v-780h-175zM63 798l93 187h164l-107 -187h-150z" />
    <glyph glyph-name="Lcommaaccent" unicode="&#x13b;" horiz-adv-x="558" 
d="M58 0v750h180v-600h271l29 -150h-480zM223 -285l45 105h-69v156h161v-156l-45 -105h-92z" />
    <glyph glyph-name="lcommaaccent" unicode="&#x13c;" horiz-adv-x="275" 
d="M50 0v780h175v-780h-175zM81 -285l45 105h-69v156h161v-156l-45 -105h-92z" />
    <glyph glyph-name="Lcaron" unicode="&#x13d;" horiz-adv-x="558" 
d="M311 491l20 259h154l-47 -259h-127zM58 0v750h180v-600h271l29 -150h-480z" />
    <glyph glyph-name="lcaron" unicode="&#x13e;" horiz-adv-x="275" 
d="M266 571l20 259h154l-47 -259h-127zM50 0v780h175v-780h-175z" />
    <glyph glyph-name="Ldot" unicode="&#x13f;" horiz-adv-x="558" 
d="M58 0v750h180v-600h271l29 -150h-480zM333 335v162h167v-162h-167z" />
    <glyph glyph-name="ldot" unicode="&#x140;" horiz-adv-x="406" 
d="M265 271v146h151v-146h-151zM50 0v780h175v-780h-175z" />
    <glyph glyph-name="Lslash" unicode="&#x141;" horiz-adv-x="550" 
d="M58 0v279l-46 -17v164l46 17v307h180v-248l142 52v-165l-142 -51v-188h271l29 -150h-480z" />
    <glyph glyph-name="lslash" unicode="&#x142;" horiz-adv-x="295" 
d="M62 0v347l-48 -17v148l48 17v285h174v-229l45 16v-147l-45 -16v-404h-174z" />
    <glyph glyph-name="Nacute" unicode="&#x143;" horiz-adv-x="671" 
d="M58 0v750h186l194 -410h2v410h173v-750h-177l-200 428h-2v-428h-176zM263 778l93 187h164l-107 -187h-150z" />
    <glyph glyph-name="nacute" unicode="&#x144;" horiz-adv-x="569" 
d="M44 0v541h175v-61q49 70 142 70q170 0 170 -158v-392h-175v360q0 46 -70 46q-28 0 -47.5 -14t-19.5 -40v-352h-175zM212 580l93 187h164l-107 -187h-150z" />
    <glyph glyph-name="Ncommaaccent" unicode="&#x145;" horiz-adv-x="671" 
d="M58 0v750h186l194 -410h2v410h173v-750h-177l-200 428h-2v-428h-176zM279 -285l45 105h-69v156h161v-156l-45 -105h-92z" />
    <glyph glyph-name="ncommaaccent" unicode="&#x146;" horiz-adv-x="569" 
d="M44 0v541h175v-61q49 70 142 70q170 0 170 -158v-392h-175v360q0 46 -70 46q-28 0 -47.5 -14t-19.5 -40v-352h-175zM228 -285l45 105h-69v156h161v-156l-45 -105h-92z" />
    <glyph glyph-name="Ncaron" unicode="&#x147;" horiz-adv-x="671" 
d="M58 0v750h186l194 -410h2v410h173v-750h-177l-200 428h-2v-428h-176zM250 778l-124 171h138l71 -65l72 65h136l-124 -171h-169z" />
    <glyph glyph-name="ncaron" unicode="&#x148;" horiz-adv-x="569" 
d="M44 0v541h175v-61q49 70 142 70q170 0 170 -158v-392h-175v360q0 46 -70 46q-28 0 -47.5 -14t-19.5 -40v-352h-175zM199 580l-124 171h138l71 -65l72 65h136l-124 -171h-169z" />
    <glyph glyph-name="Eng" unicode="&#x14a;" horiz-adv-x="658" 
d="M363 -198v147h31q25 0 32 10.5t7 39.5v517q0 90 -91 90q-55 0 -80 -18.5t-25 -82.5v-505h-179v750h179v-64q34 42 73 56.5t99 14.5q105 0 154 -60t49 -159v-567q0 -86 -45.5 -127.5t-147.5 -41.5h-56z" />
    <glyph glyph-name="eng" unicode="&#x14b;" horiz-adv-x="569" 
d="M286 -198v147h31q25 0 32 10.5t7 39.5v361q0 46 -70 46q-28 0 -47.5 -14t-19.5 -40v-352h-175v541h175v-61q49 70 142 70q170 0 170 -158v-421q0 -86 -43.5 -127.5t-145.5 -41.5h-56z" />
    <glyph glyph-name="Omacron" unicode="&#x14c;" horiz-adv-x="643" 
d="M322 -9q-135 0 -212 64t-77 192v256q0 128 77 192t212 64t211.5 -64t76.5 -192v-256q0 -127 -77 -191.5t-211 -64.5zM322 141q60 0 84.5 29.5t24.5 93.5v217q0 64 -24.5 93.5t-84.5 29.5q-61 0 -85 -29t-24 -94v-217q0 -64 24 -93.5t85 -29.5zM166 778v116h310v-116h-310
z" />
    <glyph glyph-name="omacron" unicode="&#x14d;" horiz-adv-x="543" 
d="M270 126q34 0 53.5 17t19.5 47v156q0 31 -19 47.5t-54 16.5q-70 0 -70 -64v-156q0 -64 70 -64zM270 -9q-127 0 -186 56.5t-59 150.5v145q0 95 59.5 151t185.5 56q127 0 187.5 -56t60.5 -151v-145q0 -94 -60.5 -150.5t-187.5 -56.5zM116 580v116h310v-116h-310z" />
    <glyph glyph-name="Obreve" unicode="&#x14e;" horiz-adv-x="643" 
d="M322 -9q-135 0 -212 64t-77 192v256q0 128 77 192t212 64t211.5 -64t76.5 -192v-256q0 -127 -77 -191.5t-211 -64.5zM322 141q60 0 84.5 29.5t24.5 93.5v217q0 64 -24.5 93.5t-84.5 29.5q-61 0 -85 -29t-24 -94v-217q0 -64 24 -93.5t85 -29.5zM321 776q-105 0 -148 41
t-43 121h137q0 -67 54 -67t54 67h137q0 -80 -42.5 -121t-148.5 -41z" />
    <glyph glyph-name="obreve" unicode="&#x14f;" horiz-adv-x="543" 
d="M270 126q34 0 53.5 17t19.5 47v156q0 31 -19 47.5t-54 16.5q-70 0 -70 -64v-156q0 -64 70 -64zM270 -9q-127 0 -186 56.5t-59 150.5v145q0 95 59.5 151t185.5 56q127 0 187.5 -56t60.5 -151v-145q0 -94 -60.5 -150.5t-187.5 -56.5zM271 578q-105 0 -148 41t-43 121h137
q0 -67 54 -67t54 67h137q0 -80 -42.5 -121t-148.5 -41z" />
    <glyph glyph-name="Ohungarumlaut" unicode="&#x150;" horiz-adv-x="643" 
d="M322 -9q-135 0 -212 64t-77 192v256q0 128 77 192t212 64t211.5 -64t76.5 -192v-256q0 -127 -77 -191.5t-211 -64.5zM322 141q60 0 84.5 29.5t24.5 93.5v217q0 64 -24.5 93.5t-84.5 29.5q-61 0 -85 -29t-24 -94v-217q0 -64 24 -93.5t85 -29.5zM149 778l93 187h150
l-108 -187h-135zM345 778l93 187h150l-108 -187h-135z" />
    <glyph glyph-name="ohungarumlaut" unicode="&#x151;" horiz-adv-x="543" 
d="M270 126q34 0 53.5 17t19.5 47v156q0 31 -19 47.5t-54 16.5q-70 0 -70 -64v-156q0 -64 70 -64zM270 -9q-127 0 -186 56.5t-59 150.5v145q0 95 59.5 151t185.5 56q127 0 187.5 -56t60.5 -151v-145q0 -94 -60.5 -150.5t-187.5 -56.5zM99 580l93 187h150l-108 -187h-135z
M295 580l93 187h150l-108 -187h-135z" />
    <glyph glyph-name="OE" unicode="&#x152;" horiz-adv-x="916" 
d="M880 0h-565q-134 0 -208 61.5t-74 188.5v250q0 128 73.5 189t208.5 61h565l-29 -156h-271v-132h195v-158h-195v-154h271zM315 147h90v450h-90q-61 0 -82 -25.5t-21 -90.5v-217q0 -64 21 -90.5t82 -26.5z" />
    <glyph glyph-name="oe" unicode="&#x153;" horiz-adv-x="844" 
d="M270 -9q-127 0 -186 56.5t-59 150.5v145q0 95 59.5 151t185.5 56q99 0 156 -44q57 44 156 44q130 0 183 -59.5t53 -174.5v-97h-306v-40q0 -31 13.5 -47t56.5 -16q41 0 53.5 13t17.5 50l165 -25q-19 -163 -236 -163q-99 0 -156 44q-57 -44 -156 -44zM270 126q34 0 53.5 17
t19.5 47v156q0 31 -19 47.5t-54 16.5q-70 0 -70 -64v-156q0 -64 70 -64zM512 329h137v30q0 31 -14.5 46t-52.5 15q-70 0 -70 -61v-30z" />
    <glyph glyph-name="Racute" unicode="&#x154;" horiz-adv-x="628" 
d="M436 0l-131 267h-67v-267h-180v750h273q140 0 201.5 -50.5t61.5 -158.5v-67q0 -63 -25 -107.5t-89 -70.5l144 -296h-188zM238 409h99q50 0 68 17t18 61v34q0 44 -18 61t-68 17h-99v-190zM242 778l93 187h164l-107 -187h-150z" />
    <glyph glyph-name="racute" unicode="&#x155;" horiz-adv-x="376" 
d="M44 0v541h175v-64q47 70 125 70h20v-142h-20q-125 0 -125 -61v-344h-175zM116 580l93 187h164l-107 -187h-150z" />
    <glyph glyph-name="Rcommaaccent" unicode="&#x156;" horiz-adv-x="628" 
d="M436 0l-131 267h-67v-267h-180v750h273q140 0 201.5 -50.5t61.5 -158.5v-67q0 -63 -25 -107.5t-89 -70.5l144 -296h-188zM258 -285l45 105h-69v156h161v-156l-45 -105h-92zM238 409h99q50 0 68 17t18 61v34q0 44 -18 61t-68 17h-99v-190z" />
    <glyph glyph-name="rcommaaccent" unicode="&#x157;" horiz-adv-x="376" 
d="M44 0v541h175v-64q47 70 125 70h20v-142h-20q-125 0 -125 -61v-344h-175zM73 -285l45 105h-69v156h161v-156l-45 -105h-92z" />
    <glyph glyph-name="Rcaron" unicode="&#x158;" horiz-adv-x="628" 
d="M436 0l-131 267h-67v-267h-180v750h273q140 0 201.5 -50.5t61.5 -158.5v-67q0 -63 -25 -107.5t-89 -70.5l144 -296h-188zM229 778l-124 171h138l71 -65l72 65h136l-124 -171h-169zM238 409h99q50 0 68 17t18 61v34q0 44 -18 61t-68 17h-99v-190z" />
    <glyph glyph-name="rcaron" unicode="&#x159;" horiz-adv-x="376" 
d="M44 0v541h175v-64q47 70 125 70h20v-142h-20q-125 0 -125 -61v-344h-175zM103 580l-124 171h138l71 -65l72 65h136l-124 -171h-169z" />
    <glyph glyph-name="Sacute" unicode="&#x15a;" horiz-adv-x="612" 
d="M301 -9q-145 0 -207 57t-74 170l170 24q9 -63 33.5 -84.5t79.5 -21.5q63 0 86.5 19.5t23.5 66.5q0 38 -23.5 54t-92.5 34l-59.5 15t-52.5 16.5t-50 21.5t-39 27t-32 36.5t-18 47.5t-8 62q0 105 61.5 164t205.5 59q143 0 201.5 -57t67.5 -164l-173 -23q-4 58 -24.5 76
t-71.5 18t-73 -14.5t-22 -52.5q0 -36 26.5 -51t96.5 -31q6 -1 9 -2q51 -13 80 -21.5t65 -26t54 -39t31 -56.5t13 -82q0 -118 -62.5 -180t-221.5 -62zM234 778l93 187h164l-107 -187h-150z" />
    <glyph glyph-name="sacute" unicode="&#x15b;" horiz-adv-x="517" 
d="M264 -8q-126 0 -180 33.5t-65 117.5l168 24q6 -36 21.5 -46t58.5 -10q35 0 47.5 9t12.5 28q0 23 -12 32t-52 16q-103 17 -138 32q-96 39 -96 139q0 43 9 73.5t33.5 56.5t72 39t118.5 13q115 0 166.5 -37t61.5 -119l-173 -25q-3 33 -14.5 43.5t-46.5 10.5q-29 0 -43 -7
t-14 -27q0 -24 17 -32t75 -17q35 -6 58 -11t54 -17t49.5 -28.5t32 -44t13.5 -63.5q0 -42 -9.5 -72.5t-33.5 -57t-72 -40t-119 -13.5zM186 580l93 187h164l-107 -187h-150z" />
    <glyph glyph-name="Scircumflex" unicode="&#x15c;" horiz-adv-x="612" 
d="M301 -9q-145 0 -207 57t-74 170l170 24q9 -63 33.5 -84.5t79.5 -21.5q63 0 86.5 19.5t23.5 66.5q0 38 -23.5 54t-92.5 34l-59.5 15t-52.5 16.5t-50 21.5t-39 27t-32 36.5t-18 47.5t-8 62q0 105 61.5 164t205.5 59q143 0 201.5 -57t67.5 -164l-173 -23q-4 58 -24.5 76
t-71.5 18t-73 -14.5t-22 -52.5q0 -36 26.5 -51t96.5 -31q6 -1 9 -2q51 -13 80 -21.5t65 -26t54 -39t31 -56.5t13 -82q0 -118 -62.5 -180t-221.5 -62zM97 778l124 171h169l124 -171h-136l-72 65l-71 -65h-138z" />
    <glyph glyph-name="scircumflex" unicode="&#x15d;" horiz-adv-x="517" 
d="M264 -8q-126 0 -180 33.5t-65 117.5l168 24q6 -36 21.5 -46t58.5 -10q35 0 47.5 9t12.5 28q0 23 -12 32t-52 16q-103 17 -138 32q-96 39 -96 139q0 43 9 73.5t33.5 56.5t72 39t118.5 13q115 0 166.5 -37t61.5 -119l-173 -25q-3 33 -14.5 43.5t-46.5 10.5q-29 0 -43 -7
t-14 -27q0 -24 17 -32t75 -17q35 -6 58 -11t54 -17t49.5 -28.5t32 -44t13.5 -63.5q0 -42 -9.5 -72.5t-33.5 -57t-72 -40t-119 -13.5zM49 580l124 171h169l124 -171h-136l-72 65l-71 -65h-138z" />
    <glyph glyph-name="Scedilla" unicode="&#x15e;" horiz-adv-x="612" 
d="M220 -250v87h40q35 0 51.5 7.5t16.5 30.5q0 35 -67 35h-13v83q-115 10 -166.5 66.5t-61.5 158.5l170 24q9 -63 33.5 -84.5t79.5 -21.5q63 0 86.5 19.5t23.5 66.5q0 38 -23.5 54t-92.5 34l-59.5 15t-52.5 16.5t-50 21.5t-39 27t-32 36.5t-18 47.5t-8 62q0 105 61.5 164
t205.5 59q143 0 201.5 -57t67.5 -164l-173 -23q-4 58 -24.5 76t-71.5 18t-73 -14.5t-22 -52.5q0 -36 26.5 -51t96.5 -31q6 -1 9 -2q51 -13 80 -21.5t65 -26t54 -39t31 -56.5t13 -82q0 -113 -56.5 -174t-197.5 -67v-30q43 -4 66 -24t23 -65q0 -62 -36.5 -92.5t-125.5 -30.5
h-38z" />
    <glyph glyph-name="scedilla" unicode="&#x15f;" horiz-adv-x="517" 
d="M172 -250v87h40q35 0 51.5 7.5t16.5 30.5q0 35 -67 35h-13v85q-90 7 -131 41t-50 107l168 24q6 -36 21.5 -46t58.5 -10q35 0 47.5 9t12.5 28q0 23 -12 32t-52 16q-103 17 -138 32q-96 39 -96 139q0 43 9 73.5t33.5 56.5t72 39t118.5 13q115 0 166.5 -37t61.5 -119
l-173 -25q-3 33 -14.5 43.5t-46.5 10.5q-29 0 -43 -7t-14 -27q0 -24 17 -32t75 -17q35 -6 58 -11t54 -17t49.5 -28.5t32 -44t13.5 -63.5q0 -40 -9 -70t-31 -56t-66 -40.5t-109 -16.5v-30q43 -4 66 -24t23 -65q0 -62 -36.5 -92.5t-125.5 -30.5h-38z" />
    <glyph glyph-name="Scaron" unicode="&#x160;" horiz-adv-x="612" 
d="M301 -9q-145 0 -207 57t-74 170l170 24q9 -63 33.5 -84.5t79.5 -21.5q63 0 86.5 19.5t23.5 66.5q0 38 -23.5 54t-92.5 34l-59.5 15t-52.5 16.5t-50 21.5t-39 27t-32 36.5t-18 47.5t-8 62q0 105 61.5 164t205.5 59q143 0 201.5 -57t67.5 -164l-173 -23q-4 58 -24.5 76
t-71.5 18t-73 -14.5t-22 -52.5q0 -36 26.5 -51t96.5 -31q6 -1 9 -2q51 -13 80 -21.5t65 -26t54 -39t31 -56.5t13 -82q0 -118 -62.5 -180t-221.5 -62zM221 778l-124 171h138l71 -65l72 65h136l-124 -171h-169z" />
    <glyph glyph-name="scaron" unicode="&#x161;" horiz-adv-x="517" 
d="M264 -8q-126 0 -180 33.5t-65 117.5l168 24q6 -36 21.5 -46t58.5 -10q35 0 47.5 9t12.5 28q0 23 -12 32t-52 16q-103 17 -138 32q-96 39 -96 139q0 43 9 73.5t33.5 56.5t72 39t118.5 13q115 0 166.5 -37t61.5 -119l-173 -25q-3 33 -14.5 43.5t-46.5 10.5q-29 0 -43 -7
t-14 -27q0 -24 17 -32t75 -17q35 -6 58 -11t54 -17t49.5 -28.5t32 -44t13.5 -63.5q0 -42 -9.5 -72.5t-33.5 -57t-72 -40t-119 -13.5zM173 580l-124 171h138l71 -65l72 65h136l-124 -171h-169z" />
    <glyph glyph-name="Tcommaaccent" unicode="&#x162;" horiz-adv-x="582" 
d="M201 0v594h-187v156h554v-156h-187v-594h-180zM235 -285l45 105h-69v156h161v-156l-45 -105h-92z" />
    <glyph glyph-name="Tcommaaccent" unicode="&#x21a;" horiz-adv-x="582" 
d="M201 0v594h-187v156h554v-156h-187v-594h-180zM235 -285l45 105h-69v156h161v-156l-45 -105h-92z" />
    <glyph glyph-name="tcommaaccent" unicode="&#x163;" horiz-adv-x="410" 
d="M383 0h-107q-112 0 -150 41t-38 140v222h-69v138h69v158h175v-158h120v-138h-120v-218q0 -27 6.5 -37t31.5 -10h82v-138zM121 -285l45 105h-69v156h161v-156l-45 -105h-92z" />
    <glyph glyph-name="tcommaaccent" unicode="&#x21b;" horiz-adv-x="410" 
d="M383 0h-107q-112 0 -150 41t-38 140v222h-69v138h69v158h175v-158h120v-138h-120v-218q0 -27 6.5 -37t31.5 -10h82v-138zM121 -285l45 105h-69v156h161v-156l-45 -105h-92z" />
    <glyph glyph-name="Tcaron" unicode="&#x164;" horiz-adv-x="582" 
d="M201 0v594h-187v156h554v-156h-187v-594h-180zM206 778l-124 171h138l71 -65l72 65h136l-124 -171h-169z" />
    <glyph glyph-name="tcaron" unicode="&#x165;" horiz-adv-x="410" 
d="M303 571l20 259h154l-47 -259h-127zM383 0h-107q-112 0 -150 41t-38 140v222h-69v138h69v158h175v-158h120v-138h-120v-218q0 -27 6.5 -37t31.5 -10h82v-138z" />
    <glyph glyph-name="Tbar" unicode="&#x166;" horiz-adv-x="582" 
d="M103 332v148h98v114h-187v156h554v-156h-187v-114h98v-148h-98v-332h-180v332h-98z" />
    <glyph glyph-name="tbar" unicode="&#x167;" horiz-adv-x="410" 
d="M19 223v138h69v42h-69v138h69v158h175v-158h120v-138h-120v-42h120v-138h-120v-38q0 -27 6.5 -37t31.5 -10h82v-138h-107q-112 0 -150 41t-38 140v42h-69z" />
    <glyph glyph-name="Utilde" unicode="&#x168;" horiz-adv-x="646" 
d="M323 -9q-133 0 -205 63.5t-72 192.5v503h179v-484q0 -66 19.5 -94t78.5 -28t78.5 28t19.5 94v484h179v-503q0 -129 -72 -192.5t-205 -63.5zM254 778h-119q0 78 25 114t89 36q32 0 74 -15t48 -15q23 0 23 30h119q0 -78 -25.5 -114t-90.5 -36q-31 0 -72.5 15t-47.5 15
q-23 0 -23 -30z" />
    <glyph glyph-name="utilde" unicode="&#x169;" horiz-adv-x="569" 
d="M208 -9q-170 0 -170 158v392h175v-360q0 -46 70 -46q28 0 47.5 14t19.5 40v352h175v-541h-175v61q-49 -70 -142 -70zM215 580h-119q0 78 25 114t89 36q32 0 74 -15t48 -15q23 0 23 30h119q0 -78 -25.5 -114t-90.5 -36q-31 0 -72.5 15t-47.5 15q-23 0 -23 -30z" />
    <glyph glyph-name="Umacron" unicode="&#x16a;" horiz-adv-x="646" 
d="M323 -9q-133 0 -205 63.5t-72 192.5v503h179v-484q0 -66 19.5 -94t78.5 -28t78.5 28t19.5 94v484h179v-503q0 -129 -72 -192.5t-205 -63.5zM168 778v116h310v-116h-310z" />
    <glyph glyph-name="umacron" unicode="&#x16b;" horiz-adv-x="569" 
d="M208 -9q-170 0 -170 158v392h175v-360q0 -46 70 -46q28 0 47.5 14t19.5 40v352h175v-541h-175v61q-49 -70 -142 -70zM129 580v116h310v-116h-310z" />
    <glyph glyph-name="Ubreve" unicode="&#x16c;" horiz-adv-x="646" 
d="M323 -9q-133 0 -205 63.5t-72 192.5v503h179v-484q0 -66 19.5 -94t78.5 -28t78.5 28t19.5 94v484h179v-503q0 -129 -72 -192.5t-205 -63.5zM323 776q-105 0 -148 41t-43 121h137q0 -67 54 -67t54 67h137q0 -80 -42.5 -121t-148.5 -41z" />
    <glyph glyph-name="ubreve" unicode="&#x16d;" horiz-adv-x="569" 
d="M208 -9q-170 0 -170 158v392h175v-360q0 -46 70 -46q28 0 47.5 14t19.5 40v352h175v-541h-175v61q-49 -70 -142 -70zM284 578q-105 0 -148 41t-43 121h137q0 -67 54 -67t54 67h137q0 -80 -42.5 -121t-148.5 -41z" />
    <glyph glyph-name="Uring" unicode="&#x16e;" horiz-adv-x="646" 
d="M323 -9q-133 0 -205 63.5t-72 192.5v503h179v-484q0 -66 19.5 -94t78.5 -28t78.5 28t19.5 94v484h179v-503q0 -129 -72 -192.5t-205 -63.5zM323 775q-127 0 -127 123q0 126 127 126t127 -126q0 -123 -127 -123zM323 847q25 0 35 12t10 39q0 28 -10 41t-35 13t-35 -13
t-10 -41q0 -27 10 -39t35 -12z" />
    <glyph glyph-name="uring" unicode="&#x16f;" horiz-adv-x="569" 
d="M208 -9q-170 0 -170 158v392h175v-360q0 -46 70 -46q28 0 47.5 14t19.5 40v352h175v-541h-175v61q-49 -70 -142 -70zM284 577q-127 0 -127 123q0 126 127 126t127 -126q0 -123 -127 -123zM284 649q25 0 35 12t10 39q0 28 -10 41t-35 13t-35 -13t-10 -41q0 -27 10 -39
t35 -12z" />
    <glyph glyph-name="Uhungarumlaut" unicode="&#x170;" horiz-adv-x="646" 
d="M323 -9q-133 0 -205 63.5t-72 192.5v503h179v-484q0 -66 19.5 -94t78.5 -28t78.5 28t19.5 94v484h179v-503q0 -129 -72 -192.5t-205 -63.5zM151 778l93 187h150l-108 -187h-135zM347 778l93 187h150l-108 -187h-135z" />
    <glyph glyph-name="uhungarumlaut" unicode="&#x171;" horiz-adv-x="569" 
d="M208 -9q-170 0 -170 158v392h175v-360q0 -46 70 -46q28 0 47.5 14t19.5 40v352h175v-541h-175v61q-49 -70 -142 -70zM112 580l93 187h150l-108 -187h-135zM308 580l93 187h150l-108 -187h-135z" />
    <glyph glyph-name="Uogonek" unicode="&#x172;" horiz-adv-x="646" 
d="M351 -197q-133 0 -133 105q0 50 22 90q-194 36 -194 249v503h179v-484q0 -66 19.5 -94t78.5 -28t78.5 28t19.5 94v484h179v-503q0 -124 -67.5 -187.5t-191.5 -68.5q-15 -26 -15 -54q0 -23 9 -31.5t35 -8.5h53v-94h-72z" />
    <glyph glyph-name="uogonek" unicode="&#x173;" horiz-adv-x="569" 
d="M208 -9q-170 0 -170 158v392h175v-360q0 -46 70 -46q28 0 47.5 14t19.5 40v352h175v-541h-76q21 31 71 77h-99q-46 -30 -71 -68v52q-49 -70 -142 -70zM525 -198h-72q-133 0 -133 105q0 58 30 102v-9h99q-21 -32 -21 -64q0 -23 9 -31.5t35 -8.5h53v-94z" />
    <glyph glyph-name="Wcircumflex" unicode="&#x174;" horiz-adv-x="929" 
d="M190 0l-183 750h180l97 -457h2l93 457h176l92 -457h2l98 457h175l-183 -750h-183l-90 452h-2l-91 -452h-183zM255 778l124 171h169l124 -171h-136l-72 65l-71 -65h-138z" />
    <glyph glyph-name="wcircumflex" unicode="&#x175;" horiz-adv-x="792" 
d="M154 0l-143 541h174l67 -302h2l54 302h183l53 -299h2l68 299h167l-137 -541h-189l-55 305h-2l-55 -305h-189zM187 580l124 171h169l124 -171h-136l-72 65l-71 -65h-138z" />
    <glyph glyph-name="Ycircumflex" unicode="&#x176;" horiz-adv-x="633" 
d="M226 0v297l-220 453h186l128 -282h2l131 282h174l-220 -453v-297h-181zM107 778l124 171h169l124 -171h-136l-72 65l-71 -65h-138z" />
    <glyph glyph-name="ycircumflex" unicode="&#x177;" horiz-adv-x="536" 
d="M111 -198l70 202l-181 537h175l92 -326h2l94 326h173l-251 -739h-174zM59 580l124 171h169l124 -171h-136l-72 65l-71 -65h-138z" />
    <glyph glyph-name="Ydieresis" unicode="&#x178;" horiz-adv-x="633" 
d="M226 0v297l-220 453h186l128 -282h2l131 282h174l-220 -453v-297h-181zM140 778v143h148v-143h-148zM344 778v143h148v-143h-148z" />
    <glyph glyph-name="Zacute" unicode="&#x179;" horiz-adv-x="552" 
d="M25 0v150l284 444h-272v156h478v-156l-284 -444h297v-150h-503zM204 778l93 187h164l-107 -187h-150z" />
    <glyph glyph-name="zacute" unicode="&#x17a;" horiz-adv-x="474" 
d="M19 0v125l214 275h-207v141h423v-131l-213 -275h220v-135h-437zM165 580l93 187h164l-107 -187h-150z" />
    <glyph glyph-name="Zdotaccent" unicode="&#x17b;" horiz-adv-x="552" 
d="M25 0v150l284 444h-272v156h478v-156l-284 -444h297v-150h-503zM193 778v162h167v-162h-167z" />
    <glyph glyph-name="zdotaccent" unicode="&#x17c;" horiz-adv-x="474" 
d="M19 0v125l214 275h-207v141h423v-131l-213 -275h220v-135h-437zM154 580v162h167v-162h-167z" />
    <glyph glyph-name="Zcaron" unicode="&#x17d;" horiz-adv-x="552" 
d="M25 0v150l284 444h-272v156h478v-156l-284 -444h297v-150h-503zM191 778l-124 171h138l71 -65l72 65h136l-124 -171h-169z" />
    <glyph glyph-name="zcaron" unicode="&#x17e;" horiz-adv-x="474" 
d="M19 0v125l214 275h-207v141h423v-131l-213 -275h220v-135h-437zM152 580l-124 171h138l71 -65l72 65h136l-124 -171h-169z" />
    <glyph glyph-name="florin" unicode="&#x192;" horiz-adv-x="427" 
d="M113 -198v519h-83v138h83v109q0 94 39 138t149 44h93v-149h-68q-25 0 -31.5 -10t-6.5 -37v-95h106v-138h-106v-519h-175z" />
    <glyph glyph-name="Scommaaccent" unicode="&#x218;" horiz-adv-x="612" 
d="M301 -9q-145 0 -207 57t-74 170l170 24q9 -63 33.5 -84.5t79.5 -21.5q63 0 86.5 19.5t23.5 66.5q0 38 -23.5 54t-92.5 34l-59.5 15t-52.5 16.5t-50 21.5t-39 27t-32 36.5t-18 47.5t-8 62q0 105 61.5 164t205.5 59q143 0 201.5 -57t67.5 -164l-173 -23q-4 58 -24.5 76
t-71.5 18t-73 -14.5t-22 -52.5q0 -36 26.5 -51t96.5 -31q6 -1 9 -2q51 -13 80 -21.5t65 -26t54 -39t31 -56.5t13 -82q0 -118 -62.5 -180t-221.5 -62zM250 -285l45 105h-69v156h161v-156l-45 -105h-92z" />
    <glyph glyph-name="scommaaccent" unicode="&#x219;" horiz-adv-x="517" 
d="M264 -8q-126 0 -180 33.5t-65 117.5l168 24q6 -36 21.5 -46t58.5 -10q35 0 47.5 9t12.5 28q0 23 -12 32t-52 16q-103 17 -138 32q-96 39 -96 139q0 43 9 73.5t33.5 56.5t72 39t118.5 13q115 0 166.5 -37t61.5 -119l-173 -25q-3 33 -14.5 43.5t-46.5 10.5q-29 0 -43 -7
t-14 -27q0 -24 17 -32t75 -17q35 -6 58 -11t54 -17t49.5 -28.5t32 -44t13.5 -63.5q0 -42 -9.5 -72.5t-33.5 -57t-72 -40t-119 -13.5zM202 -285l45 105h-69v156h161v-156l-45 -105h-92z" />
    <glyph glyph-name="schwa" unicode="&#x259;" horiz-adv-x="526" 
d="M262 -9q-130 0 -183 59.5t-53 174.5v97h306v36q0 31 -13.5 47t-56.5 16q-40 0 -53 -11.5t-18 -47.5l-165 25q19 163 236 163q127 0 183 -57.5t56 -149.5v-145q0 -94 -55.5 -150.5t-183.5 -56.5zM262 117q70 0 70 61v34h-137v-34q0 -31 14.5 -46t52.5 -15z" />
    <glyph glyph-name="circumflex" unicode="&#x2c6;" horiz-adv-x="500" 
d="M41 580l124 171h169l124 -171h-136l-72 65l-71 -65h-138z" />
    <glyph glyph-name="caron" unicode="&#x2c7;" horiz-adv-x="500" 
d="M165 580l-124 171h138l71 -65l72 65h136l-124 -171h-169z" />
    <glyph glyph-name="breve" unicode="&#x2d8;" horiz-adv-x="500" 
d="M250 578q-105 0 -148 41t-43 121h137q0 -67 54 -67t54 67h137q0 -80 -42.5 -121t-148.5 -41z" />
    <glyph glyph-name="dotaccent" unicode="&#x2d9;" horiz-adv-x="500" 
d="M167 580v162h167v-162h-167z" />
    <glyph glyph-name="ring" unicode="&#x2da;" horiz-adv-x="500" 
d="M250 577q-127 0 -127 123q0 126 127 126t127 -126q0 -123 -127 -123zM250 649q25 0 35 12t10 39q0 28 -10 41t-35 13t-35 -13t-10 -41q0 -27 10 -39t35 -12z" />
    <glyph glyph-name="ogonek" unicode="&#x2db;" horiz-adv-x="500" 
d="M268 -250q-133 0 -133 105q0 103 101 170h99q-53 -49 -72.5 -80t-19.5 -61q0 -23 9 -31.5t35 -8.5h53v-94h-72z" />
    <glyph glyph-name="tilde" unicode="&#x2dc;" horiz-adv-x="500" 
d="M62 580q0 78 25 114t89 36q32 0 74 -15t48 -15q23 0 23 30h119q0 -78 -25.5 -114t-90.5 -36q-31 0 -72.5 15t-47.5 15q-23 0 -23 -30h-119z" />
    <glyph glyph-name="hungarumlaut" unicode="&#x2dd;" horiz-adv-x="500" 
d="M78 580l93 187h150l-108 -187h-135zM274 580l93 187h150l-108 -187h-135z" />
    <glyph glyph-name="commaaccent" unicode="&#x326;" horiz-adv-x="500" 
d="M194 -285l45 105h-69v156h161v-156l-45 -105h-92z" />
    <glyph glyph-name="Delta" unicode="&#x394;" horiz-adv-x="646" 
d="M14 0l209 750h200l209 -750h-618zM222 138h196l-97 392h-2z" />
    <glyph glyph-name="Omega" unicode="&#x3a9;" horiz-adv-x="651" 
d="M37 0v150h86v72q-86 52 -86 175v106q0 128 77 192t212 64t211.5 -64t76.5 -192v-106q0 -123 -86 -175v-72h86v-150h-240v291q43 14 53 37t10 86v67q0 64 -25 93.5t-86 29.5t-86 -29.5t-25 -93.5v-67q0 -64 9.5 -86.5t52.5 -36.5v-291h-240z" />
    <glyph glyph-name="Omega" unicode="&#x2126;" horiz-adv-x="651" 
d="M37 0v150h86v72q-86 52 -86 175v106q0 128 77 192t212 64t211.5 -64t76.5 -192v-106q0 -123 -86 -175v-72h86v-150h-240v291q43 14 53 37t10 86v67q0 64 -25 93.5t-86 29.5t-86 -29.5t-25 -93.5v-67q0 -64 9.5 -86.5t52.5 -36.5v-291h-240z" />
    <glyph glyph-name="pi" unicode="&#x3c0;" horiz-adv-x="663" 
d="M88 0v403h-69v138h625v-138h-69v-403h-175v403h-137v-403h-175z" />
    <glyph glyph-name="Wgrave" unicode="&#x1e80;" horiz-adv-x="929" 
d="M190 0l-183 750h180l97 -457h2l93 457h176l92 -457h2l98 457h175l-183 -750h-183l-90 452h-2l-91 -452h-183zM407 778l-108 185h165l92 -185h-149z" />
    <glyph glyph-name="wgrave" unicode="&#x1e81;" horiz-adv-x="792" 
d="M154 0l-143 541h174l67 -302h2l54 302h183l53 -299h2l68 299h167l-137 -541h-189l-55 305h-2l-55 -305h-189zM339 580l-108 185h165l92 -185h-149z" />
    <glyph glyph-name="Wacute" unicode="&#x1e82;" horiz-adv-x="929" 
d="M190 0l-183 750h180l97 -457h2l93 457h176l92 -457h2l98 457h175l-183 -750h-183l-90 452h-2l-91 -452h-183zM392 778l93 187h164l-107 -187h-150z" />
    <glyph glyph-name="wacute" unicode="&#x1e83;" horiz-adv-x="792" 
d="M154 0l-143 541h174l67 -302h2l54 302h183l53 -299h2l68 299h167l-137 -541h-189l-55 305h-2l-55 -305h-189zM324 580l93 187h164l-107 -187h-150z" />
    <glyph glyph-name="Wdieresis" unicode="&#x1e84;" horiz-adv-x="929" 
d="M190 0l-183 750h180l97 -457h2l93 457h176l92 -457h2l98 457h175l-183 -750h-183l-90 452h-2l-91 -452h-183zM288 778v143h148v-143h-148zM492 778v143h148v-143h-148z" />
    <glyph glyph-name="wdieresis" unicode="&#x1e85;" horiz-adv-x="792" 
d="M154 0l-143 541h174l67 -302h2l54 302h183l53 -299h2l68 299h167l-137 -541h-189l-55 305h-2l-55 -305h-189zM220 580v143h148v-143h-148zM424 580v143h148v-143h-148z" />
    <glyph glyph-name="Ygrave" unicode="&#x1ef2;" horiz-adv-x="633" 
d="M226 0v297l-220 453h186l128 -282h2l131 282h174l-220 -453v-297h-181zM259 778l-108 185h165l92 -185h-149z" />
    <glyph glyph-name="ygrave" unicode="&#x1ef3;" horiz-adv-x="536" 
d="M111 -198l70 202l-181 537h175l92 -326h2l94 326h173l-251 -739h-174zM211 580l-108 185h165l92 -185h-149z" />
    <glyph glyph-name="space.en" unicode="&#x2002;" horiz-adv-x="500" 
 />
    <glyph glyph-name="space.em" unicode="&#x2003;" horiz-adv-x="1000" 
 />
    <glyph glyph-name="space.tab_en" unicode="&#x2007;" 
 />
    <glyph glyph-name="space.thin" unicode="&#x2009;" horiz-adv-x="125" 
 />
    <glyph glyph-name="endash.tab" unicode="&#x2012;" 
d="M61 304v145h498v-145h-498z" />
    <glyph glyph-name="endash" unicode="&#x2013;" horiz-adv-x="560" 
d="M31 244v145h498v-145h-498z" />
    <glyph glyph-name="emdash" unicode="&#x2014;" horiz-adv-x="795" 
d="M31 244v145h733v-145h-733z" />
    <glyph glyph-name="emdash.salt_em" unicode="&#x2015;" horiz-adv-x="1000" 
d="M0 244v145h1000v-145h-1000z" />
    <glyph glyph-name="quoteleft" unicode="&#x2018;" horiz-adv-x="259" 
d="M30 405v194l56 151h114l-56 -151h86v-194h-200z" />
    <glyph glyph-name="quoteright" unicode="&#x2019;" horiz-adv-x="259" 
d="M60 405l56 151h-86v194h200v-194l-56 -151h-114z" />
    <glyph glyph-name="quotesinglbase" unicode="&#x201a;" horiz-adv-x="259" 
d="M60 -151l56 151h-86v194h200v-194l-56 -151h-114z" />
    <glyph glyph-name="quotedblleft" unicode="&#x201c;" horiz-adv-x="477" 
d="M30 405v194l56 151h109l-56 -151h86v-194h-195zM252 405v194l56 151h109l-56 -151h86v-194h-195z" />
    <glyph glyph-name="quotedblright" unicode="&#x201d;" horiz-adv-x="477" 
d="M60 405l56 151h-86v194h195v-194l-56 -151h-109zM282 405l56 151h-86v194h195v-194l-56 -151h-109z" />
    <glyph glyph-name="quotedblbase" unicode="&#x201e;" horiz-adv-x="477" 
d="M60 -151l56 151h-86v194h195v-194l-56 -151h-109zM282 -151l56 151h-86v194h195v-194l-56 -151h-109z" />
    <glyph glyph-name="dagger" unicode="&#x2020;" horiz-adv-x="538" 
d="M180 -198v571h-155v148h155v229h178v-229h155v-148h-155v-571h-178z" />
    <glyph glyph-name="daggerdbl" unicode="&#x2021;" horiz-adv-x="538" 
d="M180 -198v229h-155v148h155v194h-155v148h155v229h178v-229h155v-148h-155v-194h155v-148h-155v-229h-178z" />
    <glyph glyph-name="bullet" unicode="&#x2022;" horiz-adv-x="420" 
d="M210 69q-93 0 -127 45t-34 140v120q0 96 33.5 140.5t127.5 44.5t127.5 -44.5t33.5 -140.5v-120q0 -95 -34 -140t-127 -45z" />
    <glyph glyph-name="ellipsis" unicode="&#x2026;" horiz-adv-x="900" 
d="M50 0v194h200v-194h-200zM350 0v194h200v-194h-200zM650 0v194h200v-194h-200z" />
    <glyph glyph-name="perthousand" unicode="&#x2030;" horiz-adv-x="1362" 
d="M204 288q-83 0 -128.5 39t-45.5 118v157q0 79 46 118t128 39t127.5 -39t45.5 -118v-157q0 -79 -45.5 -118t-127.5 -39zM204 401q22 0 30.5 12.5t8.5 41.5v134q0 29 -8.5 41.5t-30.5 12.5t-31 -13t-9 -41v-134q0 -28 9 -41t31 -13zM782 -9q-83 0 -128.5 39t-45.5 118v157
q0 79 46 118t128 39t127.5 -39t45.5 -118v-157q0 -79 -45.5 -118t-127.5 -39zM782 104q22 0 30.5 12.5t8.5 41.5v134q0 29 -8.5 41.5t-30.5 12.5t-31 -13t-9 -41v-134q0 -28 9 -41t31 -13zM1159 -9q-83 0 -128.5 39t-45.5 118v157q0 79 46 118t128 39t127.5 -39t45.5 -118
v-157q0 -79 -45.5 -118t-127.5 -39zM1159 104q22 0 30.5 12.5t8.5 41.5v134q0 29 -8.5 41.5t-30.5 12.5t-31 -13t-9 -41v-134q0 -28 9 -41t31 -13zM236 0l355 750h158l-355 -750h-158z" />
    <glyph glyph-name="prime" unicode="&#x2032;" horiz-adv-x="322" 
d="M72 471l73 279h161l-87 -279h-147z" />
    <glyph glyph-name="primedbl" unicode="&#x2033;" horiz-adv-x="541" 
d="M72 471l73 279h151l-87 -279h-137zM302 471l72 279h151l-88 -279h-135z" />
    <glyph glyph-name="guilsinglleft" unicode="&#x2039;" horiz-adv-x="353" 
d="M165 0l-134 270l134 271h178l-134 -271l134 -270h-178z" />
    <glyph glyph-name="guilsinglright" unicode="&#x203a;" horiz-adv-x="353" 
d="M11 0l134 270l-134 271h178l134 -271l-134 -270h-178z" />
    <glyph glyph-name="fraction" unicode="&#x2044;" horiz-adv-x="573" 
d="M0 0l415 750h158l-415 -750h-158z" />
    <glyph glyph-name="zero.sups" unicode="&#x2070;" horiz-adv-x="523" 
d="M262 243q-96 0 -152.5 45t-56.5 134v179q0 89 57 134t152 45t151.5 -45t56.5 -134v-179q0 -89 -56.5 -134t-151.5 -45zM262 367q35 0 49 15t14 49v157q0 35 -14 49.5t-49 14.5t-49 -14.5t-14 -49.5v-157q0 -35 14 -49.5t49 -14.5z" />
    <glyph glyph-name="four.sups" unicode="&#x2074;" horiz-adv-x="527" 
d="M290 249v91h-240v107l194 327h147l-196 -327h95v110h132v-110h58v-107h-58v-91h-132z" />
    <glyph glyph-name="five.sups" unicode="&#x2075;" horiz-adv-x="499" 
d="M251 243q-107 0 -150 39t-52 130l138 11q2 -35 14.5 -49.5t49.5 -14.5q58 0 58 56v29q0 31 -14 43t-50 12q-54 0 -84 -17l-102 31l9 261h359l-21 -119h-212l-3 -60q38 15 82 15q85 0 130 -35t45 -128v-38q0 -88 -47.5 -127t-149.5 -39z" />
    <glyph glyph-name="six.sups" unicode="&#x2076;" horiz-adv-x="506" 
d="M255 243q-90 0 -145.5 40.5t-55.5 120.5v197q0 89 53 134t146 45q187 0 200 -150l-138 -10q-2 24 -14.5 33t-47.5 9q-34 0 -48 -13.5t-14 -43.5v-41q26 32 90 32q86 0 130.5 -35.5t44.5 -114.5v-38q0 -85 -54 -125t-147 -40zM255 360q34 0 48.5 11.5t14.5 36.5v29
q0 27 -14 37.5t-49 10.5t-49.5 -11t-14.5 -37v-29q0 -25 14.5 -36.5t49.5 -11.5z" />
    <glyph glyph-name="seven.sups" unicode="&#x2077;" horiz-adv-x="458" 
d="M103 249l164 401h-228l20 124h356v-124l-165 -401h-147z" />
    <glyph glyph-name="eight.sups" unicode="&#x2078;" horiz-adv-x="508" 
d="M254 243q-101 0 -152.5 40.5t-51.5 98.5v24q0 49 17 80t62 46q-41 15 -58 39.5t-17 63.5v20q0 56 54 90.5t146 34.5q94 0 147 -33t53 -92v-20q0 -38 -17 -63t-59 -40q47 -15 64 -46t17 -80v-24q0 -58 -52 -98.5t-153 -40.5zM254 352q66 0 66 50v19q0 53 -66 53
q-65 0 -65 -53v-19q0 -50 65 -50zM254 573q60 0 60 43v11q0 42 -60 42t-60 -42v-11q0 -43 60 -43z" />
    <glyph glyph-name="nine.sups" unicode="&#x2079;" horiz-adv-x="506" 
d="M253 243q-187 0 -200 150l138 10q2 -24 14.5 -33t47.5 -9q34 0 48 13.5t14 43.5v41q-26 -32 -90 -32q-86 0 -130.5 35.5t-44.5 114.5v38q0 85 54 125t147 40q90 0 145.5 -40.5t55.5 -120.5v-197q0 -89 -53 -134t-146 -45zM251 536q35 0 49.5 11t14.5 37v29
q0 25 -14.5 36.5t-49.5 11.5q-34 0 -48.5 -11.5t-14.5 -36.5v-29q0 -27 14 -37.5t49 -10.5z" />
    <glyph glyph-name="zero.sinf" unicode="&#x2080;" horiz-adv-x="523" 
d="M262 -204q-96 0 -152.5 45t-56.5 134v179q0 89 57 134t152 45t151.5 -45t56.5 -134v-179q0 -89 -56.5 -134t-151.5 -45zM262 -80q35 0 49 15t14 49v157q0 35 -14 49.5t-49 14.5t-49 -14.5t-14 -49.5v-157q0 -35 14 -49.5t49 -14.5z" />
    <glyph glyph-name="one.sinf" unicode="&#x2081;" horiz-adv-x="344" 
d="M116 -198v396h-83l20 129h208v-525h-145z" />
    <glyph glyph-name="two.sinf" unicode="&#x2082;" horiz-adv-x="486" 
d="M50 -198v91q0 54 25 94.5t61 63t72 40t61 37t25 43.5q0 25 -13 34t-38 9q-31 0 -43 -15t-14 -46l-139 10q4 75 50.5 122.5t142.5 47.5q60 0 100.5 -14t60.5 -39t27.5 -52t7.5 -62q0 -42 -25 -76.5t-60.5 -56.5t-71 -39.5t-60.5 -34t-25 -31.5v-4h243v-122h-387z" />
    <glyph glyph-name="three.sinf" unicode="&#x2083;" horiz-adv-x="506" 
d="M253 -204q-59 0 -99.5 12t-62.5 36.5t-32 52.5t-14 69l137 13q4 -41 19 -55.5t55 -14.5q34 0 47.5 14t13.5 42q0 29 -14 41t-46 12h-101v107h100q24 0 36.5 7.5t15 16.5t2.5 25q0 20 -11 31t-46 11q-38 0 -49.5 -10.5t-14.5 -46.5l-137 10q7 81 49.5 122.5t151.5 41.5
q196 0 196 -133q0 -48 -18 -75.5t-57 -41.5q47 -13 64.5 -42t17.5 -87q0 -158 -203 -158z" />
    <glyph glyph-name="four.sinf" unicode="&#x2084;" horiz-adv-x="527" 
d="M290 -198v91h-240v107l194 327h147l-196 -327h95v110h132v-110h58v-107h-58v-91h-132z" />
    <glyph glyph-name="five.sinf" unicode="&#x2085;" horiz-adv-x="499" 
d="M251 -204q-107 0 -150 39t-52 130l138 11q2 -35 14.5 -49.5t49.5 -14.5q58 0 58 56v29q0 31 -14 43t-50 12q-54 0 -84 -17l-102 31l9 261h359l-21 -119h-212l-3 -60q38 15 82 15q85 0 130 -35t45 -128v-38q0 -88 -47.5 -127t-149.5 -39z" />
    <glyph glyph-name="six.sinf" unicode="&#x2086;" horiz-adv-x="506" 
d="M255 -204q-90 0 -145.5 40.5t-55.5 120.5v197q0 89 53 134t146 45q187 0 200 -150l-138 -10q-2 24 -14.5 33t-47.5 9q-34 0 -48 -13.5t-14 -43.5v-41q26 32 90 32q86 0 130.5 -35.5t44.5 -114.5v-38q0 -85 -54 -125t-147 -40zM255 -87q34 0 48.5 11.5t14.5 36.5v29
q0 27 -14 37.5t-49 10.5t-49.5 -11t-14.5 -37v-29q0 -25 14.5 -36.5t49.5 -11.5z" />
    <glyph glyph-name="seven.sinf" unicode="&#x2087;" horiz-adv-x="458" 
d="M103 -198l164 401h-228l20 124h356v-124l-165 -401h-147z" />
    <glyph glyph-name="eight.sinf" unicode="&#x2088;" horiz-adv-x="508" 
d="M254 -204q-101 0 -152.5 40.5t-51.5 98.5v24q0 49 17 80t62 46q-41 15 -58 39.5t-17 63.5v20q0 56 54 90.5t146 34.5q94 0 147 -33t53 -92v-20q0 -38 -17 -63t-59 -40q47 -15 64 -46t17 -80v-24q0 -58 -52 -98.5t-153 -40.5zM254 -95q66 0 66 50v19q0 53 -66 53
q-65 0 -65 -53v-19q0 -50 65 -50zM254 126q60 0 60 43v11q0 42 -60 42t-60 -42v-11q0 -43 60 -43z" />
    <glyph glyph-name="nine.sinf" unicode="&#x2089;" horiz-adv-x="506" 
d="M253 -204q-187 0 -200 150l138 10q2 -24 14.5 -33t47.5 -9q34 0 48 13.5t14 43.5v41q-26 -32 -90 -32q-86 0 -130.5 35.5t-44.5 114.5v38q0 85 54 125t147 40q90 0 145.5 -40.5t55.5 -120.5v-197q0 -89 -53 -134t-146 -45zM251 89q35 0 49.5 11t14.5 37v29
q0 25 -14.5 36.5t-49.5 11.5q-34 0 -48.5 -11.5t-14.5 -36.5v-29q0 -27 14 -37.5t49 -10.5z" />
    <glyph glyph-name="Euro" unicode="&#x20ac;" horiz-adv-x="679" 
d="M31 396v116h72q2 123 75 185t198 62q130 0 192.5 -55.5t74.5 -185.5l-170 -22q-5 62 -23.5 87t-73.5 25q-54 0 -76 -24.5t-25 -71.5h140v-116h-140v-42h140v-116h-140q1 -52 20 -77.5t81 -25.5q56 0 75 25.5t25 94.5l167 -22q-15 -132 -76.5 -187t-190.5 -55
q-126 0 -198.5 62t-74.5 185h-72v116h72v42h-72z" />
    <glyph glyph-name="copyrightsound" unicode="&#x2117;" horiz-adv-x="738" 
d="M369 -9q-156 0 -239 71t-83 203v220q0 132 83.5 203t238.5 71t238.5 -71t83.5 -203v-220q0 -131 -83.5 -202.5t-238.5 -71.5zM369 52q255 0 255 214v218q0 214 -255 214t-255 -214v-218q0 -214 255 -214zM217 138v468h178q88 0 129 -32t41 -98v-42q0 -68 -41 -101
t-129 -33h-61v-162h-117zM334 391h65q31 0 42 10.5t11 38.5v23q0 27 -11 37t-42 10h-65v-119z" />
    <glyph glyph-name="trademark" unicode="&#x2122;" horiz-adv-x="897" 
d="M393 314v436h137l91 -252l89 252h137v-436h-116v200l-72 -200h-78l-74 206v-206h-114zM125 314v332h-112v104h352v-104h-113v-332h-127z" />
    <glyph glyph-name="estimated" unicode="&#x212e;" horiz-adv-x="697" 
d="M348 -12q-138 0 -224 96t-86 235q0 141 85.5 236t227.5 95t226.5 -95t86.5 -237h-490v-220q73 -71 174 -71q83 0 137.5 37.5t99.5 107.5l37 -23q-52 -79 -114.5 -120t-159.5 -41zM174 358h351v182q-74 71 -175 71q-107 0 -176 -71v-182z" />
    <glyph glyph-name="partialdiff" unicode="&#x2202;" horiz-adv-x="533" 
d="M221 -9q-133 0 -188 63t-38 158l29 161q16 92 62 134.5t136 42.5q57 0 89 -18t40 -43l9 52q9 55 -4.5 72.5t-72.5 17.5h-56l27 149h50q135 0 196 -57.5t40 -174.5l-63 -360q-17 -94 -77 -145.5t-179 -51.5zM226 126q65 0 76 59l28 161q11 64 -54 64q-68 0 -78 -59
l-27 -156q-12 -69 55 -69z" />
    <glyph glyph-name="product" unicode="&#x220f;" horiz-adv-x="671" 
d="M58 -198v948h555v-948h-180v784h-195v-784h-180z" />
    <glyph glyph-name="summation" unicode="&#x2211;" horiz-adv-x="514" 
d="M18 -198v150l231 349l-231 293v156h480l-29 -156h-255l170 -216v-158l-179 -268h264l29 -150h-480z" />
    <glyph glyph-name="minus" unicode="&#x2212;" horiz-adv-x="559" 
d="M63 309v136h434v-136h-434z" />
    <glyph glyph-name="radical" unicode="&#x221a;" horiz-adv-x="566" 
d="M184 0l-174 541h175l93 -332h2l152 541h173l-232 -750h-189z" />
    <glyph glyph-name="infinity" unicode="&#x221e;" horiz-adv-x="769" 
d="M541 139q-67 0 -102 12t-56 46q-21 -33 -55 -45.5t-94 -12.5q-96 0 -143 47.5t-47 125.5v122q0 79 47 126.5t143 47.5q60 0 94.5 -12t55.5 -43q21 31 56 43t100 12q91 0 138 -47.5t47 -126.5v-122q0 -77 -47 -125t-137 -48zM515 252q29 0 45 14.5t16 39.5v131
q0 25 -16 39t-45 14q-59 0 -59 -53v-131q0 -54 59 -54zM252 252q29 0 45 14.5t16 39.5v131q0 25 -16 39t-45 14q-59 0 -59 -53v-131q0 -54 59 -54z" />
    <glyph glyph-name="integral" unicode="&#x222b;" horiz-adv-x="427" 
d="M7 -198v149h68q25 0 31.5 10t6.5 37v570q0 94 39 138t149 44h93v-149h-68q-25 0 -31.5 -10t-6.5 -37v-570q0 -94 -39 -138t-149 -44h-93z" />
    <glyph glyph-name="approxequal" unicode="&#x2248;" horiz-adv-x="559" 
d="M169 399h-124q0 94 27.5 132.5t96.5 38.5q31 0 106 -23.5t87 -23.5q28 0 28 47h124q0 -91 -26.5 -131t-97.5 -40q-32 0 -108 23.5t-84 23.5q-13 0 -20 -8t-8 -16t-1 -23zM169 182h-124q0 94 27.5 132.5t96.5 38.5q31 0 106 -23.5t87 -23.5q28 0 28 47h124
q0 -91 -26.5 -131t-97.5 -40q-32 0 -108 23.5t-84 23.5q-13 0 -20 -8t-8 -16t-1 -23z" />
    <glyph glyph-name="notequal" unicode="&#x2260;" horiz-adv-x="559" 
d="M62 99l53 100h-52v139h131l41 78h-172v139h241l54 100h139l-54 -100h54v-139h-132l-41 -78h173v-139h-243l-53 -100h-139z" />
    <glyph glyph-name="lessequal" unicode="&#x2264;" horiz-adv-x="560" 
d="M498 212l-435 156v147l435 158v-138l-285 -95l285 -91v-137zM63 70v136h435v-136h-435z" />
    <glyph glyph-name="greaterequal" unicode="&#x2265;" horiz-adv-x="560" 
d="M63 212v137l285 91l-285 95v138l435 -158v-147zM63 70v136h435v-136h-435z" />
    <glyph glyph-name="lozenge" unicode="&#x25ca;" horiz-adv-x="559" 
d="M184 0l-170 375l170 375h192l170 -375l-170 -375h-192zM283 152l101 223l-104 229l-104 -229z" />
    <glyph glyph-name="u2022.check" unicode="&#x2713;" horiz-adv-x="566" 
d="M184 0l-174 541h175l93 -332h2l152 541h173l-232 -750h-189z" />
    <glyph glyph-name="apple" unicode="&#xf8ff;" horiz-adv-x="539" 
d="M492 0h-245q-135 0 -183.5 49t-48.5 162v69q0 81 24 126.5t85 64.5l-109 279h187l104 -264h9v264h177v-750zM242 154h73v182h-72q-38 0 -47 -14.5t-9 -59.5v-34q0 -45 9 -59.5t46 -14.5z" />
    <glyph glyph-name="zero.salt_slash" horiz-adv-x="633" 
d="M317 -9q-134 0 -209 64t-75 192v256q0 128 75 192t209 64t208.5 -64t74.5 -192v-256q0 -128 -74.5 -192t-208.5 -64zM317 134q64 0 86.5 30.5t22.5 95.5v194l-138 -318q18 -2 29 -2zM208 485v-188l134 312q-16 2 -25 2q-65 0 -87 -30t-22 -96z" />
    <glyph glyph-name="endash.salt_en" horiz-adv-x="500" 
d="M0 244v145h500v-145h-500z" />
    <glyph glyph-name="parenleft.uc" horiz-adv-x="399" 
d="M292 -70q-133 0 -191 61t-58 190v389q0 129 58 189.5t191 60.5h85v-145h-85q-45 0 -61.5 -24.5t-16.5 -92.5v-365q0 -68 17 -93t61 -25h85v-145h-85z" />
    <glyph glyph-name="parenright.uc" horiz-adv-x="399" 
d="M22 -70v145h84q45 0 61.5 25t16.5 93v364q0 68 -16.5 92.5t-61.5 24.5h-84v145h84q134 0 192 -60.5t58 -189.5v-388q0 -129 -58 -190t-192 -61h-84z" />
    <glyph glyph-name="bracketleft.uc" horiz-adv-x="399" 
d="M44 -70v890h332v-146h-161v-599h161v-145h-332z" />
    <glyph glyph-name="bracketright.uc" horiz-adv-x="399" 
d="M23 -70v145h162v599h-162v146h332v-890h-332z" />
    <glyph glyph-name="braceleft.uc" horiz-adv-x="462" 
d="M355 -70q-134 0 -191.5 60.5t-57.5 190.5v124h-82v140h82v125q0 129 57.5 189.5t191.5 60.5h84v-145h-84q-45 0 -62 -26.5t-17 -96.5v-353q0 -71 17 -97.5t62 -26.5h84v-145h-84z" />
    <glyph glyph-name="braceright.uc" horiz-adv-x="463" 
d="M23 -70v145h84q45 0 61.5 26.5t16.5 97.5v353q0 71 -16.5 97t-61.5 26h-84v145h84q134 0 191.5 -60.5t57.5 -189.5v-125h83v-140h-83v-124q0 -130 -57.5 -190.5t-191.5 -60.5h-84z" />
    <glyph glyph-name="hyphen.uc" horiz-adv-x="438" 
d="M31 304v145h375v-145h-375z" />
    <glyph glyph-name="endash.uc" horiz-adv-x="560" 
d="M31 304v145h498v-145h-498z" />
    <glyph glyph-name="endash.uc_salt_en" horiz-adv-x="500" 
d="M0 304v145h500v-145h-500z" />
    <glyph glyph-name="emdash.uc" horiz-adv-x="795" 
d="M31 304v145h733v-145h-733z" />
    <glyph glyph-name="emdash.uc_salt_em" horiz-adv-x="1000" 
d="M0 304v145h1000v-145h-1000z" />
    <glyph glyph-name="guillemotleft.uc" horiz-adv-x="618" 
d="M165 80l-134 270l134 271h178l-134 -271l134 -270h-178zM430 80l-134 270l134 271h178l-134 -271l134 -270h-178z" />
    <glyph glyph-name="guillemotright.uc" horiz-adv-x="618" 
d="M275 80l134 270l-134 271h178l134 -271l-134 -270h-178zM10 80l134 270l-134 271h178l134 -271l-134 -270h-178z" />
    <glyph glyph-name="guilsinglleft.uc" horiz-adv-x="353" 
d="M165 80l-134 270l134 271h178l-134 -271l134 -270h-178z" />
    <glyph glyph-name="guilsinglright.uc" horiz-adv-x="353" 
d="M11 80l134 270l-134 271h178l134 -271l-134 -270h-178z" />
    <glyph glyph-name="a.salt_simple" horiz-adv-x="558" 
d="M216 -9q-103 0 -147 51t-44 146v165q0 97 43 147t153 50q71 0 118 -62v53h175v-541h-175v52q-40 -61 -123 -61zM269 126q65 0 70 58v167q0 27 -18.5 43t-51.5 16q-69 0 -69 -64v-156q0 -64 69 -64z" />
    <glyph glyph-name="agrave.salt_simple" horiz-adv-x="558" 
d="M216 -9q-103 0 -147 51t-44 146v165q0 97 43 147t153 50q71 0 118 -62v53h175v-541h-175v52q-40 -61 -123 -61zM269 126q65 0 70 58v167q0 27 -18.5 43t-51.5 16q-69 0 -69 -64v-156q0 -64 69 -64zM222 580l-108 185h165l92 -185h-149z" />
    <glyph glyph-name="aacute.salt_simple" horiz-adv-x="558" 
d="M216 -9q-103 0 -147 51t-44 146v165q0 97 43 147t153 50q71 0 118 -62v53h175v-541h-175v52q-40 -61 -123 -61zM269 126q65 0 70 58v167q0 27 -18.5 43t-51.5 16q-69 0 -69 -64v-156q0 -64 69 -64zM207 580l93 187h164l-107 -187h-150z" />
    <glyph glyph-name="acircumflex.salt_simple" horiz-adv-x="558" 
d="M216 -9q-103 0 -147 51t-44 146v165q0 97 43 147t153 50q71 0 118 -62v53h175v-541h-175v52q-40 -61 -123 -61zM269 126q65 0 70 58v167q0 27 -18.5 43t-51.5 16q-69 0 -69 -64v-156q0 -64 69 -64zM70 580l124 171h169l124 -171h-136l-72 65l-71 -65h-138z" />
    <glyph glyph-name="atilde.salt_simple" horiz-adv-x="558" 
d="M216 -9q-103 0 -147 51t-44 146v165q0 97 43 147t153 50q71 0 118 -62v53h175v-541h-175v52q-40 -61 -123 -61zM269 126q65 0 70 58v167q0 27 -18.5 43t-51.5 16q-69 0 -69 -64v-156q0 -64 69 -64zM210 580h-119q0 78 25 114t89 36q32 0 74 -15t48 -15q23 0 23 30h119
q0 -78 -25.5 -114t-90.5 -36q-31 0 -72.5 15t-47.5 15q-23 0 -23 -30z" />
    <glyph glyph-name="adieresis.salt_simple" horiz-adv-x="558" 
d="M216 -9q-103 0 -147 51t-44 146v165q0 97 43 147t153 50q71 0 118 -62v53h175v-541h-175v52q-40 -61 -123 -61zM269 126q65 0 70 58v167q0 27 -18.5 43t-51.5 16q-69 0 -69 -64v-156q0 -64 69 -64zM103 580v143h148v-143h-148zM307 580v143h148v-143h-148z" />
    <glyph glyph-name="aring.salt_simple" horiz-adv-x="558" 
d="M216 -9q-103 0 -147 51t-44 146v165q0 97 43 147t153 50q71 0 118 -62v53h175v-541h-175v52q-40 -61 -123 -61zM269 126q65 0 70 58v167q0 27 -18.5 43t-51.5 16q-69 0 -69 -64v-156q0 -64 69 -64zM279 577q-127 0 -127 123q0 126 127 126t127 -126q0 -123 -127 -123z
M279 649q25 0 35 12t10 39q0 28 -10 41t-35 13t-35 -13t-10 -41q0 -27 10 -39t35 -12z" />
    <glyph glyph-name="amacron.salt_simple" horiz-adv-x="558" 
d="M216 -9q-103 0 -147 51t-44 146v165q0 97 43 147t153 50q71 0 118 -62v53h175v-541h-175v52q-40 -61 -123 -61zM269 126q65 0 70 58v167q0 27 -18.5 43t-51.5 16q-69 0 -69 -64v-156q0 -64 69 -64zM124 580v116h310v-116h-310z" />
    <glyph glyph-name="abreve.salt_simple" horiz-adv-x="558" 
d="M216 -9q-103 0 -147 51t-44 146v165q0 97 43 147t153 50q71 0 118 -62v53h175v-541h-175v52q-40 -61 -123 -61zM269 126q65 0 70 58v167q0 27 -18.5 43t-51.5 16q-69 0 -69 -64v-156q0 -64 69 -64zM279 578q-105 0 -148 41t-43 121h137q0 -67 54 -67t54 67h137
q0 -80 -42.5 -121t-148.5 -41z" />
    <glyph glyph-name="aogonek.salt_simple" horiz-adv-x="558" 
d="M216 -9q-103 0 -147 51t-44 146v165q0 97 43 147t153 50q71 0 118 -62v53h175v-541h-76q21 31 72 78h-99q-49 -33 -72 -70v44q-40 -61 -123 -61zM269 126q65 0 70 58v167q0 27 -18.5 43t-51.5 16q-69 0 -69 -64v-156q0 -64 69 -64zM515 -197h-72q-133 0 -133 105
q0 57 29 100v-8h99q-20 -31 -20 -63q0 -23 9 -31.5t35 -8.5h53v-94z" />
    <glyph glyph-name="g.salt_simple" horiz-adv-x="562" 
d="M274 -200q-118 0 -173.5 31.5t-66.5 117.5l171 32q5 -33 17.5 -44.5t51.5 -11.5q24 0 39 4.5t21 14.5t7.5 18.5t1.5 22.5v77q-44 -62 -118 -62q-111 0 -155.5 50.5t-44.5 146.5v156q0 96 43.5 146.5t152.5 50.5q77 0 122 -62v53h175v-543q0 -107 -53.5 -152.5
t-190.5 -45.5zM271 126q33 0 52.5 16t19.5 42v167q0 27 -19.5 43t-52.5 16q-34 0 -52.5 -17t-18.5 -47v-156q0 -30 18.5 -47t52.5 -17z" />
    <glyph glyph-name="gcircumflex.salt_simple" horiz-adv-x="562" 
d="M274 -200q-118 0 -173.5 31.5t-66.5 117.5l171 32q5 -33 17.5 -44.5t51.5 -11.5q24 0 39 4.5t21 14.5t7.5 18.5t1.5 22.5v77q-44 -62 -118 -62q-111 0 -155.5 50.5t-44.5 146.5v156q0 96 43.5 146.5t152.5 50.5q77 0 122 -62v53h175v-543q0 -107 -53.5 -152.5
t-190.5 -45.5zM271 126q33 0 52.5 16t19.5 42v167q0 27 -19.5 43t-52.5 16q-34 0 -52.5 -17t-18.5 -47v-156q0 -30 18.5 -47t52.5 -17zM72 580l124 171h169l124 -171h-136l-72 65l-71 -65h-138z" />
    <glyph glyph-name="gbreve.salt_simple" horiz-adv-x="562" 
d="M274 -200q-118 0 -173.5 31.5t-66.5 117.5l171 32q5 -33 17.5 -44.5t51.5 -11.5q24 0 39 4.5t21 14.5t7.5 18.5t1.5 22.5v77q-44 -62 -118 -62q-111 0 -155.5 50.5t-44.5 146.5v156q0 96 43.5 146.5t152.5 50.5q77 0 122 -62v53h175v-543q0 -107 -53.5 -152.5
t-190.5 -45.5zM271 126q33 0 52.5 16t19.5 42v167q0 27 -19.5 43t-52.5 16q-34 0 -52.5 -17t-18.5 -47v-156q0 -30 18.5 -47t52.5 -17zM281 578q-105 0 -148 41t-43 121h137q0 -67 54 -67t54 67h137q0 -80 -42.5 -121t-148.5 -41z" />
    <glyph glyph-name="gdotaccent.salt_simple" horiz-adv-x="562" 
d="M274 -200q-118 0 -173.5 31.5t-66.5 117.5l171 32q5 -33 17.5 -44.5t51.5 -11.5q24 0 39 4.5t21 14.5t7.5 18.5t1.5 22.5v77q-44 -62 -118 -62q-111 0 -155.5 50.5t-44.5 146.5v156q0 96 43.5 146.5t152.5 50.5q77 0 122 -62v53h175v-543q0 -107 -53.5 -152.5
t-190.5 -45.5zM271 126q33 0 52.5 16t19.5 42v167q0 27 -19.5 43t-52.5 16q-34 0 -52.5 -17t-18.5 -47v-156q0 -30 18.5 -47t52.5 -17zM198 580v162h167v-162h-167z" />
    <glyph glyph-name="gcommaaccent.salt_simple" horiz-adv-x="562" 
d="M274 -200q-118 0 -173.5 31.5t-66.5 117.5l171 32q5 -33 17.5 -44.5t51.5 -11.5q24 0 39 4.5t21 14.5t7.5 18.5t1.5 22.5v77q-44 -62 -118 -62q-111 0 -155.5 50.5t-44.5 146.5v156q0 96 43.5 146.5t152.5 50.5q77 0 122 -62v53h175v-543q0 -107 -53.5 -152.5
t-190.5 -45.5zM271 126q33 0 52.5 16t19.5 42v167q0 27 -19.5 43t-52.5 16q-34 0 -52.5 -17t-18.5 -47v-156q0 -30 18.5 -47t52.5 -17zM195 580v156l45 105h92l-45 -105h69v-156h-161z" />
    <glyph glyph-name="u.salt_simple" horiz-adv-x="563" 
d="M281 -8q-243 0 -243 197v352h175v-350q0 -64 68 -64q69 0 69 64v350h175v-352q0 -197 -244 -197z" />
    <glyph glyph-name="ugrave.salt_simple" horiz-adv-x="563" 
d="M281 -8q-243 0 -243 197v352h175v-350q0 -64 68 -64q69 0 69 64v350h175v-352q0 -197 -244 -197zM224 580l-108 185h165l92 -185h-149z" />
    <glyph glyph-name="uacute.salt_simple" horiz-adv-x="563" 
d="M281 -8q-243 0 -243 197v352h175v-350q0 -64 68 -64q69 0 69 64v350h175v-352q0 -197 -244 -197zM209 580l93 187h164l-107 -187h-150z" />
    <glyph glyph-name="ucircumflex.salt_simple" horiz-adv-x="563" 
d="M281 -8q-243 0 -243 197v352h175v-350q0 -64 68 -64q69 0 69 64v350h175v-352q0 -197 -244 -197zM72 580l124 171h169l124 -171h-136l-72 65l-71 -65h-138z" />
    <glyph glyph-name="udieresis.salt_simple" horiz-adv-x="563" 
d="M281 -8q-243 0 -243 197v352h175v-350q0 -64 68 -64q69 0 69 64v350h175v-352q0 -197 -244 -197zM105 580v143h148v-143h-148zM309 580v143h148v-143h-148z" />
    <glyph glyph-name="utilde.salt_simple" horiz-adv-x="563" 
d="M281 -8q-243 0 -243 197v352h175v-350q0 -64 68 -64q69 0 69 64v350h175v-352q0 -197 -244 -197zM212 580h-119q0 78 25 114t89 36q32 0 74 -15t48 -15q23 0 23 30h119q0 -78 -25.5 -114t-90.5 -36q-31 0 -72.5 15t-47.5 15q-23 0 -23 -30z" />
    <glyph glyph-name="umacron.salt_simple" horiz-adv-x="563" 
d="M281 -8q-243 0 -243 197v352h175v-350q0 -64 68 -64q69 0 69 64v350h175v-352q0 -197 -244 -197zM126 580v116h310v-116h-310z" />
    <glyph glyph-name="ubreve.salt_simple" horiz-adv-x="563" 
d="M281 -8q-243 0 -243 197v352h175v-350q0 -64 68 -64q69 0 69 64v350h175v-352q0 -197 -244 -197zM281 578q-105 0 -148 41t-43 121h137q0 -67 54 -67t54 67h137q0 -80 -42.5 -121t-148.5 -41z" />
    <glyph glyph-name="uring.salt_simple" horiz-adv-x="563" 
d="M281 -8q-243 0 -243 197v352h175v-350q0 -64 68 -64q69 0 69 64v350h175v-352q0 -197 -244 -197zM281 577q-127 0 -127 123q0 126 127 126t127 -126q0 -123 -127 -123zM281 649q25 0 35 12t10 39q0 28 -10 41t-35 13t-35 -13t-10 -41q0 -27 10 -39t35 -12z" />
    <glyph glyph-name="uhungarumlaut.salt_simple" horiz-adv-x="563" 
d="M281 -8q-243 0 -243 197v352h175v-350q0 -64 68 -64q69 0 69 64v350h175v-352q0 -197 -244 -197zM109 580l93 187h150l-108 -187h-135zM305 580l93 187h150l-108 -187h-135z" />
    <glyph glyph-name="uogonek.salt_simple" horiz-adv-x="563" 
d="M324 -198q-133 0 -133 105q0 51 22 90q-175 25 -175 192v352h175v-350q0 -64 68 -64q69 0 69 64v350h175v-352q0 -183 -209 -195q-17 -27 -17 -58q0 -23 9 -31.5t35 -8.5h53v-94h-72z" />
    <glyph glyph-name="l.salt_tail" horiz-adv-x="337" 
d="M238 0q-110 0 -149 43.5t-39 137.5v599h175v-584q0 -27 6.5 -37t31.5 -10h52v-149h-77z" />
    <glyph glyph-name="lacute.salt_tail" horiz-adv-x="337" 
d="M315 0h-77q-110 0 -149 43.5t-39 137.5v599h175v-584q0 -27 6.5 -37t31.5 -10h52v-149zM63 798l93 187h164l-107 -187h-150z" />
    <glyph glyph-name="lcommaaccent.salt_tail" horiz-adv-x="337" 
d="M315 0h-77q-110 0 -149 43.5t-39 137.5v599h175v-584q0 -27 6.5 -37t31.5 -10h52v-149zM89 -285l45 105h-69v156h161v-156l-45 -105h-92z" />
    <glyph glyph-name="lcaron.salt_tail" horiz-adv-x="337" 
d="M315 0h-77q-110 0 -149 43.5t-39 137.5v599h175v-584q0 -27 6.5 -37t31.5 -10h52v-149zM265 571l20 259h154l-47 -259h-127z" />
    <glyph glyph-name="y.salt_tail" horiz-adv-x="536" 
d="M77 -198v147h41q30 0 42 7.5t20 29.5l3 10l-183 545h175l92 -326h2l94 326h173l-200 -586q-33 -96 -71.5 -124.5t-131.5 -28.5h-56z" />
    <glyph glyph-name="yacute.salt_tail" horiz-adv-x="536" 
d="M77 -198v147h41q30 0 42 7.5t20 29.5l3 10l-183 545h175l92 -326h2l94 326h173l-200 -586q-33 -96 -71.5 -124.5t-131.5 -28.5h-56zM196 580l93 187h164l-107 -187h-150z" />
    <glyph glyph-name="ydieresis.salt_tail" horiz-adv-x="536" 
d="M77 -198v147h41q30 0 42 7.5t20 29.5l3 10l-183 545h175l92 -326h2l94 326h173l-200 -586q-33 -96 -71.5 -124.5t-131.5 -28.5h-56zM92 580v143h148v-143h-148zM296 580v143h148v-143h-148z" />
    <glyph glyph-name="ycircumflex.salt_tail" horiz-adv-x="536" 
d="M77 -198v147h41q30 0 42 7.5t20 29.5l3 10l-183 545h175l92 -326h2l94 326h173l-200 -586q-33 -96 -71.5 -124.5t-131.5 -28.5h-56zM59 580l124 171h169l124 -171h-136l-72 65l-71 -65h-138z" />
    <glyph glyph-name="ygrave.salt_tail" horiz-adv-x="536" 
d="M77 -198v147h41q30 0 42 7.5t20 29.5l3 10l-183 545h175l92 -326h2l94 326h173l-200 -586q-33 -96 -71.5 -124.5t-131.5 -28.5h-56zM211 580l-108 185h165l92 -185h-149z" />
    <glyph glyph-name="ldot.salt_tail" horiz-adv-x="420" 
d="M315 0h-77q-110 0 -149 43.5t-39 137.5v599h175v-584q0 -27 6.5 -37t31.5 -10h52v-149zM273 311v146h151v-146h-151z" />
    <glyph glyph-name="lslash.salt_tail" horiz-adv-x="357" 
d="M14 331v147l46 15v287h175v-230l71 24v-147l-71 -24v-207q0 -27 6.5 -37t31.5 -10h52v-149h-77q-110 0 -149 43.5t-39 137.5v165z" />
    <glyph glyph-name="f_f_l.salt_tail" horiz-adv-x="999" 
d="M88 0v403h-69v138h69v55q0 95 39 139.5t149 44.5h77v-149h-52q-25 0 -31.5 -9t-6.5 -34v-47h137v55q0 95 39 139.5t149 44.5h77v-149h-52q-25 0 -31.5 -9t-6.5 -34v-47h90v-138h-90v-403h-175v403h-137v-403h-175zM977 0h-77q-110 0 -149 43.5t-39 137.5v599h175v-584
q0 -27 6.5 -37t31.5 -10h52v-149z" />
    <glyph glyph-name="f_l.salt_tail" horiz-adv-x="687" 
d="M88 0v403h-69v138h69v55q0 95 39 139.5t149 44.5h77v-149h-52q-25 0 -31.5 -9t-6.5 -34v-47h90v-138h-90v-403h-175zM665 0h-77q-110 0 -149 43.5t-39 137.5v599h175v-584q0 -27 6.5 -37t31.5 -10h52v-149z" />
    <glyph glyph-name="I.salt_bar" horiz-adv-x="429" 
d="M26 0v150h98v444h-98v156h377v-156h-99v-444h100v-150h-378z" />
    <glyph glyph-name="Igrave.salt_bar" horiz-adv-x="429" 
d="M26 0v150h98v444h-98v156h377v-156h-99v-444h100v-150h-378zM137 778l-108 185h165l92 -185h-149z" />
    <glyph glyph-name="Iacute.salt_bar" horiz-adv-x="429" 
d="M26 0v150h98v444h-98v156h377v-156h-99v-444h100v-150h-378zM142 778l93 187h164l-107 -187h-150z" />
    <glyph glyph-name="Icircumflex.salt_bar" horiz-adv-x="429" 
d="M26 0v150h98v444h-98v156h377v-156h-99v-444h100v-150h-378zM5 778l124 171h169l124 -171h-136l-72 65l-71 -65h-138z" />
    <glyph glyph-name="Idieresis.salt_bar" horiz-adv-x="429" 
d="M26 0v150h98v444h-98v156h377v-156h-99v-444h100v-150h-378zM38 778v143h148v-143h-148zM242 778v143h148v-143h-148z" />
    <glyph glyph-name="Itilde.salt_bar" horiz-adv-x="429" 
d="M26 0v150h98v444h-98v156h377v-156h-99v-444h100v-150h-378zM145 778h-119q0 78 25 114t89 36q32 0 74 -15t48 -15q23 0 23 30h119q0 -78 -25.5 -114t-90.5 -36q-31 0 -72.5 15t-47.5 15q-23 0 -23 -30z" />
    <glyph glyph-name="Imacron.salt_bar" horiz-adv-x="429" 
d="M26 0v150h98v444h-98v156h377v-156h-99v-444h100v-150h-378zM59 778v116h310v-116h-310z" />
    <glyph glyph-name="Ibreve.salt_bar" horiz-adv-x="429" 
d="M26 0v150h98v444h-98v156h377v-156h-99v-444h100v-150h-378zM214 776q-105 0 -148 41t-43 121h137q0 -67 54 -67t54 67h137q0 -80 -42.5 -121t-148.5 -41z" />
    <glyph glyph-name="Iogonek.salt_bar" horiz-adv-x="429" 
d="M26 0v150h98v444h-98v156h377v-156h-99v-444h100v-150h-176q-21 -32 -21 -64q0 -23 9 -31.5t35 -8.5h53v-94h-72q-133 0 -133 105q0 53 24 93h-97z" />
    <glyph glyph-name="Idotaccent.salt_bar" horiz-adv-x="429" 
d="M26 0v150h98v444h-98v156h377v-156h-99v-444h100v-150h-378zM131 778v162h167v-162h-167z" />
    <glyph glyph-name="IJ.salt_bar" horiz-adv-x="766" 
d="M26 0v150h98v444h-98v156h377v-156h-99v-444h90v-150h-368zM430 0v150h29q56 0 69 20t13 88v492h179v-501q0 -68 -8.5 -110t-35 -76t-78 -48.5t-134.5 -14.5h-34z" />
    <glyph glyph-name="registered.salt_big" horiz-adv-x="738" 
d="M206 143v468h170q87 0 125.5 -31.5t38.5 -98.5v-42q0 -83 -71 -111l90 -185h-117l-82 167h-42v-167h-112zM369 -9q-156 0 -239 71t-83 203v220q0 132 83.5 203t238.5 71t238.5 -71t83.5 -203v-220q0 -131 -83.5 -202.5t-238.5 -71.5zM369 52q255 0 255 214v218
q0 214 -255 214t-255 -214v-218q0 -214 255 -214zM318 398h62q32 0 43 10.5t11 38.5v21q0 28 -11 38.5t-43 10.5h-62v-119z" />
    <glyph glyph-name="zero.tab" 
d="M310 -9q-133 0 -203.5 63.5t-70.5 192.5v256q0 129 70.5 192.5t203.5 63.5q273 0 273 -256v-256q0 -129 -70.5 -192.5t-202.5 -63.5zM310 140q58 0 76 27t18 93v225q0 66 -17.5 93t-76.5 27t-76.5 -26.5t-17.5 -93.5v-225q0 -66 17.5 -93t76.5 -27z" />
    <glyph glyph-name="zero.tab_salt_slash" 
d="M310 -9q-133 0 -203.5 63.5t-70.5 192.5v256q0 129 70.5 192.5t203.5 63.5q273 0 273 -256v-256q0 -129 -70.5 -192.5t-202.5 -63.5zM310 130q61 0 80 28.5t19 97.5v175l-130 -299q9 -2 31 -2zM211 489v-169l126 293q-16 2 -27 2q-62 0 -80.5 -28t-18.5 -98z" />
    <glyph glyph-name="one.tab" 
d="M105 0v150h139v444h-139l29 156h289v-600h126v-150h-444z" />
    <glyph glyph-name="two.tab" 
d="M58 0v130q0 60 18 107t47 76.5t64 53t70.5 41t64.5 34.5t47 40t18 52q0 44 -15.5 60t-61.5 16q-43 0 -61.5 -21t-21.5 -81l-170 15q3 41 10 73.5t24.5 64t44 52.5t70 33.5t100.5 12.5q69 0 118 -13t75.5 -31.5t40.5 -51t17.5 -60t3.5 -69.5q0 -56 -24.5 -100.5t-61 -70.5
t-79.5 -51t-79.5 -43.5t-61 -46.5t-24.5 -61v-11h339v-150h-512z" />
    <glyph glyph-name="three.tab" 
d="M309 -9q-80 0 -133 17t-81.5 52.5t-40.5 75.5t-17 99l172 16q6 -62 26 -88.5t74 -26.5q52 0 72 22t20 71q0 51 -18.5 69t-71.5 18h-116v138h114q50 0 66 19t16 62q0 37 -16.5 55t-67.5 18q-52 0 -70 -21.5t-24 -76.5l-167 15q5 56 17.5 95t40.5 72.5t79 50t126 16.5
q143 0 199.5 -47.5t56.5 -142.5q0 -70 -23 -108.5t-78 -58.5q63 -19 87 -60.5t24 -124.5q0 -112 -61.5 -169t-204.5 -57z" />
    <glyph glyph-name="four.tab" 
d="M347 0v145h-318v138l258 467h184l-260 -467h136v157h165v-157h83v-138h-83v-145h-165z" />
    <glyph glyph-name="five.tab" 
d="M311 -9q-75 0 -123.5 13.5t-78 45.5t-43 74t-19.5 109l169 15q5 -64 23 -88t72 -24q51 0 69 22.5t18 68.5v41q0 54 -18.5 75.5t-74.5 21.5q-54 0 -96 -25l-146 45l12 365h463l-29 -156h-280l-6 -129q48 37 120 37q58 0 96.5 -8.5t69.5 -31.5t45 -67t14 -112v-54
q0 -129 -57 -183.5t-200 -54.5z" />
    <glyph glyph-name="six.tab" 
d="M313 -9q-126 0 -194.5 57t-68.5 173v282q0 256 260 256q120 0 186 -49t76 -166l-169 -14q-4 47 -22.5 63t-70.5 16q-48 0 -68.5 -24.5t-20.5 -75.5v-73q21 26 49 39t81 13q117 0 171 -52t54 -169v-40q0 -123 -66.5 -179.5t-196.5 -56.5zM313 141q92 0 92 91v23
q0 48 -21 69t-71 21q-49 0 -70.5 -22t-21.5 -68v-23q0 -46 21.5 -68.5t70.5 -22.5z" />
    <glyph glyph-name="seven.tab" 
d="M145 0l233 594h-325l29 156h479v-156l-235 -594h-181z" />
    <glyph glyph-name="eight.tab" 
d="M310 -9q-143 0 -205 56.5t-62 142.5v35q0 69 24 113.5t89 66.5q-59 21 -83 55.5t-24 90.5v29q0 82 65.5 130.5t195.5 48.5q131 0 196 -47t65 -132v-29q0 -55 -24 -90t-84 -56q67 -22 91 -66t24 -114v-35q0 -86 -62.5 -142.5t-205.5 -56.5zM310 128q98 0 98 87v26
q0 91 -98 91q-97 0 -97 -91v-26q0 -87 97 -87zM310 453q90 0 90 76v15q0 74 -90 74t-90 -74v-15q0 -76 90 -76z" />
    <glyph glyph-name="nine.tab" 
d="M310 -9q-120 0 -186 49t-76 166l170 14q3 -46 21 -65t71 -19q48 0 68.5 25.5t20.5 76.5v76q-32 -52 -130 -52q-117 0 -171 52t-54 169v40q0 123 66.5 179.5t197.5 56.5q125 0 193.5 -57t68.5 -173v-282q0 -256 -260 -256zM308 399q50 0 70.5 20.5t20.5 67.5v25
q0 46 -21 68.5t-70 22.5q-93 0 -93 -91v-25q0 -48 21 -68t72 -20z" />
    <glyph glyph-name="plus.tab" 
d="M234 156v153h-141v136h141v149h151v-149h142v-136h-142v-153h-151z" />
    <glyph glyph-name="minus.tab" 
d="M93 309v136h434v-136h-434z" />
    <glyph glyph-name="multiply.tab" 
d="M183 154l-96 96l127 127l-127 127l96 96l127 -127l127 127l96 -96l-127 -127l127 -127l-96 -96l-127 127z" />
    <glyph glyph-name="divide.tab" 
d="M232 112v138h154v-138h-154zM93 309v136h434v-136h-434zM232 500v138h154v-138h-154z" />
    <glyph glyph-name="equal.tab" 
d="M93 199v139h434v-139h-434zM93 416v139h434v-139h-434z" />
    <glyph glyph-name="less.tab" 
d="M528 142l-435 156v147l435 158v-138l-285 -95l285 -91v-137z" />
    <glyph glyph-name="greater.tab" 
d="M93 142v137l284 91l-284 95v138l435 -158v-147z" />
    <glyph glyph-name="dollar.tab" 
d="M225 -124v126q-96 14 -135.5 66t-50.5 150l170 24q9 -65 27.5 -85.5t71.5 -20.5q62 0 80.5 19t18.5 67q0 39 -20 55t-85 33q-37 9 -58.5 15t-51.5 16.5t-46.5 21t-36 27.5t-29 36.5t-16.5 47.5t-7 62q0 88 37 141t131 69v129h158v-127q98 -13 136 -64.5t46 -145.5
l-173 -23q-5 60 -19.5 77t-62.5 17q-49 0 -67 -14t-18 -53q0 -38 24.5 -52.5t97.5 -31.5q50 -12 78.5 -21t61.5 -26t49.5 -39t28 -57t11.5 -82q0 -104 -41 -161t-152 -71v-125h-158z" />
    <glyph glyph-name="cent.tab" 
d="M229 -124v126q-158 30 -158 196v145q0 166 159 196v115h155v-113q84 -11 117 -53t44 -125l-171 -25q-4 41 -15.5 56.5t-49.5 15.5q-37 0 -50.5 -17t-13.5 -47v-156q0 -30 13.5 -47t50.5 -17q39 0 50.5 13t18.5 56l161 -24q-12 -75 -44.5 -116.5t-110.5 -54.5v-124h-156z
" />
    <glyph glyph-name="Euro.tab" 
d="M11 396v116h72q2 124 71 185.5t192 61.5q129 0 187 -54.5t70 -186.5l-170 -22q-2 29 -4 41.5t-7 30t-13.5 24t-24 11.5t-38.5 5q-54 0 -72 -24t-19 -72h130v-116h-130v-42h130v-116h-131q0 -27 1.5 -42t10 -31t28 -23t52.5 -7q55 0 69.5 24t20.5 96l167 -22
q-15 -133 -72.5 -187.5t-184.5 -54.5q-124 0 -192.5 61.5t-70.5 185.5h-72v116h72v42h-72z" />
    <glyph glyph-name="sterling.tab" 
d="M41 291v140h58q-18 65 -18 102q0 108 58 167t192 59q129 0 186.5 -53t66.5 -182l-169 -15q-6 61 -22.5 82.5t-62.5 21.5q-48 0 -63.5 -20t-15.5 -63q0 -34 18 -99h161v-140h-127q3 -18 3 -33q0 -66 -26 -108h298v-150h-506v117q63 74 63 148q0 8 -2 26h-92z" />
    <glyph glyph-name="yen.tab" 
d="M47 254v116h138l-176 380h186l118 -282h2l121 282h174l-176 -380h145v-116h-179v-42h179v-116h-179v-96h-181v96h-172v116h172v42h-172z" />
    <glyph glyph-name="florin.tab" 
d="M209 -198v519h-103v138h103v109q0 94 39 138t149 44h113v-149h-88q-25 0 -31.5 -10t-6.5 -37v-95h126v-138h-126v-519h-175z" />
    <glyph glyph-name="numbersign.tab" 
d="M71 0l22 194h-73v138h90l9 80h-99v138h115l23 200h161l-25 -200h70l24 200h159l-23 -200h75v-138h-91l-9 -80h100v-138h-116l-23 -194h-160l23 194h-70l-22 -194h-160zM267 330h74l10 84h-74z" />
    <glyph glyph-name="prime.tab" horiz-adv-x="310" 
d="M66 471l73 279h161l-87 -279h-147z" />
    <glyph glyph-name="primedbl.tab" 
d="M111 471l73 279h151l-87 -279h-137zM341 471l72 279h151l-88 -279h-135z" />
    <glyph glyph-name="period.tab" horiz-adv-x="310" 
d="M55 0v194h200v-194h-200z" />
    <glyph glyph-name="comma.tab" horiz-adv-x="310" 
d="M85 -131l56 131h-86v194h200v-194l-56 -131h-114z" />
    <glyph glyph-name="colon.tab" horiz-adv-x="310" 
d="M60 0v184h190v-184h-190zM60 357v184h190v-184h-190z" />
    <glyph glyph-name="semicolon.tab" horiz-adv-x="310" 
d="M80 -131l56 131h-76v184h190v-184l-56 -131h-114zM60 357v184h190v-184h-190z" />
    <glyph glyph-name="hyphen.tab" 
d="M122 304v145h375v-145h-375z" />
    <glyph glyph-name="parenleft.tab" horiz-adv-x="310" 
d="M262 -70q-133 0 -191 61t-58 190v389q0 129 58 189.5t191 60.5h35v-145h-35q-45 0 -61.5 -24.5t-16.5 -92.5v-365q0 -68 17 -93t61 -25h35v-145h-35z" />
    <glyph glyph-name="parenright.tab" horiz-adv-x="310" 
d="M12 -70v145h34q45 0 61.5 25t16.5 93v364q0 68 -16.5 92.5t-61.5 24.5h-34v145h34q134 0 192 -60.5t58 -189.5v-388q0 -129 -58 -190t-192 -61h-34z" />
    <glyph glyph-name="space.tab" horiz-adv-x="310" 
 />
    <glyph glyph-name="space.tab_em" horiz-adv-x="1240" 
 />
    <glyph glyph-name="space.tab_thin" horiz-adv-x="155" 
 />
    <glyph glyph-name="space.frac" horiz-adv-x="100" 
 />
    <glyph glyph-name="zero.numr" horiz-adv-x="463" 
d="M232 222q-96 0 -152.5 45t-56.5 134v179q0 89 57 134t152 45t151.5 -45t56.5 -134v-179q0 -89 -56.5 -134t-151.5 -45zM232 346q35 0 49 15t14 49v157q0 35 -14 49.5t-49 14.5t-49 -14.5t-14 -49.5v-157q0 -35 14 -49.5t49 -14.5z" />
    <glyph glyph-name="one.numr" horiz-adv-x="284" 
d="M86 228v396h-83l20 129h208v-525h-145z" />
    <glyph glyph-name="two.numr" horiz-adv-x="426" 
d="M20 228v91q0 54 25 94.5t61 63t72 40t61 37t25 43.5q0 25 -13 34t-38 9q-31 0 -43 -15t-14 -46l-139 10q4 75 50.5 122.5t142.5 47.5q60 0 100.5 -14t60.5 -39t27.5 -52t7.5 -62q0 -42 -25 -76.5t-60.5 -56.5t-71 -39.5t-60.5 -34t-25 -31.5v-4h243v-122h-387z" />
    <glyph glyph-name="three.numr" horiz-adv-x="446" 
d="M223 222q-59 0 -99.5 12t-62.5 36.5t-32 52.5t-14 69l137 13q4 -41 19 -55.5t55 -14.5q34 0 47.5 14t13.5 42q0 29 -14 41t-46 12h-101v107h100q24 0 36.5 7.5t15 16.5t2.5 25q0 20 -11 31t-46 11q-38 0 -49.5 -10.5t-14.5 -46.5l-137 10q7 81 49.5 122.5t151.5 41.5
q196 0 196 -133q0 -48 -18 -75.5t-57 -41.5q47 -13 64.5 -42t17.5 -87q0 -158 -203 -158z" />
    <glyph glyph-name="four.numr" horiz-adv-x="467" 
d="M260 228v91h-240v107l194 327h147l-196 -327h95v110h132v-110h58v-107h-58v-91h-132z" />
    <glyph glyph-name="five.numr" horiz-adv-x="439" 
d="M221 222q-107 0 -150 39t-52 130l138 11q2 -35 14.5 -49.5t49.5 -14.5q58 0 58 56v29q0 31 -14 43t-50 12q-54 0 -84 -17l-102 31l9 261h359l-21 -119h-212l-3 -60q38 15 82 15q85 0 130 -35t45 -128v-38q0 -88 -47.5 -127t-149.5 -39z" />
    <glyph glyph-name="six.numr" horiz-adv-x="446" 
d="M225 222q-90 0 -145.5 40.5t-55.5 120.5v197q0 89 53 134t146 45q187 0 200 -150l-138 -10q-2 24 -14.5 33t-47.5 9q-34 0 -48 -13.5t-14 -43.5v-41q26 32 90 32q86 0 130.5 -35.5t44.5 -114.5v-38q0 -85 -54 -125t-147 -40zM225 339q34 0 48.5 11.5t14.5 36.5v29
q0 27 -14 37.5t-49 10.5t-49.5 -11t-14.5 -37v-29q0 -25 14.5 -36.5t49.5 -11.5z" />
    <glyph glyph-name="seven.numr" horiz-adv-x="398" 
d="M73 228l164 401h-228l20 124h356v-124l-165 -401h-147z" />
    <glyph glyph-name="eight.numr" horiz-adv-x="448" 
d="M224 222q-101 0 -152.5 40.5t-51.5 98.5v24q0 49 17 80t62 46q-41 15 -58 39.5t-17 63.5v20q0 56 54 90.5t146 34.5q94 0 147 -33t53 -92v-20q0 -38 -17 -63t-59 -40q47 -15 64 -46t17 -80v-24q0 -58 -52 -98.5t-153 -40.5zM224 331q66 0 66 50v19q0 53 -66 53
q-65 0 -65 -53v-19q0 -50 65 -50zM224 552q60 0 60 43v11q0 42 -60 42t-60 -42v-11q0 -43 60 -43z" />
    <glyph glyph-name="nine.numr" horiz-adv-x="446" 
d="M223 222q-187 0 -200 150l138 10q2 -24 14.5 -33t47.5 -9q34 0 48 13.5t14 43.5v41q-26 -32 -90 -32q-86 0 -130.5 35.5t-44.5 114.5v38q0 85 54 125t147 40q90 0 145.5 -40.5t55.5 -120.5v-197q0 -89 -53 -134t-146 -45zM221 515q35 0 49.5 11t14.5 37v29
q0 25 -14.5 36.5t-49.5 11.5q-34 0 -48.5 -11.5t-14.5 -36.5v-29q0 -27 14 -37.5t49 -10.5z" />
    <glyph glyph-name="zero.dnom" horiz-adv-x="463" 
d="M232 -6q-96 0 -152.5 45t-56.5 134v179q0 89 57 134t152 45t151.5 -45t56.5 -134v-179q0 -89 -56.5 -134t-151.5 -45zM232 118q35 0 49 15t14 49v157q0 35 -14 49.5t-49 14.5t-49 -14.5t-14 -49.5v-157q0 -35 14 -49.5t49 -14.5z" />
    <glyph glyph-name="one.dnom" horiz-adv-x="284" 
d="M86 0v396h-83l20 129h208v-525h-145z" />
    <glyph glyph-name="two.dnom" horiz-adv-x="426" 
d="M20 0v91q0 54 25 94.5t61 63t72 40t61 37t25 43.5q0 25 -13 34t-38 9q-31 0 -43 -15t-14 -46l-139 10q4 75 50.5 122.5t142.5 47.5q60 0 100.5 -14t60.5 -39t27.5 -52t7.5 -62q0 -42 -25 -76.5t-60.5 -56.5t-71 -39.5t-60.5 -34t-25 -31.5v-4h243v-122h-387z" />
    <glyph glyph-name="three.dnom" horiz-adv-x="446" 
d="M223 -6q-59 0 -99.5 12t-62.5 36.5t-32 52.5t-14 69l137 13q4 -41 19 -55.5t55 -14.5q34 0 47.5 14t13.5 42q0 29 -14 41t-46 12h-101v107h100q24 0 36.5 7.5t15 16.5t2.5 25q0 20 -11 31t-46 11q-38 0 -49.5 -10.5t-14.5 -46.5l-137 10q7 81 49.5 122.5t151.5 41.5
q196 0 196 -133q0 -48 -18 -75.5t-57 -41.5q47 -13 64.5 -42t17.5 -87q0 -158 -203 -158z" />
    <glyph glyph-name="four.dnom" horiz-adv-x="467" 
d="M260 0v91h-240v107l194 327h147l-196 -327h95v110h132v-110h58v-107h-58v-91h-132z" />
    <glyph glyph-name="five.dnom" horiz-adv-x="439" 
d="M221 -6q-107 0 -150 39t-52 130l138 11q2 -35 14.5 -49.5t49.5 -14.5q58 0 58 56v29q0 31 -14 43t-50 12q-54 0 -84 -17l-102 31l9 261h359l-21 -119h-212l-3 -60q38 15 82 15q85 0 130 -35t45 -128v-38q0 -88 -47.5 -127t-149.5 -39z" />
    <glyph glyph-name="six.dnom" horiz-adv-x="446" 
d="M225 -6q-90 0 -145.5 40.5t-55.5 120.5v197q0 89 53 134t146 45q187 0 200 -150l-138 -10q-2 24 -14.5 33t-47.5 9q-34 0 -48 -13.5t-14 -43.5v-41q26 32 90 32q86 0 130.5 -35.5t44.5 -114.5v-38q0 -85 -54 -125t-147 -40zM225 111q34 0 48.5 11.5t14.5 36.5v29
q0 27 -14 37.5t-49 10.5t-49.5 -11t-14.5 -37v-29q0 -25 14.5 -36.5t49.5 -11.5z" />
    <glyph glyph-name="seven.dnom" horiz-adv-x="398" 
d="M73 0l164 401h-228l20 124h356v-124l-165 -401h-147z" />
    <glyph glyph-name="eight.dnom" horiz-adv-x="448" 
d="M224 -6q-101 0 -152.5 40.5t-51.5 98.5v24q0 49 17 80t62 46q-41 15 -58 39.5t-17 63.5v20q0 56 54 90.5t146 34.5q94 0 147 -33t53 -92v-20q0 -38 -17 -63t-59 -40q47 -15 64 -46t17 -80v-24q0 -58 -52 -98.5t-153 -40.5zM224 103q66 0 66 50v19q0 53 -66 53
q-65 0 -65 -53v-19q0 -50 65 -50zM224 324q60 0 60 43v11q0 42 -60 42t-60 -42v-11q0 -43 60 -43z" />
    <glyph glyph-name="nine.dnom" horiz-adv-x="446" 
d="M223 -6q-187 0 -200 150l138 10q2 -24 14.5 -33t47.5 -9q34 0 48 13.5t14 43.5v41q-26 -32 -90 -32q-86 0 -130.5 35.5t-44.5 114.5v38q0 85 54 125t147 40q90 0 145.5 -40.5t55.5 -120.5v-197q0 -89 -53 -134t-146 -45zM221 287q35 0 49.5 11t14.5 37v29
q0 25 -14.5 36.5t-49.5 11.5q-34 0 -48.5 -11.5t-14.5 -36.5v-29q0 -27 14 -37.5t49 -10.5z" />
    <glyph glyph-name="onesuperior" horiz-adv-x="344" 
d="M116 249v396h-83l20 129h208v-525h-145z" />
    <glyph glyph-name="twosuperior" horiz-adv-x="486" 
d="M50 249v91q0 54 25 94.5t61 63t72 40t61 37t25 43.5q0 25 -13 34t-38 9q-31 0 -43 -15t-14 -46l-139 10q4 75 50.5 122.5t142.5 47.5q60 0 100.5 -14t60.5 -39t27.5 -52t7.5 -62q0 -42 -25 -76.5t-60.5 -56.5t-71 -39.5t-60.5 -34t-25 -31.5v-4h243v-122h-387z" />
    <glyph glyph-name="threesuperior" horiz-adv-x="506" 
d="M253 243q-59 0 -99.5 12t-62.5 36.5t-32 52.5t-14 69l137 13q4 -41 19 -55.5t55 -14.5q34 0 47.5 14t13.5 42q0 29 -14 41t-46 12h-101v107h100q24 0 36.5 7.5t15 16.5t2.5 25q0 19 -11 30.5t-46 11.5q-38 0 -49.5 -10.5t-14.5 -46.5l-137 10q7 81 49.5 122.5t151.5 41.5
q196 0 196 -133q0 -48 -18 -75.5t-57 -41.5q47 -13 64.5 -42t17.5 -87q0 -158 -203 -158z" />
    </font>
</defs>
</svg>
